<svg version="1.1" id="Layer_1" xmlns="http://www.w3.org/2000/svg" xmlns:xlink="http://www.w3.org/1999/xlink" x="0px" y="0px"
	 width="100%" viewBox="0 0 2000 2000" enable-background="new 0 0 2000 2000" xml:space="preserve">
<path fill="#FEFEFF" opacity="1.000000" stroke="none" 
	d="
M1070.000000,2001.000000 
	C713.333313,2001.000000 357.166656,2001.000000 1.000000,2001.000000 
	C1.000000,1334.333374 1.000000,667.666687 1.000000,1.000000 
	C667.666687,1.000000 1334.333374,1.000000 2001.000000,1.000000 
	C2001.000000,667.666687 2001.000000,1334.333374 2001.000000,2001.000000 
	C1690.833374,2001.000000 1380.666626,2001.000000 1070.000000,2001.000000 
M1696.014282,909.401978 
	C1695.292236,903.654907 1694.986450,897.818665 1693.776978,892.176025 
	C1688.016968,865.303040 1682.680176,838.313171 1675.934326,811.683655 
	C1666.158569,773.092468 1651.599609,736.141174 1634.561890,700.195374 
	C1616.866333,662.862183 1595.815674,627.481750 1571.913818,593.781250 
	C1553.459961,567.762024 1533.364990,543.025635 1511.267700,520.098022 
	C1493.984009,502.164795 1475.715454,485.083221 1456.914673,468.738647 
	C1440.052002,454.078979 1422.389160,440.203461 1404.158447,427.281311 
	C1363.494507,398.458282 1320.064453,374.415558 1274.096069,355.018494 
	C1244.667969,342.600891 1214.549316,332.216339 1183.697998,323.984375 
	C1147.638794,314.362762 1111.122681,307.117004 1073.886597,303.989624 
	C1055.238281,302.423340 1036.569580,300.707947 1017.877441,300.145477 
	C991.305237,299.345825 964.720825,300.021545 938.250977,302.987000 
	C922.962219,304.699799 907.488159,305.442993 892.424072,308.327515 
	C865.441040,313.494324 838.534546,319.277222 811.905151,326.022766 
	C772.499878,336.004700 734.812805,350.933350 698.152649,368.433594 
	C661.163757,386.090790 626.127808,407.067749 592.739807,430.815674 
	C566.885803,449.204926 542.577576,469.510834 519.476257,491.206024 
	C507.842957,502.131226 496.802124,513.739502 486.083801,525.573608 
	C472.952515,540.071838 459.859772,554.675110 447.792725,570.050964 
	C429.033386,593.954163 412.165497,619.200378 396.658417,645.389832 
	C379.333008,674.650024 364.333649,705.029541 351.431061,736.425049 
	C337.333832,770.727478 326.285858,806.057739 317.992310,842.218079 
	C311.511902,870.473083 306.342987,898.961914 303.991974,927.888184 
	C302.489349,946.375977 300.706207,964.872253 300.145569,983.397888 
	C299.331268,1010.303772 300.042938,1037.221069 302.997528,1064.023560 
	C304.683197,1079.315674 305.480164,1094.783691 308.369446,1109.848022 
	C313.544495,1136.829712 319.325012,1163.736694 326.075958,1190.364868 
	C335.859253,1228.953613 350.420929,1265.903320 367.459351,1301.849487 
	C385.155548,1339.183105 406.210663,1374.561523 430.111664,1408.260742 
	C448.565186,1434.279297 468.664124,1459.014404 490.766754,1481.937866 
	C508.054413,1499.867554 526.319214,1516.953003 545.121765,1533.295288 
	C561.985657,1547.952881 579.656799,1561.816162 597.885254,1574.741699 
	C638.545044,1603.573364 681.981995,1627.603394 727.950012,1646.999756 
	C757.377991,1659.416870 787.497803,1669.795288 818.350525,1678.024414 
	C854.411499,1687.642700 890.926147,1694.890137 928.162903,1698.013428 
	C946.811340,1699.577637 965.480652,1701.240723 984.172913,1701.829468 
	C999.939026,1702.325928 1015.757446,1701.493286 1031.542603,1700.953979 
	C1044.302124,1700.517944 1057.124512,1700.304810 1069.779907,1698.812256 
	C1090.794800,1696.333984 1111.830688,1693.616821 1132.619507,1689.726929 
	C1170.181519,1682.698242 1206.919922,1672.478638 1242.825684,1659.236572 
	C1286.010986,1643.309937 1327.140137,1623.312622 1366.476318,1599.401489 
	C1407.912476,1574.213745 1446.037598,1544.749023 1481.495605,1511.815674 
	C1493.430054,1500.731079 1504.752930,1488.906250 1515.578003,1476.729004 
	C1530.661133,1459.761841 1545.588745,1442.594116 1559.551880,1424.707520 
	C1583.820068,1393.620728 1604.666748,1360.232666 1622.849365,1325.233765 
	C1636.808960,1298.363770 1649.110840,1270.753906 1659.477905,1242.264893 
	C1670.908447,1210.852783 1680.567261,1178.917725 1686.846924,1146.115112 
	C1691.445068,1122.095337 1694.889648,1097.822388 1697.925781,1073.546875 
	C1700.080688,1056.316406 1701.265747,1038.913452 1701.873047,1021.552124 
	C1702.907837,991.971191 1701.415771,962.417603 1698.938477,932.930481 
	C1698.302368,925.359375 1697.039429,917.840820 1696.014282,909.401978 
z"/>
<path fill="#050440" opacity="1.000000" stroke="none" 
	d="
M1696.039429,909.850098 
	C1697.039429,917.840820 1698.302368,925.359375 1698.938477,932.930481 
	C1701.415771,962.417603 1702.907837,991.971191 1701.873047,1021.552124 
	C1701.265747,1038.913452 1700.080688,1056.316406 1697.925781,1073.546875 
	C1694.889648,1097.822388 1691.445068,1122.095337 1686.846924,1146.115112 
	C1680.567261,1178.917725 1670.908447,1210.852783 1659.477905,1242.264893 
	C1649.110840,1270.753906 1636.808960,1298.363770 1622.849365,1325.233765 
	C1604.666748,1360.232666 1583.820068,1393.620728 1559.551880,1424.707520 
	C1545.588745,1442.594116 1530.661133,1459.761841 1515.578003,1476.729004 
	C1504.752930,1488.906250 1493.430054,1500.731079 1481.495605,1511.815674 
	C1446.037598,1544.749023 1407.912476,1574.213745 1366.476318,1599.401489 
	C1327.140137,1623.312622 1286.010986,1643.309937 1242.825684,1659.236572 
	C1206.919922,1672.478638 1170.181519,1682.698242 1132.619507,1689.726929 
	C1111.830688,1693.616821 1090.794800,1696.333984 1069.779907,1698.812256 
	C1057.124512,1700.304810 1044.302124,1700.517944 1031.542603,1700.953979 
	C1015.757446,1701.493286 999.939026,1702.325928 984.172913,1701.829468 
	C965.480652,1701.240723 946.811340,1699.577637 928.162903,1698.013428 
	C890.926147,1694.890137 854.411499,1687.642700 818.350525,1678.024414 
	C787.497803,1669.795288 757.377991,1659.416870 727.950012,1646.999756 
	C681.981995,1627.603394 638.545044,1603.573364 597.885254,1574.741699 
	C579.656799,1561.816162 561.985657,1547.952881 545.121765,1533.295288 
	C526.319214,1516.953003 508.054413,1499.867554 490.766754,1481.937866 
	C468.664124,1459.014404 448.565186,1434.279297 430.111664,1408.260742 
	C406.210663,1374.561523 385.155548,1339.183105 367.459351,1301.849487 
	C350.420929,1265.903320 335.859253,1228.953613 326.075958,1190.364868 
	C319.325012,1163.736694 313.544495,1136.829712 308.369446,1109.848022 
	C305.480164,1094.783691 304.683197,1079.315674 302.997528,1064.023560 
	C300.042938,1037.221069 299.331268,1010.303772 300.145569,983.397888 
	C300.706207,964.872253 302.489349,946.375977 303.991974,927.888184 
	C306.342987,898.961914 311.511902,870.473083 317.992310,842.218079 
	C326.285858,806.057739 337.333832,770.727478 351.431061,736.425049 
	C364.333649,705.029541 379.333008,674.650024 396.658417,645.389832 
	C412.165497,619.200378 429.033386,593.954163 447.792725,570.050964 
	C459.859772,554.675110 472.952515,540.071838 486.083801,525.573608 
	C496.802124,513.739502 507.842957,502.131226 519.476257,491.206024 
	C542.577576,469.510834 566.885803,449.204926 592.739807,430.815674 
	C626.127808,407.067749 661.163757,386.090790 698.152649,368.433594 
	C734.812805,350.933350 772.499878,336.004700 811.905151,326.022766 
	C838.534546,319.277222 865.441040,313.494324 892.424072,308.327515 
	C907.488159,305.442993 922.962219,304.699799 938.250977,302.987000 
	C964.720825,300.021545 991.305237,299.345825 1017.877441,300.145477 
	C1036.569580,300.707947 1055.238281,302.423340 1073.886597,303.989624 
	C1111.122681,307.117004 1147.638794,314.362762 1183.697998,323.984375 
	C1214.549316,332.216339 1244.667969,342.600891 1274.096069,355.018494 
	C1320.064453,374.415558 1363.494507,398.458282 1404.158447,427.281311 
	C1422.389160,440.203461 1440.052002,454.078979 1456.914673,468.738647 
	C1475.715454,485.083221 1493.984009,502.164795 1511.267700,520.098022 
	C1533.364990,543.025635 1553.459961,567.762024 1571.913818,593.781250 
	C1595.815674,627.481750 1616.866333,662.862183 1634.561890,700.195374 
	C1651.599609,736.141174 1666.158569,773.092468 1675.934326,811.683655 
	C1682.680176,838.313171 1688.016968,865.303040 1693.776978,892.176025 
	C1694.986450,897.818665 1695.292236,903.654907 1696.039429,909.850098 
M520.820129,1441.679810 
	C523.658508,1444.722656 526.466064,1447.794800 529.339783,1450.803833 
	C581.949646,1505.891235 642.106262,1550.879517 710.355164,1584.731567 
	C809.371582,1633.844360 914.248535,1656.061890 1024.726318,1652.216309 
	C1086.519897,1650.065308 1146.823730,1639.653198 1205.459229,1620.126831 
	C1334.412964,1577.183594 1440.043457,1501.164429 1521.710449,1392.840820 
	C1614.287476,1270.045776 1656.927856,1130.978516 1652.174927,977.321899 
	C1650.263306,915.519653 1639.623291,855.235352 1620.149780,796.582397 
	C1579.429932,673.937500 1508.361816,572.026855 1407.476562,491.652008 
	C1281.824707,391.545685 1137.914917,344.987000 977.359558,349.831055 
	C915.555237,351.695740 855.271790,362.369507 796.617798,381.838013 
	C673.974548,422.545776 572.065857,493.606079 491.685547,594.481201 
	C391.568970,720.124756 345.001221,864.028748 349.829926,1024.582642 
	C351.688721,1086.387329 362.466339,1146.635498 381.798767,1205.334351 
	C410.972626,1293.914917 457.364471,1372.421631 520.820129,1441.679810 
z"/>
<path fill="#FE17AE" opacity="1.000000" stroke="none" 
	d="
M520.574707,1441.426758 
	C457.364471,1372.421631 410.972626,1293.914917 381.798767,1205.334351 
	C362.466339,1146.635498 351.688721,1086.387329 349.829926,1024.582642 
	C345.001221,864.028748 391.568970,720.124756 491.685547,594.481201 
	C572.065857,493.606079 673.974548,422.545776 796.617798,381.838013 
	C855.271790,362.369507 915.555237,351.695740 977.359558,349.831055 
	C1137.914917,344.987000 1281.824707,391.545685 1407.476562,491.652008 
	C1508.361816,572.026855 1579.429932,673.937500 1620.149780,796.582397 
	C1639.623291,855.235352 1650.263306,915.519653 1652.174927,977.321899 
	C1656.927856,1130.978516 1614.287476,1270.045776 1521.710449,1392.840820 
	C1440.043457,1501.164429 1334.412964,1577.183594 1205.459229,1620.126831 
	C1146.823730,1639.653198 1086.519897,1650.065308 1024.726318,1652.216309 
	C914.248535,1656.061890 809.371582,1633.844360 710.355164,1584.731567 
	C642.106262,1550.879517 581.949646,1505.891235 529.339783,1450.803833 
	C526.466064,1447.794800 523.658508,1444.722656 520.574707,1441.426758 
M400.291168,900.912415 
	C399.102997,909.483154 397.827393,918.042786 396.740784,926.626343 
	C389.369995,984.850525 390.725342,1042.934692 400.293518,1100.783203 
	C410.909088,1164.964355 431.221313,1225.991699 461.801636,1283.443726 
	C522.351318,1397.199951 609.690125,1484.249146 724.342834,1543.075684 
	C837.542053,1601.156250 957.667480,1620.866455 1083.764893,1604.155396 
	C1147.800659,1595.668823 1208.959717,1577.308228 1266.785645,1548.638184 
	C1394.328003,1485.402954 1489.372803,1389.624268 1551.213135,1261.337769 
	C1588.605835,1183.767456 1607.454590,1101.564575 1609.770386,1015.577942 
	C1610.713501,980.561890 1608.344604,945.706177 1603.188354,911.028198 
	C1594.015381,849.335938 1575.767822,790.476746 1548.326538,734.498108 
	C1509.264160,654.813599 1455.572632,586.538452 1386.806274,530.469421 
	C1278.861938,442.456543 1154.954468,396.559113 1015.791626,392.264374 
	C970.882935,390.878479 926.313721,394.901489 882.231384,403.851135 
	C755.683411,429.543030 647.764526,489.308014 559.051453,582.849731 
	C474.182312,672.338196 421.513824,778.416565 400.291168,900.912415 
z"/>
<path fill="#060441" opacity="1.000000" stroke="none" 
	d="
M400.388367,900.488403 
	C421.513824,778.416565 474.182312,672.338196 559.051453,582.849731 
	C647.764526,489.308014 755.683411,429.543030 882.231384,403.851135 
	C926.313721,394.901489 970.882935,390.878479 1015.791626,392.264374 
	C1154.954468,396.559113 1278.861938,442.456543 1386.806274,530.469421 
	C1455.572632,586.538452 1509.264160,654.813599 1548.326538,734.498108 
	C1575.767822,790.476746 1594.015381,849.335938 1603.188354,911.028198 
	C1608.344604,945.706177 1610.713501,980.561890 1609.770386,1015.577942 
	C1607.454590,1101.564575 1588.605835,1183.767456 1551.213135,1261.337769 
	C1489.372803,1389.624268 1394.328003,1485.402954 1266.785645,1548.638184 
	C1208.959717,1577.308228 1147.800659,1595.668823 1083.764893,1604.155396 
	C957.667480,1620.866455 837.542053,1601.156250 724.342834,1543.075684 
	C609.690125,1484.249146 522.351318,1397.199951 461.801636,1283.443726 
	C431.221313,1225.991699 410.909088,1164.964355 400.293518,1100.783203 
	C390.725342,1042.934692 389.369995,984.850525 396.740784,926.626343 
	C397.827393,918.042786 399.102997,909.483154 400.388367,900.488403 
M1136.402466,1549.983765 
	C1145.363037,1547.629639 1154.451538,1545.674316 1163.260620,1542.847900 
	C1191.686279,1533.727417 1219.907471,1523.818970 1246.406494,1510.029907 
	C1269.356567,1498.087891 1291.901855,1485.209595 1313.779175,1471.403076 
	C1342.998657,1452.963379 1369.405884,1430.728882 1394.311279,1406.797119 
	C1416.331055,1385.638062 1436.449097,1362.753906 1454.592163,1338.181641 
	C1505.924194,1268.659058 1540.277710,1191.744019 1556.315186,1106.617065 
	C1561.374146,1079.764404 1564.669312,1052.758789 1565.571655,1025.590576 
	C1566.346558,1002.257080 1564.873291,978.831421 1563.921387,955.465759 
	C1563.458984,944.118652 1562.478882,932.728516 1560.746582,921.510193 
	C1556.764771,895.721375 1551.464111,870.234741 1544.254883,845.067444 
	C1535.388916,814.116699 1523.969849,784.232117 1510.035889,755.312317 
	C1494.896851,723.891479 1477.290771,693.851074 1455.910400,666.225647 
	C1443.146729,649.734009 1430.145508,633.350830 1416.173096,617.893311 
	C1404.270020,604.725342 1391.031738,592.728455 1377.994751,580.633240 
	C1368.580078,571.898804 1358.827393,563.466614 1348.695190,555.580872 
	C1327.974243,539.454102 1306.677490,524.050232 1283.354492,511.849091 
	C1261.278809,500.300476 1239.264526,488.474335 1216.459229,478.520508 
	C1186.364624,465.385040 1154.892700,455.965729 1122.782471,448.887329 
	C1090.766724,441.829651 1058.357178,437.172333 1025.616699,436.373505 
	C1001.929138,435.795532 978.144348,436.670990 954.486938,438.198364 
	C935.975159,439.393463 917.488098,441.958832 899.172485,445.010284 
	C853.081909,452.689148 808.861572,466.827606 766.459595,486.314484 
	C736.523560,500.072357 707.700806,516.023193 680.717896,535.042908 
	C668.491455,543.661133 656.421448,552.546753 644.763489,561.912231 
	C635.002563,569.753723 625.570251,578.090576 616.657349,586.882080 
	C601.240112,602.089294 585.786072,617.327148 571.396362,633.486145 
	C560.125061,646.143188 549.702820,659.715637 540.226318,673.773315 
	C526.870789,693.585266 514.085693,713.851440 502.299011,734.628174 
	C493.689270,749.804688 486.417603,765.843262 479.756836,781.995422 
	C472.156799,800.425293 464.798157,819.094360 459.339600,838.231445 
	C452.943024,860.657104 447.659973,883.524536 443.828430,906.522705 
	C440.019531,929.384705 437.635864,952.594543 436.397491,975.746521 
	C434.848907,1004.697266 435.011871,1033.748291 438.984772,1062.606812 
	C441.037720,1077.518921 441.965515,1092.700073 445.425415,1107.279419 
	C451.653870,1133.524780 457.747437,1160.000366 466.793060,1185.346313 
	C520.425537,1335.625366 619.787842,1445.129639 763.642090,1513.994141 
	C815.932251,1539.026123 871.231323,1554.427490 928.725586,1561.821533 
	C941.612610,1563.478760 954.544250,1565.533691 967.491455,1565.830078 
	C998.838928,1566.547974 1030.205200,1566.766113 1061.470581,1563.178467 
	C1086.448486,1560.312134 1111.175537,1556.200562 1136.402466,1549.983765 
z"/>
<path fill="#F9F9FA" opacity="1.000000" stroke="none" 
	d="
M1135.984741,1550.041260 
	C1111.175537,1556.200562 1086.448486,1560.312134 1061.470581,1563.178467 
	C1030.205200,1566.766113 998.838928,1566.547974 967.491455,1565.830078 
	C954.544250,1565.533691 941.612610,1563.478760 928.725586,1561.821533 
	C871.231323,1554.427490 815.932251,1539.026123 763.642090,1513.994141 
	C619.787842,1445.129639 520.425537,1335.625366 466.793060,1185.346313 
	C457.747437,1160.000366 451.653870,1133.524780 445.425415,1107.279419 
	C441.965515,1092.700073 441.037720,1077.518921 438.984772,1062.606812 
	C435.011871,1033.748291 434.848907,1004.697266 436.397491,975.746521 
	C437.635864,952.594543 440.019531,929.384705 443.828430,906.522705 
	C447.659973,883.524536 452.943024,860.657104 459.339600,838.231445 
	C464.798157,819.094360 472.156799,800.425293 479.756836,781.995422 
	C486.417603,765.843262 493.689270,749.804688 502.299011,734.628174 
	C514.085693,713.851440 526.870789,693.585266 540.226318,673.773315 
	C549.702820,659.715637 560.125061,646.143188 571.396362,633.486145 
	C585.786072,617.327148 601.240112,602.089294 616.657349,586.882080 
	C625.570251,578.090576 635.002563,569.753723 644.763489,561.912231 
	C656.421448,552.546753 668.491455,543.661133 680.717896,535.042908 
	C707.700806,516.023193 736.523560,500.072357 766.459595,486.314484 
	C808.861572,466.827606 853.081909,452.689148 899.172485,445.010284 
	C917.488098,441.958832 935.975159,439.393463 954.486938,438.198364 
	C978.144348,436.670990 1001.929138,435.795532 1025.616699,436.373505 
	C1058.357178,437.172333 1090.766724,441.829651 1122.782471,448.887329 
	C1154.892700,455.965729 1186.364624,465.385040 1216.459229,478.520508 
	C1239.264526,488.474335 1261.278809,500.300476 1283.354492,511.849091 
	C1306.677490,524.050232 1327.974243,539.454102 1348.695190,555.580872 
	C1358.827393,563.466614 1368.580078,571.898804 1377.994751,580.633240 
	C1391.031738,592.728455 1404.270020,604.725342 1416.173096,617.893311 
	C1430.145508,633.350830 1443.146729,649.734009 1455.910400,666.225647 
	C1477.290771,693.851074 1494.896851,723.891479 1510.035889,755.312317 
	C1523.969849,784.232117 1535.388916,814.116699 1544.254883,845.067444 
	C1551.464111,870.234741 1556.764771,895.721375 1560.746582,921.510193 
	C1562.478882,932.728516 1563.458984,944.118652 1563.921387,955.465759 
	C1564.873291,978.831421 1566.346558,1002.257080 1565.571655,1025.590576 
	C1564.669312,1052.758789 1561.374146,1079.764404 1556.315186,1106.617065 
	C1540.277710,1191.744019 1505.924194,1268.659058 1454.592163,1338.181641 
	C1436.449097,1362.753906 1416.331055,1385.638062 1394.311279,1406.797119 
	C1369.405884,1430.728882 1342.998657,1452.963379 1313.779175,1471.403076 
	C1291.901855,1485.209595 1269.356567,1498.087891 1246.406494,1510.029907 
	C1219.907471,1523.818970 1191.686279,1533.727417 1163.260620,1542.847900 
	C1154.451538,1545.674316 1145.363037,1547.629639 1135.984741,1550.041260 
M1357.620117,1427.966919 
	C1372.613159,1413.658325 1387.858765,1399.602051 1402.506592,1384.948242 
	C1411.626709,1375.824463 1420.142578,1366.045532 1428.384766,1356.108765 
	C1437.620361,1344.974243 1446.873047,1333.758301 1454.979980,1321.805786 
	C1466.927246,1304.191162 1478.627319,1286.318726 1489.014893,1267.762573 
	C1498.669678,1250.515747 1507.199097,1232.538940 1514.901489,1214.324219 
	C1524.975342,1190.501831 1533.900024,1166.202271 1539.130981,1140.700195 
	C1542.295044,1125.274658 1547.177612,1110.146729 1549.504761,1094.617676 
	C1552.852539,1072.278320 1555.514038,1049.745239 1556.709839,1027.201538 
	C1557.743774,1007.713135 1556.612549,988.083923 1555.891235,968.537170 
	C1555.395020,955.087524 1555.026855,941.487000 1552.723145,928.281555 
	C1548.298340,902.918701 1543.473877,877.550903 1537.131714,852.613342 
	C1525.287231,806.040161 1505.868774,762.417236 1481.825928,720.910828 
	C1460.779663,684.577881 1435.555054,651.237793 1406.841309,620.618958 
	C1397.084717,610.215088 1386.642822,600.422119 1376.128418,590.770081 
	C1365.941040,581.418152 1355.608765,572.156860 1344.718506,563.651794 
	C1323.067871,546.742981 1300.827515,530.558716 1276.361084,517.889832 
	C1254.609863,506.627014 1232.923584,495.047058 1210.402710,485.509857 
	C1180.125610,472.688080 1148.596313,463.407227 1116.319580,456.601471 
	C1091.770264,451.425049 1067.020264,448.068085 1042.087036,446.005707 
	C1030.068115,445.011566 1017.944214,445.237183 1005.865845,445.023682 
	C978.712402,444.543671 951.723816,445.736572 924.745056,449.676392 
	C895.351318,453.968872 866.336243,459.673889 838.205627,469.060883 
	C816.342834,476.356354 794.697266,484.459229 773.428589,493.337311 
	C749.488220,503.330597 726.684509,515.791687 704.816406,529.760254 
	C668.415710,553.011658 634.430359,579.367554 604.553894,610.709106 
	C592.880249,622.955139 581.187927,635.253845 570.456726,648.311401 
	C553.878662,668.483337 538.772705,689.765198 525.181946,712.127502 
	C505.798401,744.021301 489.681000,777.449219 477.037079,812.534607 
	C463.295807,850.665222 453.427917,889.784302 448.999969,930.114380 
	C446.785553,950.283813 445.271118,970.550232 444.161743,990.812378 
	C443.582977,1001.383240 444.234955,1012.061523 444.924133,1022.652649 
	C446.006470,1039.285645 447.213196,1055.927734 449.049103,1072.490479 
	C451.887360,1098.095825 457.213165,1123.248901 464.034027,1148.096802 
	C476.944702,1195.129272 495.677094,1239.745483 520.366638,1281.751831 
	C553.131287,1337.497070 594.385315,1386.171875 643.969543,1427.754395 
	C692.084351,1468.104614 745.504150,1499.423462 804.158875,1521.745850 
	C832.848877,1532.664551 862.207275,1541.472412 892.457092,1546.942505 
	C907.522827,1549.667114 922.655823,1552.210449 937.861267,1553.920898 
	C954.748779,1555.820679 971.735352,1557.080688 988.713684,1557.844971 
	C999.637573,1558.336914 1010.653442,1557.842651 1021.576416,1557.064941 
	C1041.168091,1555.670044 1060.880371,1554.755493 1080.248291,1551.747681 
	C1102.864746,1548.235229 1125.366211,1543.483154 1147.556763,1537.847656 
	C1179.305908,1529.784424 1209.965210,1518.213135 1239.326416,1503.720459 
	C1258.927612,1494.045410 1277.679688,1482.649902 1297.260742,1471.871460 
	C1297.552856,1471.732666 1297.792114,1471.531128 1298.648193,1470.973877 
	C1305.036011,1466.657349 1311.423950,1462.340820 1318.260742,1457.871460 
	C1318.552856,1457.732666 1318.792114,1457.531128 1319.619263,1457.001709 
	C1321.350952,1455.675171 1323.082520,1454.348633 1325.257690,1452.876953 
	C1325.547241,1452.744629 1325.786377,1452.550293 1326.642212,1452.016479 
	C1336.401489,1444.335205 1346.160645,1436.653809 1356.336060,1428.827881 
	C1356.604614,1428.691040 1356.819946,1428.495483 1357.620117,1427.966919 
z"/>
<path fill="#060541" opacity="1.000000" stroke="none" 
	d="
M1324.814087,1453.022095 
	C1323.082520,1454.348633 1321.350952,1455.675171 1319.029053,1457.060425 
	C1318.229736,1457.420898 1318.020874,1457.722656 1317.811890,1458.024414 
	C1311.423950,1462.340820 1305.036011,1466.657349 1298.043457,1471.046509 
	C1297.229736,1471.420898 1297.020874,1471.722656 1296.811890,1472.024414 
	C1277.679688,1482.649902 1258.927612,1494.045410 1239.326416,1503.720459 
	C1209.965210,1518.213135 1179.305908,1529.784424 1147.556763,1537.847656 
	C1125.366211,1543.483154 1102.864746,1548.235229 1080.248291,1551.747681 
	C1060.880371,1554.755493 1041.168091,1555.670044 1021.576416,1557.064941 
	C1010.653442,1557.842651 999.637573,1558.336914 988.713684,1557.844971 
	C971.735352,1557.080688 954.748779,1555.820679 937.861267,1553.920898 
	C922.655823,1552.210449 907.522827,1549.667114 892.457092,1546.942505 
	C862.207275,1541.472412 832.848877,1532.664551 804.158875,1521.745850 
	C745.504150,1499.423462 692.084351,1468.104614 643.969543,1427.754395 
	C594.385315,1386.171875 553.131287,1337.497070 520.366638,1281.751831 
	C495.677094,1239.745483 476.944702,1195.129272 464.034027,1148.096802 
	C457.213165,1123.248901 451.887360,1098.095825 449.049103,1072.490479 
	C447.213196,1055.927734 446.006470,1039.285645 444.924133,1022.652649 
	C444.234955,1012.061523 443.582977,1001.383240 444.161743,990.812378 
	C445.271118,970.550232 446.785553,950.283813 448.999969,930.114380 
	C453.427917,889.784302 463.295807,850.665222 477.037079,812.534607 
	C489.681000,777.449219 505.798401,744.021301 525.181946,712.127502 
	C538.772705,689.765198 553.878662,668.483337 570.456726,648.311401 
	C581.187927,635.253845 592.880249,622.955139 604.553894,610.709106 
	C634.430359,579.367554 668.415710,553.011658 704.816406,529.760254 
	C726.684509,515.791687 749.488220,503.330597 773.428589,493.337311 
	C794.697266,484.459229 816.342834,476.356354 838.205627,469.060883 
	C866.336243,459.673889 895.351318,453.968872 924.745056,449.676392 
	C951.723816,445.736572 978.712402,444.543671 1005.865845,445.023682 
	C1017.944214,445.237183 1030.068115,445.011566 1042.087036,446.005707 
	C1067.020264,448.068085 1091.770264,451.425049 1116.319580,456.601471 
	C1148.596313,463.407227 1180.125610,472.688080 1210.402710,485.509857 
	C1232.923584,495.047058 1254.609863,506.627014 1276.361084,517.889832 
	C1300.827515,530.558716 1323.067871,546.742981 1344.718506,563.651794 
	C1355.608765,572.156860 1365.941040,581.418152 1376.128418,590.770081 
	C1386.642822,600.422119 1397.084717,610.215088 1406.841309,620.618958 
	C1435.555054,651.237793 1460.779663,684.577881 1481.825928,720.910828 
	C1505.868774,762.417236 1525.287231,806.040161 1537.131714,852.613342 
	C1543.473877,877.550903 1548.298340,902.918701 1552.723145,928.281555 
	C1555.026855,941.487000 1555.395020,955.087524 1555.891235,968.537170 
	C1556.612549,988.083923 1557.743774,1007.713135 1556.709839,1027.201538 
	C1555.514038,1049.745239 1552.852539,1072.278320 1549.504761,1094.617676 
	C1547.177612,1110.146729 1542.295044,1125.274658 1539.130981,1140.700195 
	C1533.900024,1166.202271 1524.975342,1190.501831 1514.901489,1214.324219 
	C1507.199097,1232.538940 1498.669678,1250.515747 1489.014893,1267.762573 
	C1478.627319,1286.318726 1466.927246,1304.191162 1454.979980,1321.805786 
	C1446.873047,1333.758301 1437.620361,1344.974243 1428.384766,1356.108765 
	C1420.142578,1366.045532 1411.626709,1375.824463 1402.506592,1384.948242 
	C1387.858765,1399.602051 1372.613159,1413.658325 1357.043579,1428.032227 
	C1356.284668,1428.389160 1356.102295,1428.680908 1355.919922,1428.972656 
	C1346.160645,1436.653809 1336.401489,1444.335205 1326.042603,1452.067627 
	C1325.233398,1452.420044 1325.023804,1452.721069 1324.814087,1453.022095 
M1301.901733,1358.225220 
	C1291.579590,1353.249146 1281.289307,1348.204834 1270.901245,1343.370483 
	C1269.330566,1342.639526 1266.713745,1342.046997 1265.594360,1342.833374 
	C1261.439819,1345.751709 1257.708984,1349.273193 1253.361328,1352.955688 
	C1255.244385,1353.839600 1256.546753,1354.475098 1257.868530,1355.067505 
	C1272.717529,1361.724976 1287.663940,1368.176758 1302.359131,1375.157715 
	C1306.381470,1377.068726 1310.097412,1380.142822 1313.175171,1383.415527 
	C1319.369385,1390.001831 1325.028320,1397.091797 1330.988281,1404.068115 
	C1335.578857,1400.086060 1339.671631,1396.535645 1343.859253,1392.903076 
	C1341.973999,1390.701660 1340.448608,1388.944824 1338.949463,1387.166016 
	C1329.701050,1376.192139 1318.714844,1366.242432 1317.387329,1350.593140 
	C1317.331665,1349.937500 1317.120850,1349.291870 1316.951782,1348.649536 
	C1313.459595,1335.388916 1309.963135,1322.129395 1306.280396,1308.160522 
	C1302.176147,1311.594849 1298.439453,1314.351562 1295.217407,1317.616211 
	C1294.069824,1318.778931 1293.401733,1321.378418 1293.825195,1322.974121 
	C1296.893677,1334.534546 1300.297485,1346.005981 1303.071899,1357.953491 
	C1302.908569,1358.114990 1302.745239,1358.276367 1301.901733,1358.225220 
M1145.350220,1472.839966 
	C1131.266479,1456.623901 1117.206543,1440.386963 1103.049438,1424.235229 
	C1102.012939,1423.052734 1100.075317,1421.546997 1098.890991,1421.794067 
	C1092.794922,1423.065918 1086.807983,1424.861450 1080.445068,1426.564697 
	C1088.225342,1455.461548 1095.851318,1483.785034 1103.570190,1512.453613 
	C1108.979492,1511.017456 1113.911865,1509.708008 1119.290405,1508.280029 
	C1113.988892,1488.439819 1108.769287,1468.906372 1103.549683,1449.372925 
	C1105.815063,1450.464844 1107.145264,1451.909058 1108.438354,1453.385864 
	C1121.156494,1467.910522 1133.844482,1482.461792 1146.625122,1496.931274 
	C1147.724609,1498.176025 1149.650269,1499.926147 1150.810913,1499.675537 
	C1157.049805,1498.328369 1163.167725,1496.421997 1169.543335,1494.648804 
	C1161.757324,1465.729614 1154.128906,1437.395996 1146.415771,1408.747681 
	C1140.900757,1410.284302 1135.869263,1411.686157 1130.697144,1413.127197 
	C1135.743042,1431.833496 1140.652466,1449.945923 1145.479004,1468.080322 
	C1145.905396,1469.682251 1145.791260,1471.427979 1145.968994,1473.041992 
	C1145.968994,1473.041992 1146.016479,1472.981934 1145.350220,1472.839966 
M838.834412,571.378967 
	C823.111877,557.518066 807.410522,543.632935 791.624146,529.845154 
	C790.437561,528.808716 788.323975,527.555664 787.186768,527.955383 
	C781.289978,530.027710 775.570435,532.604492 769.521301,535.116760 
	C781.033203,562.757263 792.347046,589.922363 803.752747,617.307922 
	C808.977905,615.117981 813.666077,613.153076 818.776001,611.011414 
	C810.939880,592.113281 803.242371,573.549377 795.544861,554.985474 
	C797.520630,555.343323 798.658569,556.212952 799.733826,557.154114 
	C814.751038,570.297729 829.741638,583.471924 844.807678,596.559265 
	C845.899780,597.507874 847.833679,598.692322 848.852112,598.322815 
	C854.870850,596.139221 860.734436,593.528259 866.835144,590.984009 
	C855.294250,563.280396 843.977661,536.115173 832.601807,508.807800 
	C827.346130,511.027924 822.645996,513.013367 817.658569,515.120239 
	C825.348389,533.840088 832.895325,552.212036 839.902039,571.163330 
	C839.730591,571.364197 839.559204,571.565002 838.834412,571.378967 
M855.908081,1443.731445 
	C856.089233,1443.961060 856.270447,1444.190796 856.291626,1445.137451 
	C849.886902,1461.977661 843.482178,1478.817749 837.000488,1495.860474 
	C842.026062,1497.768066 846.623230,1499.513062 851.484253,1501.358154 
	C862.188538,1473.418823 872.724976,1445.917480 883.351257,1418.181763 
	C876.039673,1415.399902 869.269104,1412.823853 862.476624,1410.239502 
	C850.357178,1426.426636 838.500061,1442.263428 826.642944,1458.100342 
	C826.347107,1457.929810 826.051331,1457.759399 825.755554,1457.588867 
	C827.537720,1437.881836 829.319885,1418.174683 831.126587,1398.196167 
	C824.192871,1395.535645 817.432800,1392.941650 810.285828,1390.199341 
	C799.610046,1418.061279 789.063354,1445.586182 778.403076,1473.407715 
	C783.510132,1475.337036 788.076843,1477.062378 792.906738,1478.887085 
	C799.801086,1460.964966 806.546753,1443.429321 813.292419,1425.893677 
	C813.667786,1425.981323 814.043091,1426.068848 814.418457,1426.156372 
	C813.462830,1442.627319 812.507263,1459.098389 811.553833,1475.532227 
	C816.445129,1477.373535 820.917236,1479.057129 825.447266,1480.762329 
	C835.562317,1468.017944 845.487976,1455.512085 855.908081,1443.731445 
M1340.206421,1197.754761 
	C1390.039917,1110.559326 1405.074829,1017.506042 1384.526123,919.421326 
	C1365.669678,829.413147 1319.871338,754.745544 1248.322388,697.049988 
	C1156.466064,622.978882 1051.235107,595.676453 934.914734,614.531921 
	C852.297913,627.924011 780.878174,665.147583 722.651245,725.278870 
	C630.094543,820.862610 593.872620,935.518738 614.567566,1066.777832 
	C628.571899,1155.601440 670.283203,1231.000366 737.372681,1290.823120 
	C836.511475,1379.223877 952.697021,1411.099365 1082.605103,1384.240112 
	C1195.221680,1360.955933 1280.396362,1296.738281 1340.206421,1197.754761 
M934.942017,1481.366699 
	C934.176453,1482.829956 933.410950,1484.293091 932.257568,1486.497559 
	C929.397888,1465.734253 926.679749,1445.999146 923.939941,1426.106201 
	C916.490601,1425.048950 909.310303,1424.029907 901.865173,1422.973267 
	C897.736023,1452.442993 893.659790,1481.535278 889.512207,1511.136719 
	C894.799683,1511.888428 899.641541,1512.576660 904.807861,1513.311035 
	C907.582336,1493.762329 910.292847,1474.663940 913.003418,1455.565674 
	C913.258667,1455.585571 913.513916,1455.605469 913.769165,1455.625244 
	C916.571594,1472.301636 919.373962,1488.978027 922.189880,1505.734985 
	C927.227173,1506.461914 931.963989,1507.145508 936.997192,1507.871948 
	C944.124756,1492.741333 951.207825,1477.704956 958.290955,1462.668701 
	C958.694275,1462.798828 959.097656,1462.928955 959.500977,1463.058960 
	C956.899292,1481.883301 954.297607,1500.707642 951.652100,1519.849243 
	C956.986084,1520.613770 961.830322,1521.308105 966.949036,1522.041748 
	C971.088318,1492.530273 975.167908,1463.443848 979.314575,1433.879272 
	C971.721252,1432.802734 964.547119,1431.785645 957.231201,1430.748413 
	C949.796143,1447.573608 942.489319,1464.108643 934.942017,1481.366699 
M761.298523,643.816101 
	C775.978577,631.130798 779.031250,617.292542 769.877625,602.422241 
	C764.566589,593.794250 758.850769,585.372192 752.757202,577.279114 
	C743.237122,564.635071 729.596802,561.006653 715.607544,568.413269 
	C704.257690,574.422424 693.815002,582.144836 682.798218,589.217712 
	C699.867798,614.278931 716.497620,638.694458 733.209473,663.230408 
	C742.653992,656.694702 751.677551,650.450256 761.298523,643.816101 
M604.513184,699.861023 
	C588.580566,694.895935 574.338440,701.014343 566.059021,716.380798 
	C558.326599,730.732056 561.148376,746.293640 574.070190,756.066956 
	C582.931274,762.768982 592.231079,769.008301 601.847778,774.566833 
	C616.812927,783.216858 633.230103,778.777710 643.318115,764.140747 
	C653.350159,749.584961 652.146118,732.170166 639.022278,722.038696 
	C628.428467,713.860474 616.579285,707.308411 604.513184,699.861023 
M721.005615,1377.489502 
	C717.329834,1383.225464 713.159241,1388.713623 710.126160,1394.771362 
	C707.428345,1400.159790 704.754883,1406.071045 704.240906,1411.941528 
	C702.964478,1426.519287 712.830200,1439.141602 728.077026,1444.253418 
	C741.718384,1448.826782 754.975708,1444.263916 763.746765,1431.525146 
	C769.302551,1423.455933 774.519287,1415.140015 779.593567,1406.756714 
	C784.172302,1399.192017 785.731628,1390.869263 783.190002,1382.309692 
	C779.133423,1368.647705 769.004456,1361.156250 755.706787,1358.372559 
	C743.078064,1355.729126 732.959290,1360.962646 725.304504,1371.105591 
	C723.906250,1372.958374 722.696899,1374.953735 721.005615,1377.489502 
M1335.971436,705.735657 
	C1339.168945,703.998352 1342.909912,702.835876 1345.465698,700.419739 
	C1354.398193,691.975403 1363.609863,683.669678 1371.434326,674.247437 
	C1382.390503,661.054138 1379.961060,643.378845 1366.773560,631.378357 
	C1353.568115,619.361572 1336.448242,619.015747 1323.618652,630.901306 
	C1316.302124,637.679443 1309.262939,644.790283 1302.487183,652.110657 
	C1292.103271,663.329102 1290.434326,677.366394 1297.596802,689.224365 
	C1306.210449,703.484924 1320.219360,709.717896 1335.971436,705.735657 
M1469.682251,818.802429 
	C1476.107056,820.055908 1482.531982,821.309387 1489.816040,822.730469 
	C1488.350464,819.430786 1486.881836,817.126648 1486.291748,814.615967 
	C1484.137085,805.450195 1478.517456,801.119324 1469.141235,801.173340 
	C1466.347534,801.189392 1463.543213,800.430359 1460.753784,799.966492 
	C1450.928345,798.332642 1441.107056,796.672668 1429.917847,794.793091 
	C1443.959595,788.501404 1456.608154,782.833984 1469.538696,777.040161 
	C1467.074707,771.586914 1464.852173,766.668030 1462.524536,761.516602 
	C1435.206665,773.693726 1408.307739,785.684082 1381.177734,797.777405 
	C1383.683838,803.336548 1385.909058,808.272461 1388.505249,814.031555 
	C1400.542603,804.624573 1413.077393,804.819641 1426.337158,810.438293 
	C1418.765259,820.832153 1411.306763,831.020447 1403.930054,841.267578 
	C1403.127075,842.382996 1402.002319,844.156067 1402.374390,845.083008 
	C1404.667480,850.794189 1407.347412,856.350037 1410.127441,862.460327 
	C1421.536011,846.747925 1432.433472,831.837891 1443.188354,816.825806 
	C1444.867554,814.481750 1446.442749,813.674438 1449.356445,814.400208 
	C1455.805298,816.006348 1462.356445,817.201660 1469.682251,818.802429 
M1164.941772,569.342346 
	C1160.717529,578.667114 1156.493408,587.991943 1152.164307,597.548340 
	C1170.560059,605.845703 1188.501953,613.938354 1206.680176,622.137573 
	C1208.964355,617.053955 1211.109619,612.279785 1213.407349,607.166016 
	C1200.261963,601.197327 1187.506714,595.405762 1174.526001,589.511841 
	C1177.311890,583.371216 1179.893188,577.681213 1182.569336,571.782288 
	C1193.606445,576.735718 1204.317749,581.542786 1215.344727,586.491638 
	C1217.660889,581.403931 1219.833130,576.632324 1222.129517,571.588135 
	C1211.111694,566.570496 1200.322144,561.656799 1189.347046,556.658569 
	C1192.211792,550.344177 1194.857056,544.513855 1197.630005,538.401917 
	C1210.854858,544.330139 1223.639648,550.061035 1236.589355,555.865906 
	C1238.964966,550.570862 1241.102173,545.807190 1243.316040,540.872742 
	C1224.847412,532.560730 1206.924927,524.494446 1189.303955,516.563965 
	C1188.597046,517.168152 1188.414185,517.250793 1188.351807,517.388123 
	C1180.611938,534.460815 1172.881104,551.537476 1164.941772,569.342346 
M694.950867,700.454956 
	C710.120911,683.878784 709.837891,668.653320 694.001831,652.851379 
	C685.869446,644.736511 677.559021,636.797546 669.523315,628.588989 
	C664.554810,623.513672 659.951477,618.080872 655.529602,613.190491 
	C650.296448,618.098694 646.346191,621.803589 643.527588,624.447205 
	C655.938538,637.544617 668.255493,650.391418 680.364136,663.431641 
	C683.246094,666.535339 686.253601,669.966675 687.747437,673.812683 
	C690.080078,679.818115 686.328674,686.806946 679.738586,690.987000 
	C674.320862,694.423401 668.221313,694.261963 663.171021,689.626038 
	C655.081726,682.200378 647.387878,674.343811 639.528687,666.667542 
	C633.160522,660.447510 626.795044,654.224731 621.380310,648.933411 
	C616.828552,652.807739 612.689331,656.330933 608.452881,659.936829 
	C609.649475,661.190857 610.421509,662.047607 611.243042,662.853882 
	C624.073364,675.445557 636.656433,688.303406 649.812012,700.545837 
	C664.989319,714.669556 678.797668,714.534668 694.950867,700.454956 
M1042.724731,1502.648926 
	C1029.562744,1507.944580 1018.367920,1501.983398 1018.716431,1487.641357 
	C1018.816833,1483.507324 1018.154907,1479.355713 1017.859253,1475.210938 
	C1016.857727,1461.170410 1015.863770,1447.129272 1014.838013,1432.681396 
	C1009.052246,1433.077637 1003.654907,1433.447144 998.192444,1433.821167 
	C998.192444,1436.048828 998.082275,1437.868896 998.209595,1439.672241 
	C999.439026,1457.083252 1000.738220,1474.489258 1001.957825,1491.900879 
	C1003.206543,1509.729492 1013.565674,1520.159058 1031.413940,1521.458618 
	C1052.340942,1522.982422 1067.301392,1510.443726 1066.811890,1490.261108 
	C1066.321777,1470.041870 1064.287598,1449.859985 1062.910767,1429.375000 
	C1057.127075,1429.759155 1051.734741,1430.117310 1045.906372,1430.504395 
	C1046.080933,1433.206665 1046.218750,1435.491821 1046.377563,1437.775391 
	C1047.531250,1454.359253 1048.690063,1470.942871 1049.845581,1487.526489 
	C1050.265381,1493.552124 1048.754883,1498.726318 1042.724731,1502.648926 
M1508.002563,897.233154 
	C1508.911255,886.830811 1507.002441,876.982300 1501.747437,867.945007 
	C1495.231567,856.739075 1484.381470,852.686462 1471.267456,856.266968 
	C1459.156860,859.573486 1453.859131,866.977112 1453.831543,880.694153 
	C1453.826294,883.357910 1453.927246,886.022156 1453.995850,888.685730 
	C1454.107300,893.006226 1454.463867,897.336060 1454.284912,901.643982 
	C1454.118652,905.644653 1452.009888,908.506897 1447.950562,909.643372 
	C1444.078613,910.727356 1440.833130,909.366333 1438.707275,906.342712 
	C1436.738892,903.543091 1435.069458,900.333923 1434.115356,897.058350 
	C1431.328003,887.489746 1432.035034,877.987854 1436.122192,868.451660 
	C1430.848511,866.982239 1425.825195,865.582520 1420.510376,864.101624 
	C1413.568726,881.357300 1414.743286,897.768799 1423.314453,913.481323 
	C1429.732178,925.246399 1440.546265,929.273376 1453.450073,925.751831 
	C1465.418457,922.485474 1470.947632,914.613281 1471.002319,900.704834 
	C1471.027832,894.210083 1470.719238,887.699463 1471.076660,881.224487 
	C1471.443237,874.585022 1476.751709,870.058472 1481.959717,872.253540 
	C1484.825684,873.461487 1487.495605,876.516235 1488.967285,879.395874 
	C1493.657471,888.572937 1492.452637,898.074463 1488.920166,907.916504 
	C1494.169922,909.135132 1499.262085,910.317200 1505.007324,911.650879 
	C1506.054199,906.827698 1506.995239,902.492554 1508.002563,897.233154 
M946.543518,555.928406 
	C933.935974,535.413025 921.132568,515.013733 908.861694,494.299011 
	C905.878418,489.262817 902.541016,491.966614 899.108276,492.035400 
	C895.672241,492.104340 895.395325,494.449219 894.926331,497.068970 
	C891.091187,518.489807 887.132202,539.888489 883.253479,561.301514 
	C881.760132,569.545471 880.377258,577.809387 878.863708,586.527405 
	C885.309814,585.308105 890.986572,584.234314 896.671692,583.158936 
	C897.542786,577.982788 898.362244,573.113708 899.168335,568.324219 
	C902.796753,567.586914 906.034668,566.895752 909.286499,566.277466 
	C912.552063,565.656555 915.844666,565.174316 919.102295,564.516357 
	C930.410278,562.232300 930.345947,562.250977 936.509827,572.127991 
	C937.303955,573.400452 939.223145,574.960999 940.429688,574.814270 
	C945.629822,574.181946 950.758667,572.963074 956.293701,571.883606 
	C952.976685,566.441650 949.958923,561.490723 946.543518,555.928406 
M686.273621,1378.220581 
	C683.592651,1375.798950 680.911621,1373.377319 678.409363,1371.117188 
	C676.056702,1372.215942 674.173035,1373.297241 672.157288,1373.999634 
	C665.993347,1376.147461 660.822449,1374.568115 656.598083,1369.429565 
	C652.495361,1364.439209 651.419434,1358.909546 655.588135,1353.872314 
	C663.087158,1344.810913 671.268982,1336.262939 679.694153,1328.042236 
	C683.550903,1324.279175 688.837952,1324.410767 693.628296,1327.218140 
	C698.586060,1330.123657 701.687805,1334.332886 701.023438,1340.291260 
	C700.665710,1343.499878 699.412720,1346.608521 698.470825,1350.107056 
	C702.331055,1353.668335 706.446106,1357.464722 711.465393,1362.095337 
	C713.708252,1356.577148 716.192810,1351.881836 717.538452,1346.880005 
	C721.138977,1333.496582 715.632568,1321.107422 702.908325,1312.697998 
	C691.485413,1305.148560 678.721436,1304.953979 668.379211,1314.295532 
	C658.307739,1323.392578 648.748779,1333.396362 640.660095,1344.263672 
	C630.417297,1358.025269 634.461487,1374.564087 649.054016,1385.827271 
	C661.408142,1395.362793 680.256104,1393.861450 690.788635,1382.445923 
	C689.456665,1381.194824 688.123840,1379.942993 686.273621,1378.220581 
M518.539124,902.187744 
	C513.923706,899.801819 511.031342,896.255554 510.845917,890.853333 
	C510.562714,882.603149 515.013977,877.460022 523.615845,875.664612 
	C525.427246,875.286499 528.062927,874.212646 528.523315,872.851929 
	C530.094971,868.206665 530.865723,863.290344 532.013306,858.158997 
	C529.095581,858.158997 526.607422,857.973511 524.154358,858.188599 
	C505.683624,859.808105 495.158630,870.826782 493.593170,890.072815 
	C492.361237,905.218140 501.717377,916.780457 518.859497,920.996460 
	C528.377197,923.337341 537.903320,925.744385 547.543152,927.461914 
	C558.660522,929.442810 568.850220,927.289246 576.350830,917.984009 
	C591.614014,899.048096 583.782410,872.926819 560.352112,865.083801 
	C559.287964,869.423523 558.294067,873.762085 557.144043,878.058777 
	C556.465149,880.595093 556.902344,882.175171 559.388184,883.728699 
	C566.519775,888.186035 568.592590,894.086426 566.043579,901.113831 
	C563.508179,908.103638 558.066101,911.490051 549.700562,909.886719 
	C539.443787,907.920959 529.360046,905.052246 518.539124,902.187744 
M1267.675903,566.141174 
	C1252.770020,587.937500 1237.864258,609.733765 1222.762085,631.817261 
	C1227.477417,635.056396 1231.960571,638.136108 1236.823242,641.476440 
	C1243.513916,631.733765 1250.051880,622.213257 1256.745239,612.466492 
	C1266.564819,619.150696 1275.980103,625.559631 1285.526123,632.057678 
	C1288.725586,627.368652 1291.690063,623.023926 1294.777466,618.499268 
	C1284.966309,611.758301 1275.534546,605.278015 1266.049194,598.760864 
	C1270.097412,592.890259 1273.931885,587.329773 1277.896851,581.579895 
	C1289.499756,589.483521 1300.715820,597.123779 1312.181030,604.933594 
	C1315.394653,600.228821 1318.342041,595.914001 1321.453857,591.358398 
	C1305.173828,580.230530 1289.299805,569.380310 1273.153076,558.343567 
	C1271.282593,560.965271 1269.660767,563.238281 1267.675903,566.141174 
M1110.461792,584.185547 
	C1126.943604,558.107666 1143.425537,532.029724 1160.124634,505.608185 
	C1155.366943,504.411957 1151.178223,503.530823 1147.103882,502.277893 
	C1144.056885,501.340851 1142.432983,502.140839 1140.764038,504.930176 
	C1131.895996,519.751160 1122.788452,534.428833 1113.742676,549.143311 
	C1113.026978,550.307495 1112.151001,551.373108 1110.712280,553.368103 
	C1109.305908,532.396423 1107.974243,512.538818 1106.622681,492.383026 
	C1101.120239,491.068207 1095.716064,489.776886 1089.624146,488.321228 
	C1092.149414,519.916260 1094.621826,550.850037 1097.104492,581.912415 
	C1101.513550,582.869446 1105.701172,583.778442 1110.461792,584.185547 
M1256.868286,1412.614380 
	C1250.678955,1402.255981 1244.489746,1391.897461 1238.187500,1381.349976 
	C1245.236450,1377.119263 1251.904907,1373.117065 1258.907104,1368.914429 
	C1256.006836,1364.070312 1253.313599,1359.572021 1250.454956,1354.797363 
	C1231.656250,1366.028687 1213.060181,1377.138916 1194.288940,1388.353882 
	C1197.283813,1393.337646 1199.917236,1397.720215 1202.742432,1402.421631 
	C1209.774536,1398.261108 1216.565186,1394.243408 1223.499634,1390.140625 
	C1235.991943,1411.060547 1248.247559,1431.584229 1260.724487,1452.478516 
	C1265.745117,1449.465454 1270.501953,1446.610718 1275.392822,1443.675537 
	C1269.129150,1433.231812 1263.147217,1423.257935 1256.868286,1412.614380 
M954.003967,486.629974 
	C954.193726,490.853271 954.383545,495.076538 954.568054,499.183380 
	C963.045471,499.183380 970.772034,499.183380 978.635376,499.183380 
	C979.331848,523.336975 980.019104,547.169678 980.698792,570.741394 
	C986.866333,570.741394 992.258423,570.741394 997.667114,570.741394 
	C997.003174,546.419556 996.351440,522.544739 995.677551,497.858337 
	C1003.993958,497.858337 1011.715759,497.858337 1019.927490,497.858337 
	C1019.654053,491.820709 1019.417969,486.605988 1019.173889,481.215790 
	C997.866455,481.818390 977.103821,482.376038 956.347107,483.102753 
	C955.533203,483.131226 954.775818,484.775452 954.003967,486.629974 
M553.479736,836.930786 
	C567.461121,842.953369 581.442566,848.975952 595.698486,855.116760 
	C603.605286,836.794495 611.406006,818.718201 619.376221,800.248901 
	C614.285889,798.036011 609.473145,795.943787 604.308716,793.698669 
	C598.616333,806.828491 593.034851,819.702393 587.317871,832.888855 
	C564.988831,823.272339 542.965698,813.787659 520.641968,804.173401 
	C518.317261,809.587708 516.141907,814.654297 513.923523,819.821106 
	C527.210449,825.581055 539.988525,831.120361 553.479736,836.930786 
M1368.261719,747.174377 
	C1366.607666,744.691895 1364.953613,742.209473 1363.178833,739.545837 
	C1383.042847,725.792969 1402.716187,712.172180 1422.778931,698.281738 
	C1419.504639,693.520386 1416.364990,688.955078 1413.098389,684.204895 
	C1388.374023,701.314453 1364.200562,718.042786 1339.789917,734.935303 
	C1351.248657,751.486450 1362.469116,767.693604 1373.841553,784.120117 
	C1378.534668,780.855835 1382.857300,777.849121 1387.345459,774.727295 
	C1380.985596,765.514099 1374.852051,756.628784 1368.261719,747.174377 
M1205.166748,1448.250610 
	C1197.280396,1430.024048 1189.394165,1411.797363 1181.359497,1393.227783 
	C1175.683105,1395.727295 1170.471436,1398.022217 1165.158569,1400.361694 
	C1177.098389,1427.874390 1188.784912,1454.803467 1200.603027,1482.035522 
	C1206.116089,1479.615723 1211.368530,1477.310547 1216.781250,1474.934814 
	C1212.885376,1465.942017 1209.200073,1457.435181 1205.166748,1448.250610 
M1044.070312,484.207306 
	C1043.775879,485.494049 1043.340454,486.766510 1043.208496,488.069672 
	C1041.500732,504.934906 1039.818970,521.802795 1038.166870,538.673645 
	C1037.084229,549.729370 1036.060303,560.790833 1034.978394,572.183594 
	C1040.865234,572.791016 1046.441040,573.366333 1052.471680,573.988586 
	C1055.414917,544.327759 1058.326904,514.981323 1061.274170,485.281036 
	C1055.433472,484.775787 1050.170898,484.320557 1044.070312,484.207306 
z"/>
<path fill="#F8F8F9" opacity="1.000000" stroke="none" 
	d="
M1297.036377,1471.947998 
	C1297.020874,1471.722656 1297.229736,1471.420898 1297.708740,1471.193115 
	C1297.792114,1471.531128 1297.552856,1471.732666 1297.036377,1471.947998 
z"/>
<path fill="#F8F8F9" opacity="1.000000" stroke="none" 
	d="
M1318.036377,1457.947998 
	C1318.020874,1457.722656 1318.229736,1457.420898 1318.708740,1457.193115 
	C1318.792114,1457.531128 1318.552856,1457.732666 1318.036377,1457.947998 
z"/>
<path fill="#F8F8F9" opacity="1.000000" stroke="none" 
	d="
M1325.035889,1452.949463 
	C1325.023804,1452.721069 1325.233398,1452.420044 1325.708984,1452.206421 
	C1325.786377,1452.550293 1325.547241,1452.744629 1325.035889,1452.949463 
z"/>
<path fill="#F8F8F9" opacity="1.000000" stroke="none" 
	d="
M1356.128052,1428.900269 
	C1356.102295,1428.680908 1356.284668,1428.389160 1356.724609,1428.169434 
	C1356.819946,1428.495483 1356.604614,1428.691040 1356.128052,1428.900269 
z"/>
<path fill="#F7F7F9" opacity="1.000000" stroke="none" 
	d="
M1340.042969,1198.083252 
	C1280.396362,1296.738281 1195.221680,1360.955933 1082.605103,1384.240112 
	C952.697021,1411.099365 836.511475,1379.223877 737.372681,1290.823120 
	C670.283203,1231.000366 628.571899,1155.601440 614.567566,1066.777832 
	C593.872620,935.518738 630.094543,820.862610 722.651245,725.278870 
	C780.878174,665.147583 852.297913,627.924011 934.914734,614.531921 
	C1051.235107,595.676453 1156.466064,622.978882 1248.322388,697.049988 
	C1319.871338,754.745544 1365.669678,829.413147 1384.526123,919.421326 
	C1405.074829,1017.506042 1390.039917,1110.559326 1340.042969,1198.083252 
M1327.087280,799.459229 
	C1309.957886,771.891602 1289.997803,746.558472 1266.202759,724.467651 
	C1173.006836,637.946716 1063.291260,603.434937 937.658936,623.070740 
	C852.615173,636.362793 780.157898,675.633728 721.848572,738.743530 
	C638.291260,829.180054 604.852844,936.401794 622.066956,1058.382324 
	C633.736877,1141.076538 670.759705,1211.820068 729.233887,1271.243286 
	C760.439941,1302.955688 796.324341,1328.348145 836.593689,1347.364746 
	C910.482056,1382.257568 987.872437,1392.758545 1068.203735,1378.489258 
	C1150.181396,1363.927368 1220.439331,1326.322388 1277.711304,1265.877441 
	C1351.279419,1188.233643 1386.868530,1095.491455 1384.086914,988.423950 
	C1382.324219,920.578308 1362.855835,857.894104 1327.087280,799.459229 
z"/>
<path fill="#FAFAFC" opacity="1.000000" stroke="none" 
	d="
M855.413574,1443.006226 
	C845.487976,1455.512085 835.562317,1468.017944 825.447266,1480.762329 
	C820.917236,1479.057129 816.445129,1477.373535 811.553833,1475.532227 
	C812.507263,1459.098389 813.462830,1442.627319 814.418457,1426.156372 
	C814.043091,1426.068848 813.667786,1425.981323 813.292419,1425.893677 
	C806.546753,1443.429321 799.801086,1460.964966 792.906738,1478.887085 
	C788.076843,1477.062378 783.510132,1475.337036 778.403076,1473.407715 
	C789.063354,1445.586182 799.610046,1418.061279 810.285828,1390.199341 
	C817.432800,1392.941650 824.192871,1395.535645 831.126587,1398.196167 
	C829.319885,1418.174683 827.537720,1437.881836 825.755554,1457.588867 
	C826.051331,1457.759399 826.347107,1457.929810 826.642944,1458.100342 
	C838.500061,1442.263428 850.357178,1426.426636 862.476624,1410.239502 
	C869.269104,1412.823853 876.039673,1415.399902 883.351257,1418.181763 
	C872.724976,1445.917480 862.188538,1473.418823 851.484253,1501.358154 
	C846.623230,1499.513062 842.026062,1497.768066 837.000488,1495.860474 
	C843.482178,1478.817749 849.886902,1461.977661 856.594727,1444.499512 
	C856.837158,1443.168945 856.776550,1442.476074 856.715942,1441.783325 
	C856.281799,1442.190918 855.847656,1442.598511 855.413574,1443.006226 
z"/>
<path fill="#FAFAFB" opacity="1.000000" stroke="none" 
	d="
M935.062256,1481.005127 
	C942.489319,1464.108643 949.796143,1447.573608 957.231201,1430.748413 
	C964.547119,1431.785645 971.721252,1432.802734 979.314575,1433.879272 
	C975.167908,1463.443848 971.088318,1492.530273 966.949036,1522.041748 
	C961.830322,1521.308105 956.986084,1520.613770 951.652100,1519.849243 
	C954.297607,1500.707642 956.899292,1481.883301 959.500977,1463.058960 
	C959.097656,1462.928955 958.694275,1462.798828 958.290955,1462.668701 
	C951.207825,1477.704956 944.124756,1492.741333 936.997192,1507.871948 
	C931.963989,1507.145508 927.227173,1506.461914 922.189880,1505.734985 
	C919.373962,1488.978027 916.571594,1472.301636 913.769165,1455.625244 
	C913.513916,1455.605469 913.258667,1455.585571 913.003418,1455.565674 
	C910.292847,1474.663940 907.582336,1493.762329 904.807861,1513.311035 
	C899.641541,1512.576660 894.799683,1511.888428 889.512207,1511.136719 
	C893.659790,1481.535278 897.736023,1452.442993 901.865173,1422.973267 
	C909.310303,1424.029907 916.490601,1425.048950 923.939941,1426.106201 
	C926.679749,1445.999146 929.397888,1465.734253 932.257568,1486.497559 
	C933.410950,1484.293091 934.176453,1482.829956 935.062256,1481.005127 
M959.183777,1460.806519 
	C959.320984,1461.051392 959.458191,1461.296387 959.595398,1461.541260 
	C959.568054,1461.168701 959.540710,1460.796265 959.183777,1460.806519 
z"/>
<path fill="#FBFBFC" opacity="1.000000" stroke="none" 
	d="
M840.442261,570.583984 
	C832.895325,552.212036 825.348389,533.840088 817.658569,515.120239 
	C822.645996,513.013367 827.346130,511.027924 832.601807,508.807800 
	C843.977661,536.115173 855.294250,563.280396 866.835144,590.984009 
	C860.734436,593.528259 854.870850,596.139221 848.852112,598.322815 
	C847.833679,598.692322 845.899780,597.507874 844.807678,596.559265 
	C829.741638,583.471924 814.751038,570.297729 799.733826,557.154114 
	C798.658569,556.212952 797.520630,555.343323 795.544861,554.985474 
	C803.242371,573.549377 810.939880,592.113281 818.776001,611.011414 
	C813.666077,613.153076 808.977905,615.117981 803.752747,617.307922 
	C792.347046,589.922363 781.033203,562.757263 769.521301,535.116760 
	C775.570435,532.604492 781.289978,530.027710 787.186768,527.955383 
	C788.323975,527.555664 790.437561,528.808716 791.624146,529.845154 
	C807.410522,543.632935 823.111877,557.518066 839.298218,571.811890 
	C840.134155,572.371338 840.506348,572.497803 840.878540,572.624268 
	C840.733093,571.944153 840.587646,571.264099 840.442261,570.583984 
z"/>
<path fill="#FBFBFC" opacity="1.000000" stroke="none" 
	d="
M1145.928223,1473.106934 
	C1145.791260,1471.427979 1145.905396,1469.682251 1145.479004,1468.080322 
	C1140.652466,1449.945923 1135.743042,1431.833496 1130.697144,1413.127197 
	C1135.869263,1411.686157 1140.900757,1410.284302 1146.415771,1408.747681 
	C1154.128906,1437.395996 1161.757324,1465.729614 1169.543335,1494.648804 
	C1163.167725,1496.421997 1157.049805,1498.328369 1150.810913,1499.675537 
	C1149.650269,1499.926147 1147.724609,1498.176025 1146.625122,1496.931274 
	C1133.844482,1482.461792 1121.156494,1467.910522 1108.438354,1453.385864 
	C1107.145264,1451.909058 1105.815063,1450.464844 1103.549683,1449.372925 
	C1108.769287,1468.906372 1113.988892,1488.439819 1119.290405,1508.280029 
	C1113.911865,1509.708008 1108.979492,1511.017456 1103.570190,1512.453613 
	C1095.851318,1483.785034 1088.225342,1455.461548 1080.445068,1426.564697 
	C1086.807983,1424.861450 1092.794922,1423.065918 1098.890991,1421.794067 
	C1100.075317,1421.546997 1102.012939,1423.052734 1103.049438,1424.235229 
	C1117.206543,1440.386963 1131.266479,1456.623901 1145.722290,1473.202637 
	C1146.311768,1473.524170 1146.529053,1473.483154 1146.746460,1473.442017 
	C1146.715088,1473.305542 1146.689819,1473.053467 1146.651367,1473.051392 
	C1146.411987,1473.038696 1146.169556,1473.082031 1145.928223,1473.106934 
z"/>
<path fill="#FBFBFC" opacity="1.000000" stroke="none" 
	d="
M760.999817,644.010986 
	C751.677551,650.450256 742.653992,656.694702 733.209473,663.230408 
	C716.497620,638.694458 699.867798,614.278931 682.798218,589.217712 
	C693.815002,582.144836 704.257690,574.422424 715.607544,568.413269 
	C729.596802,561.006653 743.237122,564.635071 752.757202,577.279114 
	C758.850769,585.372192 764.566589,593.794250 769.877625,602.422241 
	C779.031250,617.292542 775.978577,631.130798 760.999817,644.010986 
M744.408508,596.121521 
	C742.407349,593.267578 740.556580,590.292175 738.372681,587.585693 
	C734.218567,582.437500 728.643616,580.553833 722.847351,583.308350 
	C717.121155,586.029419 711.907715,589.829346 706.243408,593.294189 
	C717.160950,609.303406 727.571533,624.569275 738.038574,639.917847 
	C742.211182,637.051575 745.774963,634.620178 749.317261,632.157837 
	C750.133850,631.590271 750.904236,630.947632 751.649109,630.286865 
	C757.856567,624.780273 758.963074,618.112671 754.577209,611.153687 
	C751.481201,606.241394 748.096619,601.510925 744.408508,596.121521 
z"/>
<path fill="#FBFBFC" opacity="1.000000" stroke="none" 
	d="
M604.900146,699.947998 
	C616.579285,707.308411 628.428467,713.860474 639.022278,722.038696 
	C652.146118,732.170166 653.350159,749.584961 643.318115,764.140747 
	C633.230103,778.777710 616.812927,783.216858 601.847778,774.566833 
	C592.231079,769.008301 582.931274,762.768982 574.070190,756.066956 
	C561.148376,746.293640 558.326599,730.732056 566.059021,716.380798 
	C574.338440,701.014343 588.580566,694.895935 604.900146,699.947998 
M581.773132,723.465576 
	C577.593567,731.561218 579.063232,738.208069 586.476379,743.341797 
	C593.709229,748.350830 601.034546,753.235168 608.450317,757.969116 
	C616.684692,763.225586 624.622375,761.617615 629.650269,753.937805 
	C634.467468,746.579712 632.702454,738.562073 624.913330,733.219238 
	C617.930969,728.429749 610.878906,723.737854 603.773560,719.132507 
	C595.106079,713.514771 588.604858,714.671570 581.773132,723.465576 
z"/>
<path fill="#FBFBFC" opacity="1.000000" stroke="none" 
	d="
M721.203003,1377.186401 
	C722.696899,1374.953735 723.906250,1372.958374 725.304504,1371.105591 
	C732.959290,1360.962646 743.078064,1355.729126 755.706787,1358.372559 
	C769.004456,1361.156250 779.133423,1368.647705 783.190002,1382.309692 
	C785.731628,1390.869263 784.172302,1399.192017 779.593567,1406.756714 
	C774.519287,1415.140015 769.302551,1423.455933 763.746765,1431.525146 
	C754.975708,1444.263916 741.718384,1448.826782 728.077026,1444.253418 
	C712.830200,1439.141602 702.964478,1426.519287 704.240906,1411.941528 
	C704.754883,1406.071045 707.428345,1400.159790 710.126160,1394.771362 
	C713.159241,1388.713623 717.329834,1383.225464 721.203003,1377.186401 
M766.401611,1388.093140 
	C764.934570,1380.553833 759.770508,1376.664307 752.753906,1375.432251 
	C746.480713,1374.331055 741.954956,1377.819824 738.653198,1382.872314 
	C733.933472,1390.094604 729.246094,1397.340576 724.694702,1404.669556 
	C719.563293,1412.932129 721.222534,1420.955078 728.887390,1425.843506 
	C736.496399,1430.696289 744.484070,1428.742432 749.858582,1420.557251 
	C754.413147,1413.620850 759.070557,1406.728882 763.158936,1399.520386 
	C764.961365,1396.342407 765.466797,1392.428955 766.401611,1388.093140 
z"/>
<path fill="#FBFBFC" opacity="1.000000" stroke="none" 
	d="
M1335.577026,705.841553 
	C1320.219360,709.717896 1306.210449,703.484924 1297.596802,689.224365 
	C1290.434326,677.366394 1292.103271,663.329102 1302.487183,652.110657 
	C1309.262939,644.790283 1316.302124,637.679443 1323.618652,630.901306 
	C1336.448242,619.015747 1353.568115,619.361572 1366.773560,631.378357 
	C1379.961060,643.378845 1382.390503,661.054138 1371.434326,674.247437 
	C1363.609863,683.669678 1354.398193,691.975403 1345.465698,700.419739 
	C1342.909912,702.835876 1339.168945,703.998352 1335.577026,705.841553 
M1314.219604,683.138428 
	C1320.953613,690.465393 1328.678833,691.893188 1335.151611,686.055298 
	C1342.788574,679.167542 1350.072754,671.826538 1356.953247,664.181152 
	C1362.558228,657.953125 1361.554077,650.079712 1355.342285,644.199341 
	C1349.445923,638.617615 1341.701294,638.251587 1335.664795,643.898010 
	C1328.630981,650.477539 1321.840820,657.342529 1315.280029,664.395386 
	C1309.849609,670.233032 1309.667847,675.574097 1314.219604,683.138428 
z"/>
<path fill="#FBFBFC" opacity="1.000000" stroke="none" 
	d="
M1469.274170,818.683472 
	C1462.356445,817.201660 1455.805298,816.006348 1449.356445,814.400208 
	C1446.442749,813.674438 1444.867554,814.481750 1443.188354,816.825806 
	C1432.433472,831.837891 1421.536011,846.747925 1410.127441,862.460327 
	C1407.347412,856.350037 1404.667480,850.794189 1402.374390,845.083008 
	C1402.002319,844.156067 1403.127075,842.382996 1403.930054,841.267578 
	C1411.306763,831.020447 1418.765259,820.832153 1426.337158,810.438293 
	C1413.077393,804.819641 1400.542603,804.624573 1388.505249,814.031555 
	C1385.909058,808.272461 1383.683838,803.336548 1381.177734,797.777405 
	C1408.307739,785.684082 1435.206665,773.693726 1462.524536,761.516602 
	C1464.852173,766.668030 1467.074707,771.586914 1469.538696,777.040161 
	C1456.608154,782.833984 1443.959595,788.501404 1429.917847,794.793091 
	C1441.107056,796.672668 1450.928345,798.332642 1460.753784,799.966492 
	C1463.543213,800.430359 1466.347534,801.189392 1469.141235,801.173340 
	C1478.517456,801.119324 1484.137085,805.450195 1486.291748,814.615967 
	C1486.881836,817.126648 1488.350464,819.430786 1489.816040,822.730469 
	C1482.531982,821.309387 1476.107056,820.055908 1469.274170,818.683472 
z"/>
<path fill="#FBFBFC" opacity="1.000000" stroke="none" 
	d="
M1165.045776,568.978149 
	C1172.881104,551.537476 1180.611938,534.460815 1188.351807,517.388123 
	C1188.414185,517.250793 1188.597046,517.168152 1189.303955,516.563965 
	C1206.924927,524.494446 1224.847412,532.560730 1243.316040,540.872742 
	C1241.102173,545.807190 1238.964966,550.570862 1236.589355,555.865906 
	C1223.639648,550.061035 1210.854858,544.330139 1197.630005,538.401917 
	C1194.857056,544.513855 1192.211792,550.344177 1189.347046,556.658569 
	C1200.322144,561.656799 1211.111694,566.570496 1222.129517,571.588135 
	C1219.833130,576.632324 1217.660889,581.403931 1215.344727,586.491638 
	C1204.317749,581.542786 1193.606445,576.735718 1182.569336,571.782288 
	C1179.893188,577.681213 1177.311890,583.371216 1174.526001,589.511841 
	C1187.506714,595.405762 1200.261963,601.197327 1213.407349,607.166016 
	C1211.109619,612.279785 1208.964355,617.053955 1206.680176,622.137573 
	C1188.501953,613.938354 1170.560059,605.845703 1152.164307,597.548340 
	C1156.493408,587.991943 1160.717529,578.667114 1165.045776,568.978149 
z"/>
<path fill="#FBFBFC" opacity="1.000000" stroke="none" 
	d="
M694.698914,700.702881 
	C678.797668,714.534668 664.989319,714.669556 649.812012,700.545837 
	C636.656433,688.303406 624.073364,675.445557 611.243042,662.853882 
	C610.421509,662.047607 609.649475,661.190857 608.452881,659.936829 
	C612.689331,656.330933 616.828552,652.807739 621.380310,648.933411 
	C626.795044,654.224731 633.160522,660.447510 639.528687,666.667542 
	C647.387878,674.343811 655.081726,682.200378 663.171021,689.626038 
	C668.221313,694.261963 674.320862,694.423401 679.738586,690.987000 
	C686.328674,686.806946 690.080078,679.818115 687.747437,673.812683 
	C686.253601,669.966675 683.246094,666.535339 680.364136,663.431641 
	C668.255493,650.391418 655.938538,637.544617 643.527588,624.447205 
	C646.346191,621.803589 650.296448,618.098694 655.529602,613.190491 
	C659.951477,618.080872 664.554810,623.513672 669.523315,628.588989 
	C677.559021,636.797546 685.869446,644.736511 694.001831,652.851379 
	C709.837891,668.653320 710.120911,683.878784 694.698914,700.702881 
z"/>
<path fill="#FAFAFB" opacity="1.000000" stroke="none" 
	d="
M1043.044434,1502.416260 
	C1048.754883,1498.726318 1050.265381,1493.552124 1049.845581,1487.526489 
	C1048.690063,1470.942871 1047.531250,1454.359253 1046.377563,1437.775391 
	C1046.218750,1435.491821 1046.080933,1433.206665 1045.906372,1430.504395 
	C1051.734741,1430.117310 1057.127075,1429.759155 1062.910767,1429.375000 
	C1064.287598,1449.859985 1066.321777,1470.041870 1066.811890,1490.261108 
	C1067.301392,1510.443726 1052.340942,1522.982422 1031.413940,1521.458618 
	C1013.565674,1520.159058 1003.206543,1509.729492 1001.957825,1491.900879 
	C1000.738220,1474.489258 999.439026,1457.083252 998.209595,1439.672241 
	C998.082275,1437.868896 998.192444,1436.048828 998.192444,1433.821167 
	C1003.654907,1433.447144 1009.052246,1433.077637 1014.838013,1432.681396 
	C1015.863770,1447.129272 1016.857727,1461.170410 1017.859253,1475.210938 
	C1018.154907,1479.355713 1018.816833,1483.507324 1018.716431,1487.641357 
	C1018.367920,1501.983398 1029.562744,1507.944580 1043.044434,1502.416260 
z"/>
<path fill="#FBFBFC" opacity="1.000000" stroke="none" 
	d="
M1507.969360,897.695251 
	C1506.995239,902.492554 1506.054199,906.827698 1505.007324,911.650879 
	C1499.262085,910.317200 1494.169922,909.135132 1488.920166,907.916504 
	C1492.452637,898.074463 1493.657471,888.572937 1488.967285,879.395874 
	C1487.495605,876.516235 1484.825684,873.461487 1481.959717,872.253540 
	C1476.751709,870.058472 1471.443237,874.585022 1471.076660,881.224487 
	C1470.719238,887.699463 1471.027832,894.210083 1471.002319,900.704834 
	C1470.947632,914.613281 1465.418457,922.485474 1453.450073,925.751831 
	C1440.546265,929.273376 1429.732178,925.246399 1423.314453,913.481323 
	C1414.743286,897.768799 1413.568726,881.357300 1420.510376,864.101624 
	C1425.825195,865.582520 1430.848511,866.982239 1436.122192,868.451660 
	C1432.035034,877.987854 1431.328003,887.489746 1434.115356,897.058350 
	C1435.069458,900.333923 1436.738892,903.543091 1438.707275,906.342712 
	C1440.833130,909.366333 1444.078613,910.727356 1447.950562,909.643372 
	C1452.009888,908.506897 1454.118652,905.644653 1454.284912,901.643982 
	C1454.463867,897.336060 1454.107300,893.006226 1453.995850,888.685730 
	C1453.927246,886.022156 1453.826294,883.357910 1453.831543,880.694153 
	C1453.859131,866.977112 1459.156860,859.573486 1471.267456,856.266968 
	C1484.381470,852.686462 1495.231567,856.739075 1501.747437,867.945007 
	C1507.002441,876.982300 1508.911255,886.830811 1507.969360,897.695251 
z"/>
<path fill="#FBFBFC" opacity="1.000000" stroke="none" 
	d="
M946.742371,556.234131 
	C949.958923,561.490723 952.976685,566.441650 956.293701,571.883606 
	C950.758667,572.963074 945.629822,574.181946 940.429688,574.814270 
	C939.223145,574.960999 937.303955,573.400452 936.509827,572.127991 
	C930.345947,562.250977 930.410278,562.232300 919.102295,564.516357 
	C915.844666,565.174316 912.552063,565.656555 909.286499,566.277466 
	C906.034668,566.895752 902.796753,567.586914 899.168335,568.324219 
	C898.362244,573.113708 897.542786,577.982788 896.671692,583.158936 
	C890.986572,584.234314 885.309814,585.308105 878.863708,586.527405 
	C880.377258,577.809387 881.760132,569.545471 883.253479,561.301514 
	C887.132202,539.888489 891.091187,518.489807 894.926331,497.068970 
	C895.395325,494.449219 895.672241,492.104340 899.108276,492.035400 
	C902.541016,491.966614 905.878418,489.262817 908.861694,494.299011 
	C921.132568,515.013733 933.935974,535.413025 946.742371,556.234131 
M918.938538,541.727905 
	C914.900757,534.781494 910.862976,527.835083 906.319458,520.018616 
	C904.689270,531.052246 903.233521,540.904907 901.724854,551.115662 
	C908.950928,549.710754 915.251465,548.485779 921.933899,547.186584 
	C920.866272,545.258362 920.079773,543.838013 918.938538,541.727905 
z"/>
<path fill="#FBFBFC" opacity="1.000000" stroke="none" 
	d="
M686.532349,1378.455811 
	C688.123840,1379.942993 689.456665,1381.194824 690.788635,1382.445923 
	C680.256104,1393.861450 661.408142,1395.362793 649.054016,1385.827271 
	C634.461487,1374.564087 630.417297,1358.025269 640.660095,1344.263672 
	C648.748779,1333.396362 658.307739,1323.392578 668.379211,1314.295532 
	C678.721436,1304.953979 691.485413,1305.148560 702.908325,1312.697998 
	C715.632568,1321.107422 721.138977,1333.496582 717.538452,1346.880005 
	C716.192810,1351.881836 713.708252,1356.577148 711.465393,1362.095337 
	C706.446106,1357.464722 702.331055,1353.668335 698.470825,1350.107056 
	C699.412720,1346.608521 700.665710,1343.499878 701.023438,1340.291260 
	C701.687805,1334.332886 698.586060,1330.123657 693.628296,1327.218140 
	C688.837952,1324.410767 683.550903,1324.279175 679.694153,1328.042236 
	C671.268982,1336.262939 663.087158,1344.810913 655.588135,1353.872314 
	C651.419434,1358.909546 652.495361,1364.439209 656.598083,1369.429565 
	C660.822449,1374.568115 665.993347,1376.147461 672.157288,1373.999634 
	C674.173035,1373.297241 676.056702,1372.215942 678.409363,1371.117188 
	C680.911621,1373.377319 683.592651,1375.798950 686.532349,1378.455811 
z"/>
<path fill="#FBFBFC" opacity="1.000000" stroke="none" 
	d="
M518.870361,902.380798 
	C529.360046,905.052246 539.443787,907.920959 549.700562,909.886719 
	C558.066101,911.490051 563.508179,908.103638 566.043579,901.113831 
	C568.592590,894.086426 566.519775,888.186035 559.388184,883.728699 
	C556.902344,882.175171 556.465149,880.595093 557.144043,878.058777 
	C558.294067,873.762085 559.287964,869.423523 560.352112,865.083801 
	C583.782410,872.926819 591.614014,899.048096 576.350830,917.984009 
	C568.850220,927.289246 558.660522,929.442810 547.543152,927.461914 
	C537.903320,925.744385 528.377197,923.337341 518.859497,920.996460 
	C501.717377,916.780457 492.361237,905.218140 493.593170,890.072815 
	C495.158630,870.826782 505.683624,859.808105 524.154358,858.188599 
	C526.607422,857.973511 529.095581,858.158997 532.013306,858.158997 
	C530.865723,863.290344 530.094971,868.206665 528.523315,872.851929 
	C528.062927,874.212646 525.427246,875.286499 523.615845,875.664612 
	C515.013977,877.460022 510.562714,882.603149 510.845917,890.853333 
	C511.031342,896.255554 513.923706,899.801819 518.870361,902.380798 
z"/>
<path fill="#FBFBFC" opacity="1.000000" stroke="none" 
	d="
M1267.857422,565.826294 
	C1269.660767,563.238281 1271.282593,560.965271 1273.153076,558.343567 
	C1289.299805,569.380310 1305.173828,580.230530 1321.453857,591.358398 
	C1318.342041,595.914001 1315.394653,600.228821 1312.181030,604.933594 
	C1300.715820,597.123779 1289.499756,589.483521 1277.896851,581.579895 
	C1273.931885,587.329773 1270.097412,592.890259 1266.049194,598.760864 
	C1275.534546,605.278015 1284.966309,611.758301 1294.777466,618.499268 
	C1291.690063,623.023926 1288.725586,627.368652 1285.526123,632.057678 
	C1275.980103,625.559631 1266.564819,619.150696 1256.745239,612.466492 
	C1250.051880,622.213257 1243.513916,631.733765 1236.823242,641.476440 
	C1231.960571,638.136108 1227.477417,635.056396 1222.762085,631.817261 
	C1237.864258,609.733765 1252.770020,587.937500 1267.857422,565.826294 
z"/>
<path fill="#FAFAFB" opacity="1.000000" stroke="none" 
	d="
M1110.175293,584.436523 
	C1105.701172,583.778442 1101.513550,582.869446 1097.104492,581.912415 
	C1094.621826,550.850037 1092.149414,519.916260 1089.624146,488.321228 
	C1095.716064,489.776886 1101.120239,491.068207 1106.622681,492.383026 
	C1107.974243,512.538818 1109.305908,532.396423 1110.712280,553.368103 
	C1112.151001,551.373108 1113.026978,550.307495 1113.742676,549.143311 
	C1122.788452,534.428833 1131.895996,519.751160 1140.764038,504.930176 
	C1142.432983,502.140839 1144.056885,501.340851 1147.103882,502.277893 
	C1151.178223,503.530823 1155.366943,504.411957 1160.124634,505.608185 
	C1143.425537,532.029724 1126.943604,558.107666 1110.175293,584.436523 
z"/>
<path fill="#FBFBFC" opacity="1.000000" stroke="none" 
	d="
M1303.595215,1357.505493 
	C1300.297485,1346.005981 1296.893677,1334.534546 1293.825195,1322.974121 
	C1293.401733,1321.378418 1294.069824,1318.778931 1295.217407,1317.616211 
	C1298.439453,1314.351562 1302.176147,1311.594849 1306.280396,1308.160522 
	C1309.963135,1322.129395 1313.459595,1335.388916 1316.951782,1348.649536 
	C1317.120850,1349.291870 1317.331665,1349.937500 1317.387329,1350.593140 
	C1318.714844,1366.242432 1329.701050,1376.192139 1338.949463,1387.166016 
	C1340.448608,1388.944824 1341.973999,1390.701660 1343.859253,1392.903076 
	C1339.671631,1396.535645 1335.578857,1400.086060 1330.988281,1404.068115 
	C1325.028320,1397.091797 1319.369385,1390.001831 1313.175171,1383.415527 
	C1310.097412,1380.142822 1306.381470,1377.068726 1302.359131,1375.157715 
	C1287.663940,1368.176758 1272.717529,1361.724976 1257.868530,1355.067505 
	C1256.546753,1354.475098 1255.244385,1353.839600 1253.361328,1352.955688 
	C1257.708984,1349.273193 1261.439819,1345.751709 1265.594360,1342.833374 
	C1266.713745,1342.046997 1269.330566,1342.639526 1270.901245,1343.370483 
	C1281.289307,1348.204834 1291.579590,1353.249146 1302.441284,1358.537476 
	C1303.185547,1358.401611 1303.390381,1357.953491 1303.595215,1357.505493 
z"/>
<path fill="#FBFBFC" opacity="1.000000" stroke="none" 
	d="
M1257.016846,1412.949219 
	C1263.147217,1423.257935 1269.129150,1433.231812 1275.392822,1443.675537 
	C1270.501953,1446.610718 1265.745117,1449.465454 1260.724487,1452.478516 
	C1248.247559,1431.584229 1235.991943,1411.060547 1223.499634,1390.140625 
	C1216.565186,1394.243408 1209.774536,1398.261108 1202.742432,1402.421631 
	C1199.917236,1397.720215 1197.283813,1393.337646 1194.288940,1388.353882 
	C1213.060181,1377.138916 1231.656250,1366.028687 1250.454956,1354.797363 
	C1253.313599,1359.572021 1256.006836,1364.070312 1258.907104,1368.914429 
	C1251.904907,1373.117065 1245.236450,1377.119263 1238.187500,1381.349976 
	C1244.489746,1391.897461 1250.678955,1402.255981 1257.016846,1412.949219 
z"/>
<path fill="#FAF9FB" opacity="1.000000" stroke="none" 
	d="
M953.998047,486.148376 
	C954.775818,484.775452 955.533203,483.131226 956.347107,483.102753 
	C977.103821,482.376038 997.866455,481.818390 1019.173889,481.215790 
	C1019.417969,486.605988 1019.654053,491.820709 1019.927490,497.858337 
	C1011.715759,497.858337 1003.993958,497.858337 995.677551,497.858337 
	C996.351440,522.544739 997.003174,546.419556 997.667114,570.741394 
	C992.258423,570.741394 986.866333,570.741394 980.698792,570.741394 
	C980.019104,547.169678 979.331848,523.336975 978.635376,499.183380 
	C970.772034,499.183380 963.045471,499.183380 954.568054,499.183380 
	C954.383545,495.076538 954.193726,490.853271 953.998047,486.148376 
z"/>
<path fill="#FBFBFC" opacity="1.000000" stroke="none" 
	d="
M553.123169,836.795288 
	C539.988525,831.120361 527.210449,825.581055 513.923523,819.821106 
	C516.141907,814.654297 518.317261,809.587708 520.641968,804.173401 
	C542.965698,813.787659 564.988831,823.272339 587.317871,832.888855 
	C593.034851,819.702393 598.616333,806.828491 604.308716,793.698669 
	C609.473145,795.943787 614.285889,798.036011 619.376221,800.248901 
	C611.406006,818.718201 603.605286,836.794495 595.698486,855.116760 
	C581.442566,848.975952 567.461121,842.953369 553.123169,836.795288 
z"/>
<path fill="#FBFBFC" opacity="1.000000" stroke="none" 
	d="
M1368.490234,747.458923 
	C1374.852051,756.628784 1380.985596,765.514099 1387.345459,774.727295 
	C1382.857300,777.849121 1378.534668,780.855835 1373.841553,784.120117 
	C1362.469116,767.693604 1351.248657,751.486450 1339.789917,734.935303 
	C1364.200562,718.042786 1388.374023,701.314453 1413.098389,684.204895 
	C1416.364990,688.955078 1419.504639,693.520386 1422.778931,698.281738 
	C1402.716187,712.172180 1383.042847,725.792969 1363.178833,739.545837 
	C1364.953613,742.209473 1366.607666,744.691895 1368.490234,747.458923 
z"/>
<path fill="#FAFAFB" opacity="1.000000" stroke="none" 
	d="
M1205.340820,1448.589478 
	C1209.200073,1457.435181 1212.885376,1465.942017 1216.781250,1474.934814 
	C1211.368530,1477.310547 1206.116089,1479.615723 1200.603027,1482.035522 
	C1188.784912,1454.803467 1177.098389,1427.874390 1165.158569,1400.361694 
	C1170.471436,1398.022217 1175.683105,1395.727295 1181.359497,1393.227783 
	C1189.394165,1411.797363 1197.280396,1430.024048 1205.340820,1448.589478 
z"/>
<path fill="#F9F9FB" opacity="1.000000" stroke="none" 
	d="
M1044.489258,484.036316 
	C1050.170898,484.320557 1055.433472,484.775787 1061.274170,485.281036 
	C1058.326904,514.981323 1055.414917,544.327759 1052.471680,573.988586 
	C1046.441040,573.366333 1040.865234,572.791016 1034.978394,572.183594 
	C1036.060303,560.790833 1037.084229,549.729370 1038.166870,538.673645 
	C1039.818970,521.802795 1041.500732,504.934906 1043.208496,488.069672 
	C1043.340454,486.766510 1043.775879,485.494049 1044.489258,484.036316 
z"/>
<path fill="#060541" opacity="1.000000" stroke="none" 
	d="
M1327.284912,799.764160 
	C1362.855835,857.894104 1382.324219,920.578308 1384.086914,988.423950 
	C1386.868530,1095.491455 1351.279419,1188.233643 1277.711304,1265.877441 
	C1220.439331,1326.322388 1150.181396,1363.927368 1068.203735,1378.489258 
	C987.872437,1392.758545 910.482056,1382.257568 836.593689,1347.364746 
	C796.324341,1328.348145 760.439941,1302.955688 729.233887,1271.243286 
	C670.759705,1211.820068 633.736877,1141.076538 622.066956,1058.382324 
	C604.852844,936.401794 638.291260,829.180054 721.848572,738.743530 
	C780.157898,675.633728 852.615173,636.362793 937.658936,623.070740 
	C1063.291260,603.434937 1173.006836,637.946716 1266.202759,724.467651 
	C1289.997803,746.558472 1309.957886,771.891602 1327.284912,799.764160 
M878.987122,1265.491699 
	C913.062378,1284.231934 947.106873,1303.028198 981.224609,1321.690796 
	C1000.978882,1332.496338 1020.979492,1332.740356 1040.771729,1321.903564 
	C1100.384033,1289.264526 1160.017090,1256.661133 1219.430420,1223.662598 
	C1238.737061,1212.939575 1249.563354,1195.888916 1249.864258,1173.640869 
	C1250.414062,1132.986694 1250.127441,1092.321167 1250.118774,1051.660278 
	C1250.118408,1049.891235 1249.686157,1048.007202 1248.996460,1046.369995 
	C1225.602661,990.845581 1184.246582,958.488342 1124.486816,949.755188 
	C1122.185669,949.418884 1119.479614,947.890808 1118.058716,946.064880 
	C1056.932129,867.513977 937.374146,868.032166 877.091370,947.107849 
	C875.467957,949.237305 872.652527,951.207275 870.076904,951.749023 
	C831.956299,959.767639 801.490723,979.606140 777.860291,1010.407471 
	C773.836182,1015.652710 771.798096,1020.892334 772.008972,1027.692139 
	C772.502136,1043.595459 772.166504,1059.524292 772.166504,1076.186768 
	C773.854797,1074.970825 774.933044,1074.290161 775.903931,1073.480713 
	C796.372498,1056.417725 816.711487,1039.195801 837.368591,1022.364502 
	C842.685974,1018.031738 847.249451,1014.171387 844.032227,1006.586853 
	C843.911499,1006.302551 844.006592,1005.926819 844.000854,1005.593628 
	C843.759583,991.629089 852.892456,978.820129 866.207642,974.448181 
	C879.448364,970.100708 893.941162,974.804565 902.159546,986.117004 
	C910.371338,997.420288 910.396973,1012.628662 902.223145,1023.851501 
	C893.854248,1035.342041 879.240540,1040.011353 865.846802,1035.344238 
	C863.569641,1034.550659 861.885193,1034.015015 859.621277,1035.917480 
	C831.445007,1059.595703 803.125244,1083.103271 774.966309,1106.802002 
	C773.467712,1108.063110 772.305542,1110.629883 772.285583,1112.602051 
	C772.088867,1132.098389 771.932861,1151.600952 772.230286,1171.094727 
	C772.548157,1191.921875 781.025024,1208.868530 798.330566,1220.711914 
	C805.822998,1225.839600 814.105652,1229.812500 821.888916,1234.230225 
	C822.680298,1233.670410 823.104126,1233.412476 823.481079,1233.098267 
	C871.830078,1192.786011 920.160889,1152.451904 968.569519,1112.211182 
	C970.741943,1110.405396 970.929199,1108.934814 970.362305,1106.304688 
	C967.244568,1091.839355 974.319214,1077.525146 987.545288,1070.900391 
	C1000.534790,1064.394287 1015.879700,1067.392822 1025.758423,1078.367310 
	C1035.466797,1089.153076 1036.659302,1104.906128 1028.699341,1117.220581 
	C1020.772522,1129.483398 1005.579773,1134.855225 991.513062,1129.957886 
	C988.289185,1128.835449 986.390930,1129.627686 984.053589,1131.582031 
	C949.940674,1160.105713 915.763916,1188.552856 881.614685,1217.033081 
	C869.761292,1226.918823 857.941528,1236.844971 845.623291,1247.156982 
	C856.899475,1253.347778 867.622620,1259.234985 878.987122,1265.491699 
M812.022583,889.528259 
	C799.874084,899.661316 787.769653,909.848145 775.539185,919.881226 
	C773.155884,921.836304 772.042236,923.791992 772.081116,927.010254 
	C772.270447,942.672180 772.159729,958.337708 772.180542,974.001953 
	C772.182129,975.194885 772.380798,976.387573 772.537415,978.132385 
	C774.131104,976.614380 775.218750,975.596924 776.286316,974.558716 
	C795.291016,956.077454 816.993408,941.598877 842.399414,933.957703 
	C854.981140,930.173584 864.317749,923.501709 873.416138,914.324097 
	C944.828186,842.290222 1062.406738,845.762939 1129.729492,921.579834 
	C1132.510742,924.712097 1135.426758,926.176514 1139.302124,926.883118 
	C1170.968262,932.656433 1199.017700,946.172729 1223.064697,967.468689 
	C1232.667603,975.972961 1241.126465,985.768799 1249.976685,994.844055 
	C1249.952148,994.948669 1250.145752,994.509033 1250.145874,994.069336 
	C1250.157349,925.579956 1250.602783,857.086487 1249.968018,788.602966 
	C1249.641602,753.375061 1223.493042,729.001892 1188.345337,729.001099 
	C1070.030273,728.998474 951.715271,728.993530 833.400208,729.004211 
	C798.602295,729.007324 772.276611,755.100037 772.184753,789.782043 
	C772.100098,821.776855 772.163269,853.772095 772.180115,885.767151 
	C772.180786,886.974121 772.378601,888.180969 772.524048,889.837952 
	C774.193237,888.555603 775.404846,887.689697 776.545593,886.738831 
	C796.498901,870.106384 816.337280,853.333252 836.459167,836.907471 
	C842.045288,832.347412 845.671692,828.596802 844.406250,819.981506 
	C842.390015,806.254028 852.321411,793.151672 865.579285,788.421631 
	C878.486877,783.816528 893.464905,788.342957 901.775269,799.360291 
	C910.355225,810.735046 910.557373,826.025879 902.279602,837.496826 
	C893.871582,849.148254 879.457458,853.913757 866.023865,849.096252 
	C862.858826,847.961304 861.001221,848.625061 858.598755,850.655029 
	C843.333862,863.553345 827.921326,876.276855 812.022583,889.528259 
M863.291809,809.938171 
	C859.355103,817.301941 859.829041,824.041321 864.651123,829.266235 
	C869.291077,834.294006 876.244507,835.808105 882.388550,833.128601 
	C888.477661,830.473083 892.110535,824.692261 891.841614,818.086304 
	C891.585876,811.803589 887.515991,806.254578 881.570496,804.082275 
	C875.200562,801.754944 868.994202,803.594299 863.291809,809.938171 
M867.605835,991.947571 
	C859.779785,998.481750 858.301392,1007.582581 863.917908,1014.650452 
	C869.247070,1021.356689 878.825500,1022.560608 885.726379,1017.391541 
	C892.062134,1012.645813 893.730408,1003.750854 889.572510,996.885559 
	C885.170471,989.617126 877.012634,987.575378 867.605835,991.947571 
M992.022522,1087.414429 
	C985.527466,1093.888672 984.270813,1101.327759 988.540466,1108.027954 
	C992.430847,1114.132812 1000.062256,1116.844360 1006.808899,1114.429688 
	C1012.392822,1112.431152 1016.061401,1108.579712 1017.010498,1102.658447 
	C1018.069214,1096.052856 1016.129211,1090.416504 1010.346741,1086.663696 
	C1004.453735,1082.839111 998.463989,1083.129028 992.022522,1087.414429 
z"/>
<path fill="#060541" opacity="1.000000" stroke="none" 
	d="
M855.660767,1443.368896 
	C855.847656,1442.598511 856.281799,1442.190918 856.715942,1441.783325 
	C856.776550,1442.476074 856.837158,1443.168945 856.674805,1444.141113 
	C856.270447,1444.190796 856.089233,1443.961060 855.660767,1443.368896 
z"/>
<path fill="#060541" opacity="1.000000" stroke="none" 
	d="
M959.348511,1460.615112 
	C959.540710,1460.796265 959.568054,1461.168701 959.595459,1461.541260 
	C959.458191,1461.296387 959.320984,1461.051392 959.348511,1460.615112 
z"/>
<path fill="#060541" opacity="1.000000" stroke="none" 
	d="
M840.172119,570.873657 
	C840.587646,571.264099 840.733093,571.944153 840.878540,572.624268 
	C840.506348,572.497803 840.134155,572.371338 839.574890,572.005371 
	C839.559204,571.565002 839.730591,571.364197 840.172119,570.873657 
z"/>
<path fill="#060541" opacity="1.000000" stroke="none" 
	d="
M1145.948608,1473.074463 
	C1146.169556,1473.082031 1146.411987,1473.038696 1146.651367,1473.051392 
	C1146.689819,1473.053467 1146.715088,1473.305542 1146.746460,1473.442017 
	C1146.529053,1473.483154 1146.311768,1473.524170 1146.055420,1473.273682 
	C1146.016479,1472.981934 1145.968994,1473.041992 1145.948608,1473.074463 
z"/>
<path fill="#070642" opacity="1.000000" stroke="none" 
	d="
M744.624695,596.410400 
	C748.096619,601.510925 751.481201,606.241394 754.577209,611.153687 
	C758.963074,618.112671 757.856567,624.780273 751.649109,630.286865 
	C750.904236,630.947632 750.133850,631.590271 749.317261,632.157837 
	C745.774963,634.620178 742.211182,637.051575 738.038574,639.917847 
	C727.571533,624.569275 717.160950,609.303406 706.243408,593.294189 
	C711.907715,589.829346 717.121155,586.029419 722.847351,583.308350 
	C728.643616,580.553833 734.218567,582.437500 738.372681,587.585693 
	C740.556580,590.292175 742.407349,593.267578 744.624695,596.410400 
z"/>
<path fill="#070642" opacity="1.000000" stroke="none" 
	d="
M581.942383,723.131348 
	C588.604858,714.671570 595.106079,713.514771 603.773560,719.132507 
	C610.878906,723.737854 617.930969,728.429749 624.913330,733.219238 
	C632.702454,738.562073 634.467468,746.579712 629.650269,753.937805 
	C624.622375,761.617615 616.684692,763.225586 608.450317,757.969116 
	C601.034546,753.235168 593.709229,748.350830 586.476379,743.341797 
	C579.063232,738.208069 577.593567,731.561218 581.942383,723.131348 
z"/>
<path fill="#070642" opacity="1.000000" stroke="none" 
	d="
M766.481323,1388.471191 
	C765.466797,1392.428955 764.961365,1396.342407 763.158936,1399.520386 
	C759.070557,1406.728882 754.413147,1413.620850 749.858582,1420.557251 
	C744.484070,1428.742432 736.496399,1430.696289 728.887390,1425.843506 
	C721.222534,1420.955078 719.563293,1412.932129 724.694702,1404.669556 
	C729.246094,1397.340576 733.933472,1390.094604 738.653198,1382.872314 
	C741.954956,1377.819824 746.480713,1374.331055 752.753906,1375.432251 
	C759.770508,1376.664307 764.934570,1380.553833 766.481323,1388.471191 
z"/>
<path fill="#070641" opacity="1.000000" stroke="none" 
	d="
M1314.020020,682.818665 
	C1309.667847,675.574097 1309.849609,670.233032 1315.280029,664.395386 
	C1321.840820,657.342529 1328.630981,650.477539 1335.664795,643.898010 
	C1341.701294,638.251587 1349.445923,638.617615 1355.342285,644.199341 
	C1361.554077,650.079712 1362.558228,657.953125 1356.953247,664.181152 
	C1350.072754,671.826538 1342.788574,679.167542 1335.151611,686.055298 
	C1328.678833,691.893188 1320.953613,690.465393 1314.020020,682.818665 
z"/>
<path fill="#0F0E48" opacity="1.000000" stroke="none" 
	d="
M919.115967,542.072754 
	C920.079773,543.838013 920.866272,545.258362 921.933899,547.186584 
	C915.251465,548.485779 908.950928,549.710754 901.724854,551.115662 
	C903.233521,540.904907 904.689270,531.052246 906.319458,520.018616 
	C910.862976,527.835083 914.900757,534.781494 919.115967,542.072754 
z"/>
<path fill="#060541" opacity="1.000000" stroke="none" 
	d="
M1303.333496,1357.729492 
	C1303.390381,1357.953491 1303.185547,1358.401611 1302.781494,1358.643799 
	C1302.745239,1358.276367 1302.908569,1358.114990 1303.333496,1357.729492 
z"/>
<path fill="#FEFEFE" opacity="1.000000" stroke="none" 
	d="
M878.666504,1265.306885 
	C867.622620,1259.234985 856.899475,1253.347778 845.623291,1247.156982 
	C857.941528,1236.844971 869.761292,1226.918823 881.614685,1217.033081 
	C915.763916,1188.552856 949.940674,1160.105713 984.053589,1131.582031 
	C986.390930,1129.627686 988.289185,1128.835449 991.513062,1129.957886 
	C1005.579773,1134.855225 1020.772522,1129.483398 1028.699341,1117.220581 
	C1036.659302,1104.906128 1035.466797,1089.153076 1025.758423,1078.367310 
	C1015.879700,1067.392822 1000.534790,1064.394287 987.545288,1070.900391 
	C974.319214,1077.525146 967.244568,1091.839355 970.362305,1106.304688 
	C970.929199,1108.934814 970.741943,1110.405396 968.569519,1112.211182 
	C920.160889,1152.451904 871.830078,1192.786011 823.481079,1233.098267 
	C823.104126,1233.412476 822.680298,1233.670410 821.888916,1234.230225 
	C814.105652,1229.812500 805.822998,1225.839600 798.330566,1220.711914 
	C781.025024,1208.868530 772.548157,1191.921875 772.230286,1171.094727 
	C771.932861,1151.600952 772.088867,1132.098389 772.285583,1112.602051 
	C772.305542,1110.629883 773.467712,1108.063110 774.966309,1106.802002 
	C803.125244,1083.103271 831.445007,1059.595703 859.621277,1035.917480 
	C861.885193,1034.015015 863.569641,1034.550659 865.846802,1035.344238 
	C879.240540,1040.011353 893.854248,1035.342041 902.223145,1023.851501 
	C910.396973,1012.628662 910.371338,997.420288 902.159546,986.117004 
	C893.941162,974.804565 879.448364,970.100708 866.207642,974.448181 
	C852.892456,978.820129 843.759583,991.629089 844.000854,1005.593628 
	C844.006592,1005.926819 843.911499,1006.302551 844.032227,1006.586853 
	C847.249451,1014.171387 842.685974,1018.031738 837.368591,1022.364502 
	C816.711487,1039.195801 796.372498,1056.417725 775.903931,1073.480713 
	C774.933044,1074.290161 773.854797,1074.970825 772.166504,1076.186768 
	C772.166504,1059.524292 772.502136,1043.595459 772.008972,1027.692139 
	C771.798096,1020.892334 773.836182,1015.652710 777.860291,1010.407471 
	C801.490723,979.606140 831.956299,959.767639 870.076904,951.749023 
	C872.652527,951.207275 875.467957,949.237305 877.091370,947.107849 
	C937.374146,868.032166 1056.932129,867.513977 1118.058716,946.064880 
	C1119.479614,947.890808 1122.185669,949.418884 1124.486816,949.755188 
	C1184.246582,958.488342 1225.602661,990.845581 1248.996460,1046.369995 
	C1249.686157,1048.007202 1250.118408,1049.891235 1250.118774,1051.660278 
	C1250.127441,1092.321167 1250.414062,1132.986694 1249.864258,1173.640869 
	C1249.563354,1195.888916 1238.737061,1212.939575 1219.430420,1223.662598 
	C1160.017090,1256.661133 1100.384033,1289.264526 1040.771729,1321.903564 
	C1020.979492,1332.740356 1000.978882,1332.496338 981.224609,1321.690796 
	C947.106873,1303.028198 913.062378,1284.231934 878.666504,1265.306885 
M1153.104858,1104.053955 
	C1164.107422,1107.856689 1168.989990,1114.589600 1168.997681,1126.015381 
	C1169.007690,1140.839233 1169.083252,1155.663940 1168.939941,1170.486328 
	C1168.906860,1173.900146 1169.885864,1175.181396 1173.456055,1175.128296 
	C1185.612305,1174.947388 1197.773438,1174.992310 1209.931274,1175.104492 
	C1212.940308,1175.132202 1214.020142,1174.102295 1214.011108,1171.055786 
	C1213.930176,1143.740234 1214.050659,1116.423828 1213.906372,1089.108765 
	C1213.864258,1081.147339 1208.043091,1075.106812 1200.620483,1075.021729 
	C1187.297363,1074.869141 1173.971069,1074.934204 1160.647217,1075.044312 
	C1159.345215,1075.055054 1157.309448,1075.662109 1156.868896,1076.588745 
	C1152.802124,1085.144775 1146.217285,1090.797729 1137.795532,1094.856323 
	C1136.531738,1095.465454 1136.153687,1098.875122 1136.284912,1100.930542 
	C1136.335693,1101.724243 1138.887085,1102.768066 1140.399414,1102.978638 
	C1144.328491,1103.525635 1148.312866,1103.673950 1153.104858,1104.053955 
M1038.939453,1136.500000 
	C1038.939819,1147.830200 1039.042603,1159.161743 1038.878906,1170.489624 
	C1038.829224,1173.925293 1039.877686,1175.181030 1043.425415,1175.125854 
	C1054.919434,1174.947021 1066.422485,1174.870728 1077.912231,1175.156372 
	C1082.296753,1175.265259 1083.153687,1173.571289 1083.102417,1169.629761 
	C1082.911987,1154.969604 1082.987061,1140.305542 1083.046143,1125.643188 
	C1083.070557,1119.598633 1085.076660,1114.442139 1089.387207,1109.911499 
	C1095.601562,1103.380005 1103.458374,1103.267456 1111.493774,1102.949463 
	C1113.029297,1102.888672 1115.541870,1101.645386 1115.799316,1100.530884 
	C1116.340332,1098.188599 1116.954468,1095.295654 1113.341309,1093.900635 
	C1105.742188,1090.966675 1100.453857,1085.461060 1096.494995,1078.375488 
	C1095.595337,1076.765259 1093.052734,1075.160278 1091.233643,1075.122192 
	C1078.076416,1074.847168 1064.909912,1074.895020 1051.747925,1075.007568 
	C1044.368408,1075.070679 1038.973267,1080.648438 1038.954468,1088.013184 
	C1038.913940,1103.842041 1038.940430,1119.671021 1038.939453,1136.500000 
M1163.136597,1062.534180 
	C1188.643311,1072.730103 1208.188477,1052.666626 1207.195312,1034.363525 
	C1206.357666,1018.925110 1195.463013,1005.564026 1180.733643,1004.026001 
	C1164.161499,1002.295654 1149.601929,1012.237854 1146.309448,1027.782227 
	C1145.331665,1032.398682 1145.946045,1036.373779 1149.594116,1040.520874 
	C1153.608521,1045.084351 1155.729370,1051.298218 1158.775879,1056.736816 
	C1159.842041,1058.640137 1161.207397,1060.375732 1163.136597,1062.534180 
M1050.123169,1019.837585 
	C1046.524658,1026.982666 1045.723755,1034.619385 1047.670776,1042.187622 
	C1051.858032,1058.463501 1067.048340,1067.860718 1083.636963,1064.857056 
	C1089.058105,1063.875244 1092.655640,1061.825684 1094.383179,1055.311401 
	C1096.031860,1049.095215 1100.393799,1043.197998 1104.800049,1038.265747 
	C1107.390381,1035.366211 1108.950073,1032.712402 1107.763794,1029.637817 
	C1105.587646,1023.998291 1103.507080,1017.814697 1099.610840,1013.439270 
	C1086.822876,999.078308 1061.946411,1000.407532 1050.123169,1019.837585 
z"/>
<path fill="#FEFEFF" opacity="1.000000" stroke="none" 
	d="
M812.289978,889.293091 
	C827.921326,876.276855 843.333862,863.553345 858.598755,850.655029 
	C861.001221,848.625061 862.858826,847.961304 866.023865,849.096252 
	C879.457458,853.913757 893.871582,849.148254 902.279602,837.496826 
	C910.557373,826.025879 910.355225,810.735046 901.775269,799.360291 
	C893.464905,788.342957 878.486877,783.816528 865.579285,788.421631 
	C852.321411,793.151672 842.390015,806.254028 844.406250,819.981506 
	C845.671692,828.596802 842.045288,832.347412 836.459167,836.907471 
	C816.337280,853.333252 796.498901,870.106384 776.545593,886.738831 
	C775.404846,887.689697 774.193237,888.555603 772.524048,889.837952 
	C772.378601,888.180969 772.180786,886.974121 772.180115,885.767151 
	C772.163269,853.772095 772.100098,821.776855 772.184753,789.782043 
	C772.276611,755.100037 798.602295,729.007324 833.400208,729.004211 
	C951.715271,728.993530 1070.030273,728.998474 1188.345337,729.001099 
	C1223.493042,729.001892 1249.641602,753.375061 1249.968018,788.602966 
	C1250.602783,857.086487 1250.157349,925.579956 1250.145874,994.069336 
	C1250.145752,994.509033 1249.952148,994.948669 1249.976685,994.844055 
	C1241.126465,985.768799 1232.667603,975.972961 1223.064697,967.468689 
	C1199.017700,946.172729 1170.968262,932.656433 1139.302124,926.883118 
	C1135.426758,926.176514 1132.510742,924.712097 1129.729492,921.579834 
	C1062.406738,845.762939 944.828186,842.290222 873.416138,914.324097 
	C864.317749,923.501709 854.981140,930.173584 842.399414,933.957703 
	C816.993408,941.598877 795.291016,956.077454 776.286316,974.558716 
	C775.218750,975.596924 774.131104,976.614380 772.537415,978.132385 
	C772.380798,976.387573 772.182129,975.194885 772.180542,974.001953 
	C772.159729,958.337708 772.270447,942.672180 772.081116,927.010254 
	C772.042236,923.791992 773.155884,921.836304 775.539185,919.881226 
	C787.769653,909.848145 799.874084,899.661316 812.289978,889.293091 
z"/>
<path fill="#FAFAFB" opacity="1.000000" stroke="none" 
	d="
M863.523499,809.650146 
	C868.994202,803.594299 875.200562,801.754944 881.570496,804.082275 
	C887.515991,806.254578 891.585876,811.803589 891.841614,818.086304 
	C892.110535,824.692261 888.477661,830.473083 882.388550,833.128601 
	C876.244507,835.808105 869.291077,834.294006 864.651123,829.266235 
	C859.829041,824.041321 859.355103,817.301941 863.523499,809.650146 
z"/>
<path fill="#FAFAFB" opacity="1.000000" stroke="none" 
	d="
M867.917175,991.745605 
	C877.012634,987.575378 885.170471,989.617126 889.572510,996.885559 
	C893.730408,1003.750854 892.062134,1012.645813 885.726379,1017.391541 
	C878.825500,1022.560608 869.247070,1021.356689 863.917908,1014.650452 
	C858.301392,1007.582581 859.779785,998.481750 867.917175,991.745605 
z"/>
<path fill="#FBFBFC" opacity="1.000000" stroke="none" 
	d="
M992.321777,1087.195435 
	C998.463989,1083.129028 1004.453735,1082.839111 1010.346741,1086.663696 
	C1016.129211,1090.416504 1018.069214,1096.052856 1017.010498,1102.658447 
	C1016.061401,1108.579712 1012.392822,1112.431152 1006.808899,1114.429688 
	C1000.062256,1116.844360 992.430847,1114.132812 988.540466,1108.027954 
	C984.270813,1101.327759 985.527466,1093.888672 992.321777,1087.195435 
z"/>
<path fill="#D9D9D9" opacity="1.000000" stroke="none" 
	d="
M1152.690063,1104.017578 
	C1148.312866,1103.673950 1144.328491,1103.525635 1140.399414,1102.978638 
	C1138.887085,1102.768066 1136.335693,1101.724243 1136.284912,1100.930542 
	C1136.153687,1098.875122 1136.531738,1095.465454 1137.795532,1094.856323 
	C1146.217285,1090.797729 1152.802124,1085.144775 1156.868896,1076.588745 
	C1157.309448,1075.662109 1159.345215,1075.055054 1160.647217,1075.044312 
	C1173.971069,1074.934204 1187.297363,1074.869141 1200.620483,1075.021729 
	C1208.043091,1075.106812 1213.864258,1081.147339 1213.906372,1089.108765 
	C1214.050659,1116.423828 1213.930176,1143.740234 1214.011108,1171.055786 
	C1214.020142,1174.102295 1212.940308,1175.132202 1209.931274,1175.104492 
	C1197.773438,1174.992310 1185.612305,1174.947388 1173.456055,1175.128296 
	C1169.885864,1175.181396 1168.906860,1173.900146 1168.939941,1170.486328 
	C1169.083252,1155.663940 1169.007690,1140.839233 1168.997681,1126.015381 
	C1168.989990,1114.589600 1164.107422,1107.856689 1152.690063,1104.017578 
z"/>
<path fill="#D9D9D9" opacity="1.000000" stroke="none" 
	d="
M1038.939453,1136.000000 
	C1038.940430,1119.671021 1038.913940,1103.842041 1038.954468,1088.013184 
	C1038.973267,1080.648438 1044.368408,1075.070679 1051.747925,1075.007568 
	C1064.909912,1074.895020 1078.076416,1074.847168 1091.233643,1075.122192 
	C1093.052734,1075.160278 1095.595337,1076.765259 1096.494995,1078.375488 
	C1100.453857,1085.461060 1105.742188,1090.966675 1113.341309,1093.900635 
	C1116.954468,1095.295654 1116.340332,1098.188599 1115.799316,1100.530884 
	C1115.541870,1101.645386 1113.029297,1102.888672 1111.493774,1102.949463 
	C1103.458374,1103.267456 1095.601562,1103.380005 1089.387207,1109.911499 
	C1085.076660,1114.442139 1083.070557,1119.598633 1083.046143,1125.643188 
	C1082.987061,1140.305542 1082.911987,1154.969604 1083.102417,1169.629761 
	C1083.153687,1173.571289 1082.296753,1175.265259 1077.912231,1175.156372 
	C1066.422485,1174.870728 1054.919434,1174.947021 1043.425415,1175.125854 
	C1039.877686,1175.181030 1038.829224,1173.925293 1038.878906,1170.489624 
	C1039.042603,1159.161743 1038.939819,1147.830200 1038.939453,1136.000000 
z"/>
<path fill="#D9D9D9" opacity="1.000000" stroke="none" 
	d="
M1162.786377,1062.361084 
	C1161.207397,1060.375732 1159.842041,1058.640137 1158.775879,1056.736816 
	C1155.729370,1051.298218 1153.608521,1045.084351 1149.594116,1040.520874 
	C1145.946045,1036.373779 1145.331665,1032.398682 1146.309448,1027.782227 
	C1149.601929,1012.237854 1164.161499,1002.295654 1180.733643,1004.026001 
	C1195.463013,1005.564026 1206.357666,1018.925110 1207.195312,1034.363525 
	C1208.188477,1052.666626 1188.643311,1072.730103 1162.786377,1062.361084 
z"/>
<path fill="#D9D9D9" opacity="1.000000" stroke="none" 
	d="
M1050.314209,1019.515991 
	C1061.946411,1000.407532 1086.822876,999.078308 1099.610840,1013.439270 
	C1103.507080,1017.814697 1105.587646,1023.998291 1107.763794,1029.637817 
	C1108.950073,1032.712402 1107.390381,1035.366211 1104.800049,1038.265747 
	C1100.393799,1043.197998 1096.031860,1049.095215 1094.383179,1055.311401 
	C1092.655640,1061.825684 1089.058105,1063.875244 1083.636963,1064.857056 
	C1067.048340,1067.860718 1051.858032,1058.463501 1047.670776,1042.187622 
	C1045.723755,1034.619385 1046.524658,1026.982666 1050.314209,1019.515991 
z"/>
</svg>