<?xml version="1.0"?>
<svg width="2000" height="2000" xmlns="http://www.w3.org/2000/svg" xmlns:svg="http://www.w3.org/2000/svg" enable-background="new 0 0 2000 2000" version="1.1" xml:space="preserve">
 <g class="layer">
  <title>Layer 1</title>
  <path d="m1696.04,909.85c1,7.99 2.26,15.51 2.9,23.08c2.48,29.49 3.97,59.04 2.93,88.62c-0.6,17.36 -1.79,34.77 -3.94,52c-3.04,24.27 -6.48,48.55 -11.08,72.57c-6.28,32.8 -15.94,64.73 -27.37,96.14c-10.37,28.49 -22.67,56.1 -36.63,82.97c-18.18,35 -39.03,68.39 -63.3,99.48c-13.96,17.88 -28.89,35.05 -43.97,52.02c-10.83,12.18 -22.15,24 -34.08,35.09c-35.46,32.93 -73.59,62.39 -115.02,87.58c-39.34,23.91 -80.47,43.91 -123.65,59.84c-35.91,13.24 -72.65,23.46 -110.21,30.49c-20.79,3.89 -41.83,6.6 -62.84,9.08c-12.66,1.49 -25.48,1.71 -38.24,2.14c-15.78,0.54 -31.6,1.38 -47.37,0.88c-18.69,-0.59 -37.36,-2.25 -56.01,-3.82c-37.23,-3.12 -73.75,-10.37 -109.81,-19.99c-30.85,-8.22 -60.97,-18.6 -90.4,-31.02c-45.97,-19.4 -89.4,-43.43 -130.06,-72.26c-18.23,-12.92 -35.9,-26.79 -52.77,-41.44c-18.8,-16.35 -37.07,-33.43 -54.35,-51.36c-22.11,-22.93 -42.2,-47.66 -60.66,-73.68c-23.9,-33.7 -44.95,-69.08 -62.65,-106.41c-17.04,-35.95 -31.6,-72.9 -41.38,-111.49c-6.75,-26.62 -12.54,-53.53 -17.71,-80.51c-2.89,-15.07 -3.69,-30.53 -5.37,-45.83c-2.96,-26.8 -3.67,-53.72 -2.85,-80.62c0.56,-18.53 2.34,-37.02 3.84,-55.51c2.35,-28.93 7.52,-57.42 14,-85.67c8.3,-36.16 19.34,-71.49 33.44,-105.79c12.9,-31.4 27.9,-61.78 45.23,-91.04c15.51,-26.19 32.37,-51.44 51.13,-75.34c12.07,-15.37 25.16,-29.98 38.29,-44.48c10.72,-11.83 21.76,-23.44 33.4,-34.36c23.1,-21.7 47.41,-42.01 73.26,-60.39c33.39,-23.75 68.42,-44.73 105.41,-62.39c36.66,-17.5 74.35,-32.43 113.76,-42.41c26.62,-6.74 53.53,-12.53 80.51,-17.69c15.07,-2.89 30.54,-3.63 45.83,-5.34c26.47,-2.97 53.06,-3.64 79.63,-2.84c18.69,0.56 37.36,2.27 56.01,3.84c37.23,3.13 73.75,10.37 109.81,19.99c30.85,8.24 60.97,18.62 90.4,31.04c45.96,19.4 89.39,43.44 130.06,72.26c18.23,12.92 35.89,26.8 52.75,41.46c18.81,16.34 37.07,33.42 54.36,51.36c22.09,22.93 42.19,47.66 60.64,73.68c23.91,33.7 44.96,69.08 62.65,106.42c17.04,35.94 31.6,72.89 41.37,111.48c6.75,26.63 12.09,53.62 17.85,80.5c1.21,5.64 1.51,11.47 2.26,17.67m-1175.22,531.83c2.84,3.04 5.65,6.11 8.52,9.12c52.61,55.09 112.77,100.08 181.02,133.93c99.01,49.11 203.89,71.33 314.37,67.49c61.79,-2.15 122.09,-12.57 180.73,-32.09c128.95,-42.95 234.58,-118.97 316.25,-227.29c92.58,-122.79 135.22,-261.86 130.46,-415.52c-1.91,-61.8 -12.55,-122.08 -32.02,-180.74c-40.72,-122.64 -111.79,-224.55 -212.67,-304.93c-125.66,-100.1 -269.57,-146.66 -430.12,-141.82c-61.8,1.87 -122.09,12.54 -180.74,32.01c-122.65,40.71 -224.55,111.77 -304.93,212.64c-100.12,125.64 -146.69,269.55 -141.86,430.1c1.86,61.81 12.64,122.06 31.97,180.75c29.17,88.58 75.56,167.09 139.02,236.35z" fill="#050440" id="svg_2"/>
  <path d="m520.57,1441.43c-63.21,-69.01 -109.6,-147.52 -138.77,-236.1c-19.33,-58.69 -30.11,-118.94 -31.97,-180.75c-4.83,-160.55 41.74,-304.46 141.86,-430.1c80.38,-100.87 182.28,-171.93 304.93,-212.64c58.65,-19.47 118.94,-30.14 180.74,-32.01c160.55,-4.84 304.46,41.72 430.12,141.82c100.88,80.38 171.95,182.29 212.67,304.93c19.47,58.66 30.11,118.94 32.02,180.74c4.76,153.66 -37.88,292.73 -130.46,415.52c-81.67,108.32 -187.3,184.34 -316.25,227.29c-58.64,19.52 -118.94,29.94 -180.73,32.09c-110.48,3.84 -215.36,-18.38 -314.37,-67.49c-68.25,-33.85 -128.41,-78.84 -181.02,-133.93c-2.87,-3.01 -5.68,-6.08 -8.77,-9.37m-120.28,-540.52c-1.19,8.57 -2.46,17.13 -3.55,25.72c-7.37,58.22 -6.01,116.3 3.55,174.15c10.62,64.18 30.93,125.21 61.51,182.66c60.55,113.76 147.89,200.81 262.54,259.64c113.2,58.08 233.33,77.79 359.42,61.08c64.04,-8.49 125.2,-26.85 183.03,-55.52c127.54,-63.24 222.58,-159.02 284.42,-287.3c37.4,-77.57 56.24,-159.78 58.56,-245.76c0.94,-35.02 -1.43,-69.87 -6.58,-104.55c-9.17,-61.69 -27.42,-120.55 -54.86,-176.53c-39.07,-79.69 -92.76,-147.96 -161.52,-204.03c-107.95,-88.01 -231.86,-133.91 -371.02,-138.21c-44.91,-1.38 -89.48,2.64 -133.56,11.59c-126.55,25.69 -234.47,85.46 -323.18,179c-84.87,89.49 -137.54,195.57 -158.76,318.06z" fill="#FE17AE" id="svg_3"/>
  <path d="m400.39,900.49c21.12,-122.07 73.79,-228.15 158.66,-317.64c88.71,-93.54 196.63,-153.31 323.18,-179c44.08,-8.95 88.65,-12.97 133.56,-11.59c139.16,4.3 263.07,50.2 371.02,138.21c68.76,56.07 122.45,124.34 161.52,204.03c27.44,55.98 45.69,114.84 54.86,176.53c5.15,34.68 7.52,69.53 6.58,104.55c-2.32,85.98 -21.16,168.19 -58.56,245.76c-61.84,128.28 -156.88,224.06 -284.42,287.3c-57.83,28.67 -118.99,47.03 -183.03,55.52c-126.09,16.71 -246.22,-3 -359.42,-61.08c-114.65,-58.83 -201.99,-145.88 -262.54,-259.64c-30.58,-57.45 -50.89,-118.48 -61.51,-182.66c-9.56,-57.85 -10.92,-115.93 -3.55,-174.15c1.09,-8.59 2.36,-17.15 3.65,-26.14m736.01,649.49c8.96,-2.35 18.05,-4.31 26.86,-7.13c28.43,-9.12 56.65,-19.03 83.15,-32.82c22.95,-11.94 45.49,-24.82 67.37,-38.63c29.22,-18.44 55.63,-40.67 80.53,-64.6c22.02,-21.16 42.14,-44.05 60.28,-68.62c51.33,-69.52 85.69,-146.44 101.73,-231.56c5.05,-26.86 8.35,-53.86 9.25,-81.03c0.78,-23.33 -0.7,-46.76 -1.65,-70.12c-0.46,-11.35 -1.44,-22.74 -3.17,-33.96c-3.99,-25.79 -9.29,-51.28 -16.5,-76.44c-8.86,-30.95 -20.28,-60.84 -34.21,-89.76c-15.14,-31.42 -32.75,-61.46 -54.13,-89.08c-12.76,-16.5 -25.76,-32.88 -39.74,-48.34c-11.9,-13.16 -25.14,-25.16 -38.18,-37.26c-9.41,-8.73 -19.16,-17.16 -29.29,-25.05c-20.73,-16.13 -42.02,-31.53 -65.35,-43.73c-22.07,-11.55 -44.09,-23.38 -66.89,-33.33c-30.1,-13.13 -61.57,-22.55 -93.68,-29.63c-32.01,-7.06 -64.42,-11.72 -97.16,-12.52c-23.69,-0.57 -47.48,0.3 -71.13,1.83c-18.51,1.19 -37,3.76 -55.32,6.81c-46.09,7.68 -90.31,21.82 -132.71,41.3c-29.94,13.76 -58.76,29.71 -85.74,48.73c-12.23,8.62 -24.3,17.51 -35.96,26.87c-9.76,7.84 -19.19,16.18 -28.1,24.97c-15.42,15.21 -30.87,30.45 -45.26,46.61c-11.27,12.65 -21.7,26.23 -31.17,40.28c-13.36,19.82 -26.14,40.08 -37.93,60.86c-8.61,15.17 -15.88,31.21 -22.54,47.37c-7.6,18.43 -14.96,37.09 -20.42,56.23c-6.4,22.43 -11.68,45.29 -15.51,68.29c-3.81,22.86 -6.19,46.07 -7.43,69.23c-1.55,28.95 -1.39,58 2.58,86.86c2.06,14.91 2.99,30.09 6.45,44.67c6.22,26.24 12.32,52.72 21.36,78.07c53.64,150.28 153,259.78 296.85,328.64c52.29,25.04 107.59,40.44 165.09,47.83c12.88,1.66 25.81,3.71 38.76,4.01c31.35,0.72 62.72,0.94 93.98,-2.65c24.98,-2.87 49.71,-6.98 74.93,-13.2z" fill="#060441" id="svg_4"/>
  <path d="m1135.98,1550.04c-24.8,6.16 -49.53,10.27 -74.51,13.14c-31.26,3.59 -62.63,3.37 -93.98,2.65c-12.95,-0.3 -25.88,-2.35 -38.76,-4.01c-57.5,-7.39 -112.8,-22.79 -165.09,-47.83c-143.85,-68.86 -243.21,-178.36 -296.85,-328.64c-9.04,-25.35 -15.14,-51.83 -21.36,-78.07c-3.46,-14.58 -4.39,-29.76 -6.45,-44.67c-3.97,-28.86 -4.13,-57.91 -2.58,-86.86c1.24,-23.16 3.62,-46.37 7.43,-69.23c3.83,-23 9.11,-45.86 15.51,-68.29c5.46,-19.14 12.82,-37.8 20.42,-56.23c6.66,-16.16 13.93,-32.2 22.54,-47.37c11.79,-20.78 24.57,-41.04 37.93,-60.86c9.47,-14.05 19.9,-27.63 31.17,-40.28c14.39,-16.16 29.84,-31.4 45.26,-46.61c8.91,-8.79 18.34,-17.13 28.1,-24.97c11.66,-9.36 23.73,-18.25 35.96,-26.87c26.98,-19.02 55.8,-34.97 85.74,-48.73c42.4,-19.48 86.62,-33.62 132.71,-41.3c18.32,-3.05 36.81,-5.62 55.32,-6.81c23.65,-1.53 47.44,-2.4 71.13,-1.83c32.74,0.8 65.15,5.46 97.16,12.52c32.11,7.08 63.58,16.5 93.68,29.63c22.8,9.95 44.82,21.78 66.89,33.33c23.33,12.2 44.62,27.6 65.35,43.73c10.13,7.89 19.88,16.32 29.29,25.05c13.04,12.1 26.28,24.1 38.18,37.26c13.98,15.46 26.98,31.84 39.74,48.34c21.38,27.62 38.99,57.66 54.13,89.08c13.93,28.92 25.35,58.81 34.21,89.76c7.21,25.16 12.51,50.65 16.5,76.44c1.73,11.22 2.71,22.61 3.17,33.96c0.95,23.36 2.43,46.79 1.65,70.12c-0.9,27.17 -4.2,54.17 -9.25,81.03c-16.04,85.12 -50.4,162.04 -101.73,231.56c-18.14,24.57 -38.26,47.46 -60.28,68.62c-24.9,23.93 -51.31,46.16 -80.53,64.6c-21.88,13.81 -44.42,26.69 -67.37,38.63c-26.5,13.79 -54.72,23.7 -83.15,32.82c-8.81,2.82 -17.9,4.78 -27.28,7.19m221.64,-122.07c14.99,-14.31 30.24,-28.37 44.89,-43.02c9.12,-9.13 17.63,-18.9 25.87,-28.84c9.24,-11.14 18.49,-22.35 26.6,-34.3c11.95,-17.62 23.65,-35.49 34.03,-54.05c9.66,-17.24 18.19,-35.22 25.89,-53.44c10.08,-23.82 19,-48.12 24.23,-73.62c3.17,-15.43 8.05,-30.55 10.37,-46.08c3.35,-22.34 6.01,-44.87 7.21,-67.42c1.03,-19.49 -0.1,-39.12 -0.82,-58.66c-0.49,-13.45 -0.86,-27.05 -3.17,-40.26c-4.42,-25.36 -9.25,-50.73 -15.59,-75.67c-11.84,-46.57 -31.26,-90.19 -55.3,-131.7c-21.05,-36.33 -46.27,-69.67 -74.99,-100.29c-9.76,-10.4 -20.2,-20.2 -30.71,-29.85c-10.19,-9.35 -20.52,-18.61 -31.41,-27.12c-21.65,-16.91 -43.89,-33.09 -68.36,-45.76c-21.75,-11.26 -43.44,-22.84 -65.96,-32.38c-30.27,-12.82 -61.8,-22.1 -94.08,-28.91c-24.55,-5.17 -49.3,-8.53 -74.23,-10.59c-12.02,-1 -24.15,-0.77 -36.22,-0.99c-27.16,-0.48 -54.15,0.72 -81.12,4.66c-29.4,4.29 -58.41,9.99 -86.54,19.38c-21.87,7.3 -43.51,15.4 -64.78,24.28c-23.94,9.99 -46.75,22.45 -68.61,36.42c-36.4,23.25 -70.39,49.61 -100.27,80.95c-11.67,12.25 -23.36,24.54 -34.09,37.6c-16.58,20.17 -31.69,41.46 -45.28,63.82c-19.38,31.89 -35.5,65.32 -48.14,100.4c-13.74,38.14 -23.61,77.25 -28.04,117.58c-2.21,20.17 -3.73,40.44 -4.84,60.7c-0.58,10.57 0.07,21.25 0.76,31.84c1.09,16.64 2.29,33.28 4.13,49.84c2.84,25.61 8.16,50.76 14.98,75.61c12.91,47.03 31.65,91.65 56.34,133.65c32.76,55.75 74.02,104.42 123.6,146c48.11,40.35 101.53,71.67 160.19,94c28.69,10.91 58.05,19.72 88.3,25.19c15.06,2.73 30.2,5.27 45.4,6.98c16.89,1.9 33.88,3.16 50.85,3.92c10.93,0.5 21.94,0 32.87,-0.78c19.59,-1.39 39.3,-2.3 58.67,-5.31c22.61,-3.51 45.12,-8.27 67.31,-13.9c31.75,-8.07 62.41,-19.64 91.77,-34.13c19.6,-9.67 38.35,-21.07 57.93,-31.85c0.29,-0.14 0.53,-0.34 1.39,-0.9c6.39,-4.31 12.77,-8.63 19.61,-13.1c0.29,-0.14 0.53,-0.34 1.36,-0.87c1.73,-1.32 3.46,-2.65 5.64,-4.12c0.29,-0.14 0.53,-0.33 1.38,-0.86c9.76,-7.68 19.52,-15.37 29.7,-23.19c0.26,-0.14 0.48,-0.33 1.28,-0.86z" fill="#F9F9FA" id="svg_5"/>
  <path d="m1324.81,1453.02c-1.73,1.33 -3.46,2.66 -5.78,4.04c-0.8,0.36 -1.01,0.66 -1.22,0.96c-6.39,4.32 -12.77,8.64 -19.77,13.03c-0.81,0.37 -1.02,0.67 -1.23,0.97c-19.13,10.63 -37.88,22.03 -57.48,31.7c-29.36,14.49 -60.02,26.06 -91.77,34.13c-22.19,5.63 -44.7,10.39 -67.31,13.9c-19.37,3.01 -39.08,3.92 -58.67,5.31c-10.93,0.78 -21.94,1.28 -32.87,0.78c-16.97,-0.76 -33.96,-2.02 -50.85,-3.92c-15.2,-1.71 -30.34,-4.25 -45.4,-6.98c-30.25,-5.47 -59.61,-14.28 -88.3,-25.19c-58.66,-22.33 -112.08,-53.65 -160.19,-94c-49.58,-41.58 -90.84,-90.25 -123.6,-146c-24.69,-42 -43.43,-86.62 -56.34,-133.65c-6.82,-24.85 -12.14,-50 -14.98,-75.61c-1.84,-16.56 -3.04,-33.2 -4.13,-49.84c-0.69,-10.59 -1.34,-21.27 -0.76,-31.84c1.11,-20.26 2.63,-40.53 4.84,-60.7c4.43,-40.33 14.3,-79.44 28.04,-117.58c12.64,-35.08 28.76,-68.51 48.14,-100.4c13.59,-22.36 28.7,-43.65 45.28,-63.82c10.73,-13.06 22.42,-25.35 34.09,-37.6c29.88,-31.34 63.87,-57.7 100.27,-80.95c21.86,-13.97 44.67,-26.43 68.61,-36.42c21.27,-8.88 42.91,-16.98 64.78,-24.28c28.13,-9.39 57.14,-15.09 86.54,-19.38c26.97,-3.94 53.96,-5.14 81.12,-4.66c12.07,0.22 24.2,-0.01 36.22,0.99c24.93,2.06 49.68,5.42 74.23,10.59c32.28,6.81 63.81,16.09 94.08,28.91c22.52,9.54 44.21,21.12 65.96,32.38c24.47,12.67 46.71,28.85 68.36,45.76c10.89,8.51 21.22,17.77 31.41,27.12c10.51,9.65 20.95,19.45 30.71,29.85c28.72,30.62 53.94,63.96 74.99,100.29c24.04,41.51 43.46,85.13 55.3,131.7c6.34,24.94 11.17,50.31 15.59,75.67c2.31,13.21 2.68,26.81 3.17,40.26c0.72,19.54 1.85,39.17 0.82,58.66c-1.2,22.55 -3.86,45.08 -7.21,67.42c-2.32,15.53 -7.2,30.65 -10.37,46.08c-5.23,25.5 -14.15,49.8 -24.23,73.62c-7.7,18.22 -16.23,36.2 -25.89,53.44c-10.38,18.56 -22.08,36.43 -34.03,54.05c-8.11,11.95 -17.36,23.16 -26.6,34.3c-8.24,9.94 -16.75,19.71 -25.87,28.84c-14.65,14.65 -29.9,28.71 -45.47,43.08c-0.76,0.36 -0.94,0.65 -1.12,0.94c-9.76,7.68 -19.52,15.37 -29.88,23.1c-0.81,0.35 -1.02,0.65 -1.23,0.95m-22.91,-94.79c-10.32,-4.98 -20.61,-10.03 -31,-14.86c-1.57,-0.73 -4.19,-1.32 -5.31,-0.54c-4.15,2.92 -7.88,6.44 -12.23,10.13c1.88,0.88 3.19,1.52 4.51,2.11c14.85,6.65 29.79,13.11 44.49,20.09c4.02,1.91 7.74,4.98 10.82,8.26c6.19,6.58 11.85,13.67 17.81,20.65c4.59,-3.98 8.68,-7.53 12.87,-11.17c-1.89,-2.2 -3.41,-3.96 -4.91,-5.73c-9.25,-10.98 -20.24,-20.93 -21.56,-36.58c-0.06,-0.65 -0.27,-1.3 -0.44,-1.94c-3.49,-13.26 -6.99,-26.52 -10.67,-40.49c-4.1,3.43 -7.84,6.19 -11.06,9.46c-1.15,1.16 -1.82,3.76 -1.39,5.35c3.06,11.56 6.47,23.04 9.24,34.98c-0.16,0.16 -0.32,0.33 -1.17,0.28m-156.55,114.61c-14.08,-16.22 -28.14,-32.45 -42.3,-48.6c-1.04,-1.19 -2.97,-2.69 -4.16,-2.45c-6.1,1.28 -12.08,3.07 -18.44,4.77c7.78,28.9 15.4,57.23 23.12,85.89c5.41,-1.43 10.34,-2.74 15.72,-4.17c-5.3,-19.84 -10.52,-39.37 -15.74,-58.91c2.27,1.09 3.6,2.54 4.89,4.02c12.72,14.52 25.4,29.07 38.19,43.54c1.09,1.25 3.02,3 4.18,2.75c6.24,-1.35 12.36,-3.26 18.73,-5.03c-7.78,-28.92 -15.41,-57.25 -23.12,-85.9c-5.52,1.53 -10.55,2.94 -15.72,4.38c5.04,18.7 9.95,36.82 14.78,54.95c0.43,1.6 0.31,3.35 0.49,4.96c0,0 0.05,-0.06 -0.62,-0.2m-306.52,-901.46c-15.72,-13.86 -31.42,-27.75 -47.21,-41.53c-1.18,-1.04 -3.3,-2.29 -4.43,-1.89c-5.9,2.07 -11.62,4.64 -17.67,7.16c11.51,27.64 22.83,54.8 34.23,82.19c5.23,-2.19 9.92,-4.16 15.03,-6.3c-7.84,-18.9 -15.54,-37.46 -23.24,-56.02c1.98,0.35 3.12,1.22 4.19,2.16c15.02,13.15 30.01,26.32 45.08,39.41c1.09,0.95 3.02,2.13 4.04,1.76c6.02,-2.18 11.88,-4.79 17.99,-7.34c-11.55,-27.7 -22.86,-54.86 -34.24,-82.17c-5.25,2.22 -9.95,4.2 -14.94,6.31c7.69,18.72 15.24,37.09 22.24,56.04c-0.17,0.2 -0.34,0.41 -1.07,0.22m17.08,872.35c0.18,0.23 0.36,0.46 0.38,1.41c-6.4,16.84 -12.81,33.68 -19.29,50.72c5.03,1.91 9.62,3.65 14.48,5.5c10.71,-27.94 21.24,-55.44 31.87,-83.18c-7.31,-2.78 -14.08,-5.36 -20.87,-7.94c-12.12,16.19 -23.98,32.02 -35.84,47.86c-0.29,-0.17 -0.59,-0.34 -0.88,-0.51c1.78,-19.71 3.56,-39.42 5.37,-59.39c-6.94,-2.66 -13.7,-5.26 -20.84,-8c-10.68,27.86 -21.23,55.39 -31.89,83.21c5.11,1.93 9.68,3.65 14.51,5.48c6.89,-17.93 13.64,-35.46 20.38,-53c0.38,0.09 0.75,0.18 1.13,0.27c-0.96,16.47 -1.91,32.94 -2.87,49.37c4.9,1.84 9.37,3.53 13.9,5.23c10.11,-12.74 20.04,-25.25 30.46,-37.03m484.3,-245.98c49.83,-87.19 64.86,-180.24 44.32,-278.33c-18.86,-90.01 -64.66,-164.67 -136.21,-222.37c-91.85,-74.07 -197.08,-101.37 -313.41,-82.52c-82.61,13.39 -154.03,50.62 -212.26,110.75c-92.56,95.58 -128.78,210.24 -108.08,341.5c14,88.82 55.71,164.22 122.8,224.04c99.14,88.4 215.33,120.28 345.24,93.42c112.61,-23.28 197.79,-87.5 257.6,-186.49m-405.27,283.62c-0.76,1.46 -1.53,2.92 -2.68,5.13c-2.86,-20.77 -5.58,-40.5 -8.32,-60.39c-7.45,-1.06 -14.63,-2.08 -22.07,-3.14c-4.13,29.47 -8.21,58.57 -12.36,88.17c5.29,0.75 10.13,1.44 15.3,2.17c2.77,-19.55 5.48,-38.65 8.19,-57.74c0.26,0.02 0.51,0.04 0.77,0.06c2.8,16.67 5.6,33.35 8.42,50.1c5.04,0.73 9.77,1.42 14.81,2.14c7.12,-15.13 14.21,-30.17 21.29,-45.2c0.4,0.13 0.81,0.26 1.21,0.39c-2.6,18.82 -5.2,37.65 -7.85,56.79c5.34,0.76 10.18,1.46 15.3,2.19c4.14,-29.51 8.22,-58.6 12.36,-88.16c-7.59,-1.08 -14.76,-2.09 -22.08,-3.13c-7.43,16.82 -14.74,33.36 -22.29,50.62m-173.64,-837.55c14.68,-12.69 17.73,-26.53 8.58,-41.4c-5.31,-8.63 -11.03,-17.05 -17.12,-25.14c-9.52,-12.64 -23.16,-16.27 -37.15,-8.87c-11.35,6.01 -21.79,13.73 -32.81,20.81c17.07,25.06 33.7,49.47 50.41,74.01c9.44,-6.54 18.47,-12.78 28.09,-19.41m-156.79,56.04c-15.93,-4.96 -30.17,1.15 -38.45,16.52c-7.73,14.35 -4.91,29.91 8.01,39.69c8.86,6.7 18.16,12.94 27.78,18.5c14.96,8.65 31.38,4.21 41.47,-10.43c10.03,-14.56 8.83,-31.97 -4.3,-42.1c-10.59,-8.18 -22.44,-14.73 -34.51,-22.18m116.5,677.63c-3.68,5.74 -7.85,11.22 -10.88,17.28c-2.7,5.39 -5.38,11.3 -5.89,17.17c-1.28,14.58 8.59,27.2 23.84,32.31c13.64,4.58 26.9,0.01 35.67,-12.72c5.55,-8.07 10.77,-16.39 15.84,-24.77c4.58,-7.57 6.14,-15.89 3.6,-24.45c-4.06,-13.66 -14.19,-21.15 -27.48,-23.94c-12.63,-2.64 -22.75,2.59 -30.41,12.74c-1.39,1.85 -2.6,3.84 -4.29,6.38m614.96,-671.75c3.2,-1.74 6.94,-2.9 9.5,-5.32c8.93,-8.44 18.14,-16.75 25.96,-26.17c10.96,-13.2 8.53,-30.87 -4.66,-42.87c-13.2,-12.02 -30.32,-12.36 -43.15,-0.48c-7.32,6.78 -14.36,13.89 -21.13,21.21c-10.39,11.22 -12.06,25.26 -4.89,37.11c8.61,14.26 22.62,20.5 38.37,16.52m133.71,113.06c6.43,1.26 12.85,2.51 20.14,3.93c-1.47,-3.3 -2.94,-5.6 -3.53,-8.11c-2.15,-9.17 -7.77,-13.5 -17.15,-13.45c-2.79,0.02 -5.6,-0.74 -8.39,-1.2c-9.82,-1.64 -19.64,-3.3 -30.83,-5.18c14.04,-6.29 26.69,-11.96 39.62,-17.75c-2.47,-5.45 -4.69,-10.37 -7.02,-15.52c-27.31,12.17 -54.21,24.16 -81.34,36.26c2.5,5.56 4.73,10.49 7.33,16.25c12.03,-9.41 24.57,-9.21 37.83,-3.59c-7.57,10.39 -15.03,20.58 -22.41,30.83c-0.8,1.11 -1.93,2.89 -1.56,3.81c2.3,5.71 4.98,11.27 7.76,17.38c11.41,-15.71 22.3,-30.62 33.06,-45.63c1.68,-2.35 3.25,-3.16 6.17,-2.43c6.45,1.61 13,2.8 20.32,4.4m-304.74,-249.46c-4.22,9.33 -8.45,18.65 -12.78,28.21c18.4,8.3 36.34,16.39 54.52,24.59c2.28,-5.09 4.43,-9.86 6.73,-14.97c-13.15,-5.97 -25.9,-11.76 -38.88,-17.66c2.78,-6.14 5.36,-11.83 8.04,-17.73c11.04,4.96 21.75,9.76 32.77,14.71c2.32,-5.09 4.49,-9.86 6.79,-14.9c-11.02,-5.02 -21.81,-9.93 -32.78,-14.93c2.86,-6.32 5.51,-12.15 8.28,-18.26c13.22,5.93 26.01,11.66 38.96,17.47c2.37,-5.3 4.51,-10.06 6.73,-15c-18.47,-8.31 -36.4,-16.38 -54.02,-24.31c-0.7,0.61 -0.89,0.69 -0.95,0.83c-7.74,17.07 -15.47,34.15 -23.41,51.95m-469.99,131.11c15.17,-16.57 14.89,-31.8 -0.95,-47.6c-8.13,-8.11 -16.44,-16.05 -24.48,-24.26c-4.97,-5.08 -9.57,-10.51 -13.99,-15.4c-5.23,4.91 -9.18,8.61 -12,11.26c12.41,13.09 24.73,25.94 36.83,38.98c2.89,3.11 5.89,6.54 7.39,10.38c2.33,6.01 -1.42,13 -8.01,17.18c-5.42,3.43 -11.52,3.27 -16.57,-1.36c-8.09,-7.43 -15.78,-15.29 -23.64,-22.96c-6.37,-6.22 -12.73,-12.45 -18.15,-17.74c-4.55,3.88 -8.69,7.4 -12.93,11.01c1.2,1.25 1.97,2.11 2.79,2.91c12.83,12.6 25.42,25.45 38.57,37.7c15.18,14.12 28.99,13.98 45.14,-0.1m347.77,802.2c-13.16,5.29 -24.35,-0.67 -24,-15.01c0.1,-4.13 -0.57,-8.28 -0.86,-12.43c-1,-14.04 -2,-28.08 -3.02,-42.53c-5.79,0.4 -11.19,0.77 -16.65,1.14c0,2.23 -0.11,4.05 0.02,5.85c1.23,17.41 2.53,34.82 3.75,52.23c1.25,17.83 11.61,28.26 29.45,29.56c20.93,1.52 35.89,-11.02 35.4,-31.2c-0.49,-20.22 -2.52,-40.4 -3.9,-60.88c-5.78,0.38 -11.18,0.74 -17,1.12c0.17,2.71 0.31,4.99 0.47,7.28c1.15,16.58 2.31,33.16 3.47,49.75c0.42,6.02 -1.1,11.2 -7.13,15.12m465.28,-605.42c0.91,-10.4 -1,-20.25 -6.25,-29.28c-6.52,-11.21 -17.37,-15.26 -30.48,-11.68c-12.11,3.3 -17.41,10.71 -17.44,24.42c0,2.67 0.1,5.33 0.17,8c0.11,4.32 0.46,8.65 0.28,12.95c-0.16,4 -2.27,6.87 -6.33,8c-3.87,1.09 -7.12,-0.27 -9.24,-3.3c-1.97,-2.8 -3.64,-6.01 -4.59,-9.28c-2.79,-9.57 -2.08,-19.07 2,-28.61c-5.27,-1.47 -10.29,-2.87 -15.61,-4.35c-6.94,17.26 -5.77,33.67 2.8,49.38c6.42,11.77 17.24,15.79 30.14,12.27c11.97,-3.26 17.5,-11.14 17.55,-25.05c0.03,-6.49 -0.28,-13 0.08,-19.48c0.36,-6.63 5.67,-11.16 10.88,-8.97c2.87,1.21 5.54,4.27 7.01,7.15c4.69,9.17 3.48,18.67 -0.05,28.52c5.25,1.22 10.34,2.4 16.09,3.73c1.04,-4.82 1.99,-9.16 2.99,-14.42m-561.46,-341.3c-12.6,-20.52 -25.41,-40.92 -37.68,-61.63c-2.98,-5.04 -6.32,-2.33 -9.75,-2.26c-3.44,0.06 -3.71,2.41 -4.18,5.03c-3.84,21.42 -7.8,42.82 -11.68,64.23c-1.49,8.25 -2.87,16.51 -4.39,25.23c6.45,-1.22 12.13,-2.3 17.81,-3.37c0.87,-5.18 1.69,-10.05 2.5,-14.84c3.63,-0.73 6.86,-1.42 10.12,-2.04c3.26,-0.62 6.55,-1.11 9.81,-1.76c11.31,-2.29 11.25,-2.27 17.41,7.61c0.79,1.27 2.71,2.83 3.92,2.68c5.2,-0.63 10.33,-1.85 15.86,-2.93c-3.31,-5.44 -6.33,-10.39 -9.75,-15.95m-260.27,822.29c-2.68,-2.42 -5.36,-4.84 -7.86,-7.1c-2.35,1.1 -4.24,2.18 -6.25,2.88c-6.17,2.15 -11.34,0.57 -15.56,-4.57c-4.1,-4.99 -5.18,-10.52 -1.01,-15.56c7.5,-9.06 15.68,-17.61 24.1,-25.83c3.86,-3.76 9.15,-3.63 13.94,-0.82c4.96,2.9 8.06,7.11 7.39,13.07c-0.35,3.21 -1.61,6.32 -2.55,9.82c3.86,3.56 7.98,7.35 13,11.99c2.24,-5.52 4.72,-10.22 6.07,-15.22c3.6,-13.38 -1.91,-25.77 -14.63,-34.18c-11.42,-7.55 -24.19,-7.75 -34.53,1.6c-10.07,9.09 -19.63,19.1 -27.72,29.96c-10.24,13.77 -6.2,30.3 8.39,41.57c12.36,9.53 31.21,8.03 41.74,-3.38c-1.33,-1.26 -2.67,-2.51 -4.52,-4.23m-167.73,-476.03c-4.62,-2.39 -7.51,-5.93 -7.69,-11.34c-0.29,-8.25 4.16,-13.39 12.77,-15.19c1.81,-0.37 4.44,-1.45 4.9,-2.81c1.57,-4.64 2.35,-9.56 3.49,-14.69c-2.91,0 -5.4,-0.19 -7.86,0.03c-18.47,1.62 -28.99,12.64 -30.56,31.88c-1.23,15.15 8.13,26.71 25.27,30.93c9.52,2.34 19.04,4.74 28.68,6.46c11.12,1.98 21.31,-0.17 28.81,-9.48c15.26,-18.93 7.43,-45.05 -16,-52.9c-1.06,4.34 -2.06,8.68 -3.21,12.98c-0.67,2.54 -0.24,4.12 2.25,5.67c7.13,4.46 9.2,10.36 6.65,17.38c-2.53,6.99 -7.97,10.38 -16.34,8.78c-10.26,-1.97 -20.34,-4.84 -31.16,-7.7m749.14,-336.05c-14.91,21.8 -29.82,43.59 -44.92,65.68c4.72,3.24 9.2,6.32 14.06,9.66c6.69,-9.75 13.23,-19.27 19.93,-29.01c9.81,6.68 19.23,13.09 28.78,19.59c3.2,-4.69 6.16,-9.04 9.25,-13.56c-9.81,-6.74 -19.25,-13.22 -28.73,-19.74c4.05,-5.87 7.88,-11.43 11.85,-17.18c11.6,7.9 22.82,15.54 34.28,23.35c3.21,-4.7 6.16,-9.02 9.27,-13.57c-16.28,-11.13 -32.15,-21.98 -48.3,-33.02c-1.87,2.63 -3.49,4.9 -5.47,7.8m-157.22,18.05c16.48,-26.08 32.97,-52.16 49.66,-78.58c-4.75,-1.2 -8.94,-2.08 -13.02,-3.33c-3.04,-0.94 -4.67,-0.14 -6.34,2.65c-8.86,14.82 -17.97,29.5 -27.02,44.21c-0.71,1.17 -1.59,2.23 -3.03,4.23c-1.4,-20.97 -2.74,-40.83 -4.09,-60.99c-5.5,-1.31 -10.9,-2.6 -17,-4.06c2.53,31.6 5,62.53 7.48,93.59c4.41,0.96 8.6,1.87 13.36,2.28m146.41,828.42c-6.19,-10.35 -12.38,-20.71 -18.68,-31.26c7.05,-4.23 13.71,-8.23 20.72,-12.44c-2.9,-4.84 -5.6,-9.34 -8.46,-14.11c-18.79,11.23 -37.39,22.34 -56.16,33.55c2.99,4.99 5.63,9.37 8.45,14.07c7.03,-4.16 13.83,-8.18 20.76,-12.28c12.49,20.92 24.75,41.44 37.22,62.34c5.03,-3.01 9.78,-5.87 14.67,-8.8c-6.26,-10.45 -12.24,-20.42 -18.52,-31.07m-302.87,-925.98c0.19,4.22 0.38,8.45 0.57,12.55c8.48,0 16.2,0 24.07,0c0.69,24.16 1.38,47.99 2.06,71.56c6.17,0 11.56,0 16.97,0c-0.67,-24.32 -1.32,-48.2 -1.99,-72.88c8.31,0 16.04,0 24.25,0c-0.28,-6.04 -0.51,-11.25 -0.76,-16.64c-21.3,0.6 -42.07,1.16 -62.82,1.88c-0.82,0.03 -1.57,1.68 -2.35,3.53m-400.52,350.3c13.98,6.02 27.96,12.05 42.22,18.19c7.91,-18.33 15.71,-36.4 23.68,-54.87c-5.09,-2.21 -9.91,-4.31 -15.07,-6.55c-5.69,13.13 -11.28,26 -16.99,39.19c-22.33,-9.62 -44.35,-19.1 -66.68,-28.72c-2.32,5.42 -4.5,10.48 -6.72,15.65c13.29,5.76 26.07,11.3 39.56,17.11m814.78,-89.76c-1.65,-2.48 -3.31,-4.96 -5.08,-7.62c19.86,-13.76 39.54,-27.38 59.6,-41.27c-3.28,-4.76 -6.42,-9.32 -9.68,-14.08c-24.73,17.11 -48.9,33.84 -73.31,50.74c11.46,16.55 22.68,32.75 34.05,49.18c4.69,-3.26 9.02,-6.27 13.51,-9.39c-6.36,-9.22 -12.5,-18.1 -19.09,-27.56m-163.09,701.08c-7.89,-18.23 -15.78,-36.45 -23.81,-55.02c-5.68,2.5 -10.89,4.79 -16.2,7.13c11.94,27.51 23.62,54.44 35.44,81.68c5.52,-2.42 10.77,-4.73 16.18,-7.11c-3.89,-8.99 -7.58,-17.49 -11.61,-26.68m-161.1,-964.04c-0.29,1.28 -0.73,2.56 -0.86,3.86c-1.71,16.86 -3.39,33.73 -5.04,50.6c-1.09,11.06 -2.11,22.12 -3.19,33.51c5.89,0.61 11.46,1.19 17.49,1.81c2.94,-29.66 5.86,-59.01 8.8,-88.71c-5.84,-0.5 -11.1,-0.96 -17.2,-1.07z" fill="#060541" id="svg_6"/>
  <path d="m1297.04,1471.95c-0.02,-0.23 0.19,-0.53 0.67,-0.76c0.08,0.34 -0.16,0.54 -0.67,0.76z" fill="#F8F8F9" id="svg_7"/>
  <path d="m1318.04,1457.95c-0.02,-0.23 0.19,-0.53 0.67,-0.76c0.08,0.34 -0.16,0.54 -0.67,0.76z" fill="#F8F8F9" id="svg_8"/>
  <path d="m1325.04,1452.95c-0.02,-0.23 0.19,-0.53 0.67,-0.74c0.08,0.34 -0.16,0.53 -0.67,0.74z" fill="#F8F8F9" id="svg_9"/>
  <path d="m1356.13,1428.9c-0.03,-0.22 0.15,-0.51 0.59,-0.73c0.1,0.33 -0.12,0.52 -0.59,0.73z" fill="#F8F8F9" id="svg_10"/>
  <path d="m1340.04,1198.08c-59.64,98.66 -144.82,162.88 -257.43,186.16c-129.91,26.86 -246.1,-5.02 -345.24,-93.42c-67.09,-59.82 -108.8,-135.22 -122.8,-224.04c-20.7,-131.26 15.52,-245.92 108.08,-341.5c58.23,-60.13 129.65,-97.36 212.26,-110.75c116.33,-18.85 221.56,8.45 313.41,82.52c71.55,57.7 117.35,132.36 136.21,222.37c20.54,98.09 5.51,191.14 -44.49,278.66m-12.95,-398.62c-17.13,-27.57 -37.09,-52.9 -60.89,-74.99c-93.19,-86.52 -202.91,-121.04 -328.54,-101.4c-85.04,13.29 -157.5,52.56 -215.81,115.67c-83.56,90.44 -117,197.66 -99.78,319.64c11.67,82.7 48.69,153.44 107.16,212.86c31.21,31.72 67.09,57.11 107.36,76.12c73.89,34.9 151.28,45.4 231.61,31.13c81.98,-14.56 152.24,-52.17 209.51,-112.61c73.57,-77.65 109.16,-170.39 106.38,-277.46c-1.77,-67.84 -21.23,-130.53 -57,-188.96z" fill="#F7F7F9" id="svg_11"/>
  <path d="m855.41,1443.01c-9.92,12.5 -19.85,25.01 -29.96,37.75c-4.53,-1.7 -9,-3.39 -13.9,-5.23c0.96,-16.43 1.91,-32.9 2.87,-49.37c-0.38,-0.09 -0.75,-0.18 -1.13,-0.27c-6.74,17.54 -13.49,35.07 -20.38,53c-4.83,-1.83 -9.4,-3.55 -14.51,-5.48c10.66,-27.82 21.21,-55.35 31.89,-83.21c7.14,2.74 13.9,5.34 20.84,8c-1.81,19.97 -3.59,39.68 -5.37,59.39c0.29,0.17 0.59,0.34 0.88,0.51c11.86,-15.84 23.72,-31.67 35.84,-47.86c6.79,2.58 13.56,5.16 20.87,7.94c-10.63,27.74 -21.16,55.24 -31.87,83.18c-4.86,-1.85 -9.45,-3.59 -14.48,-5.5c6.48,-17.04 12.89,-33.88 19.59,-51.36c0.25,-1.33 0.19,-2.02 0.13,-2.72c-0.44,0.41 -0.87,0.82 -1.31,1.23z" fill="#FAFAFC" id="svg_12"/>
  <path d="m935.06,1481.01c7.43,-16.9 14.74,-33.44 22.17,-50.26c7.32,1.04 14.49,2.05 22.08,3.13c-4.14,29.56 -8.22,58.65 -12.36,88.16c-5.12,-0.73 -9.96,-1.43 -15.3,-2.19c2.65,-19.14 5.25,-37.97 7.85,-56.79c-0.4,-0.13 -0.81,-0.26 -1.21,-0.39c-7.08,15.03 -14.17,30.07 -21.29,45.2c-5.04,-0.72 -9.77,-1.41 -14.81,-2.14c-2.82,-16.75 -5.62,-33.43 -8.42,-50.1c-0.26,-0.02 -0.51,-0.04 -0.77,-0.06c-2.71,19.09 -5.42,38.19 -8.19,57.74c-5.17,-0.73 -10.01,-1.42 -15.3,-2.17c4.15,-29.6 8.23,-58.7 12.36,-88.17c7.44,1.06 14.62,2.08 22.07,3.14c2.74,19.89 5.46,39.62 8.32,60.39c1.15,-2.21 1.92,-3.67 2.8,-5.49m24.12,-20.2c0.14,0.24 0.28,0.49 0.42,0.73c-0.03,-0.37 -0.06,-0.74 -0.42,-0.73z" fill="#FAFAFB" id="svg_13"/>
  <path d="m840.44,570.58c-7.54,-18.37 -15.09,-36.74 -22.78,-55.46c4.99,-2.11 9.69,-4.09 14.94,-6.31c11.38,27.31 22.69,54.47 34.24,82.17c-6.11,2.55 -11.97,5.16 -17.99,7.34c-1.02,0.37 -2.95,-0.81 -4.04,-1.76c-15.07,-13.09 -30.06,-26.26 -45.08,-39.41c-1.07,-0.94 -2.21,-1.81 -4.19,-2.16c7.7,18.56 15.4,37.12 23.24,56.02c-5.11,2.14 -9.8,4.11 -15.03,6.3c-11.4,-27.39 -22.72,-54.55 -34.23,-82.19c6.05,-2.52 11.77,-5.09 17.67,-7.16c1.13,-0.4 3.25,0.85 4.43,1.89c15.79,13.78 31.49,27.67 47.68,41.96c0.83,0.56 1.21,0.69 1.58,0.81c-0.15,-0.68 -0.29,-1.36 -0.44,-2.04z" fill="#FBFBFC" id="svg_14"/>
  <path d="m1145.93,1473.11c-0.14,-1.68 -0.02,-3.43 -0.45,-5.03c-4.83,-18.13 -9.74,-36.25 -14.78,-54.95c5.17,-1.44 10.2,-2.85 15.72,-4.38c7.71,28.65 15.34,56.98 23.12,85.9c-6.37,1.77 -12.49,3.68 -18.73,5.03c-1.16,0.25 -3.09,-1.5 -4.18,-2.75c-12.79,-14.47 -25.47,-29.02 -38.19,-43.54c-1.29,-1.48 -2.62,-2.93 -4.89,-4.02c5.22,19.54 10.44,39.07 15.74,58.91c-5.38,1.43 -10.31,2.74 -15.72,4.17c-7.72,-28.66 -15.34,-56.99 -23.12,-85.89c6.36,-1.7 12.34,-3.49 18.44,-4.77c1.19,-0.24 3.12,1.26 4.16,2.45c14.16,16.15 28.22,32.38 42.67,48.96c0.59,0.32 0.81,0.28 1.03,0.24c-0.03,-0.13 -0.06,-0.39 -0.1,-0.39c-0.24,-0.01 -0.48,0.03 -0.72,0.06z" fill="#FBFBFC" id="svg_15"/>
  <path d="m761,644.01c-9.32,6.44 -18.35,12.68 -27.79,19.22c-16.71,-24.54 -33.34,-48.95 -50.41,-74.01c11.02,-7.08 21.46,-14.8 32.81,-20.81c13.99,-7.4 27.63,-3.77 37.15,8.87c6.09,8.09 11.81,16.51 17.12,25.14c9.15,14.87 6.1,28.71 -8.88,41.59m-16.59,-47.89c-2,-2.85 -3.85,-5.83 -6.04,-8.53c-4.15,-5.15 -9.73,-7.04 -15.52,-4.28c-5.73,2.72 -10.94,6.52 -16.61,9.98c10.92,16.01 21.33,31.28 31.8,46.63c4.17,-2.87 7.73,-5.3 11.28,-7.76c0.81,-0.57 1.58,-1.21 2.33,-1.87c6.21,-5.51 7.31,-12.18 2.93,-19.14c-3.1,-4.91 -6.48,-9.64 -10.17,-15.03z" fill="#FBFBFC" id="svg_16"/>
  <path d="m604.9,699.95c11.68,7.36 23.53,13.91 34.12,22.09c13.13,10.13 14.33,27.54 4.3,42.1c-10.09,14.64 -26.51,19.08 -41.47,10.43c-9.62,-5.56 -18.92,-11.8 -27.78,-18.5c-12.92,-9.78 -15.74,-25.34 -8.01,-39.69c8.28,-15.37 22.52,-21.48 38.84,-16.43m-23.13,23.52c-4.18,8.09 -2.71,14.74 4.71,19.87c7.23,5.01 14.55,9.9 21.97,14.63c8.23,5.26 16.17,3.65 21.2,-4.03c4.82,-7.36 3.05,-15.38 -4.74,-20.72c-6.98,-4.79 -14.03,-9.48 -21.14,-14.09c-8.66,-5.62 -15.17,-4.46 -22,4.34z" fill="#FBFBFC" id="svg_17"/>
  <path d="m721.2,1377.19c1.5,-2.24 2.71,-4.23 4.1,-6.08c7.66,-10.15 17.78,-15.38 30.41,-12.74c13.29,2.79 23.42,10.28 27.48,23.94c2.54,8.56 0.98,16.88 -3.6,24.45c-5.07,8.38 -10.29,16.7 -15.84,24.77c-8.77,12.73 -22.03,17.3 -35.67,12.72c-15.25,-5.11 -25.12,-17.73 -23.84,-32.31c0.51,-5.87 3.19,-11.78 5.89,-17.17c3.03,-6.06 7.2,-11.54 11.07,-17.58m45.2,10.9c-1.47,-7.54 -6.63,-11.43 -13.65,-12.66c-6.27,-1.1 -10.8,2.39 -14.1,7.44c-4.72,7.22 -9.4,14.47 -13.96,21.8c-5.13,8.26 -3.47,16.29 4.2,21.17c7.61,4.86 15.59,2.9 20.97,-5.28c4.55,-6.94 9.21,-13.83 13.3,-21.04c1.8,-3.18 2.31,-7.09 3.24,-11.43z" fill="#FBFBFC" id="svg_18"/>
  <path d="m1335.58,705.84c-15.36,3.88 -29.37,-2.36 -37.98,-16.62c-7.17,-11.85 -5.5,-25.89 4.89,-37.11c6.77,-7.32 13.81,-14.43 21.13,-21.21c12.83,-11.88 29.95,-11.54 43.15,0.48c13.19,12 15.62,29.67 4.66,42.87c-7.82,9.42 -17.03,17.73 -25.96,26.17c-2.56,2.42 -6.3,3.58 -9.89,5.42m-21.36,-22.7c6.73,7.33 14.46,8.75 20.93,2.92c7.64,-6.89 14.92,-14.23 21.8,-21.88c5.61,-6.23 4.6,-14.1 -1.61,-19.98c-5.89,-5.58 -13.64,-5.95 -19.68,-0.3c-7.03,6.58 -13.82,13.44 -20.38,20.5c-5.43,5.83 -5.61,11.17 -1.06,18.74z" fill="#FBFBFC" id="svg_19"/>
  <path d="m1469.27,818.68c-6.91,-1.48 -13.46,-2.67 -19.91,-4.28c-2.92,-0.73 -4.49,0.08 -6.17,2.43c-10.76,15.01 -21.65,29.92 -33.06,45.63c-2.78,-6.11 -5.46,-11.67 -7.76,-17.38c-0.37,-0.92 0.76,-2.7 1.56,-3.81c7.38,-10.25 14.84,-20.44 22.41,-30.83c-13.26,-5.62 -25.8,-5.82 -37.83,3.59c-2.6,-5.76 -4.83,-10.69 -7.33,-16.25c27.13,-12.1 54.03,-24.09 81.34,-36.26c2.33,5.15 4.55,10.07 7.02,15.52c-12.93,5.79 -25.58,11.46 -39.62,17.75c11.19,1.88 21.01,3.54 30.83,5.18c2.79,0.46 5.6,1.22 8.39,1.2c9.38,-0.05 15,4.28 17.15,13.45c0.59,2.51 2.06,4.81 3.53,8.11c-7.29,-1.42 -13.71,-2.67 -20.55,-4.05z" fill="#FBFBFC" id="svg_20"/>
  <path d="m1165.05,568.98c7.83,-17.44 15.56,-34.52 23.3,-51.59c0.06,-0.14 0.25,-0.22 0.95,-0.83c17.62,7.93 35.55,16 54.02,24.31c-2.22,4.94 -4.36,9.7 -6.73,15c-12.95,-5.81 -25.74,-11.54 -38.96,-17.47c-2.77,6.11 -5.42,11.94 -8.28,18.26c10.97,5 21.76,9.91 32.78,14.93c-2.3,5.04 -4.47,9.81 -6.79,14.9c-11.02,-4.95 -21.73,-9.75 -32.77,-14.71c-2.68,5.9 -5.26,11.59 -8.04,17.73c12.98,5.9 25.73,11.69 38.88,17.66c-2.3,5.11 -4.45,9.88 -6.73,14.97c-18.18,-8.2 -36.12,-16.29 -54.52,-24.59c4.33,-9.56 8.56,-18.88 12.89,-28.57z" fill="#FBFBFC" id="svg_21"/>
  <path d="m694.7,700.7c-15.9,13.83 -29.71,13.97 -44.89,-0.15c-13.15,-12.25 -25.74,-25.1 -38.57,-37.7c-0.82,-0.8 -1.59,-1.66 -2.79,-2.91c4.24,-3.61 8.38,-7.13 12.93,-11.01c5.42,5.29 11.78,11.52 18.15,17.74c7.86,7.67 15.55,15.53 23.64,22.96c5.05,4.63 11.15,4.79 16.57,1.36c6.59,-4.18 10.34,-11.17 8.01,-17.18c-1.5,-3.84 -4.5,-7.27 -7.39,-10.38c-12.1,-13.04 -24.42,-25.89 -36.83,-38.98c2.82,-2.65 6.77,-6.35 12,-11.26c4.42,4.89 9.02,10.32 13.99,15.4c8.04,8.21 16.35,16.15 24.48,24.26c15.84,15.8 16.12,31.03 0.7,47.85z" fill="#FBFBFC" id="svg_22"/>
  <path d="m1043.04,1502.42c5.71,-3.69 7.23,-8.87 6.81,-14.89c-1.16,-16.59 -2.32,-33.17 -3.47,-49.75c-0.16,-2.29 -0.3,-4.57 -0.47,-7.28c5.82,-0.38 11.22,-0.74 17,-1.12c1.38,20.48 3.41,40.66 3.9,60.88c0.49,20.18 -14.47,32.72 -35.4,31.2c-17.84,-1.3 -28.2,-11.73 -29.45,-29.56c-1.22,-17.41 -2.52,-34.82 -3.75,-52.23c-0.13,-1.8 -0.02,-3.62 -0.02,-5.85c5.46,-0.37 10.86,-0.74 16.65,-1.14c1.02,14.45 2.02,28.49 3.02,42.53c0.29,4.15 0.96,8.3 0.86,12.43c-0.35,14.34 10.84,20.3 24.32,14.78z" fill="#FAFAFB" id="svg_23"/>
  <path d="m1507.97,897.7c-0.97,4.79 -1.92,9.13 -2.96,13.95c-5.75,-1.33 -10.84,-2.51 -16.09,-3.73c3.53,-9.85 4.74,-19.35 0.05,-28.52c-1.47,-2.88 -4.14,-5.94 -7.01,-7.15c-5.21,-2.19 -10.52,2.34 -10.88,8.97c-0.36,6.48 -0.05,12.99 -0.08,19.48c-0.05,13.91 -5.58,21.79 -17.55,25.05c-12.9,3.52 -23.72,-0.5 -30.14,-12.27c-8.57,-15.71 -9.74,-32.12 -2.8,-49.38c5.32,1.48 10.34,2.88 15.61,4.35c-4.08,9.54 -4.79,19.04 -2,28.61c0.95,3.27 2.62,6.48 4.59,9.28c2.12,3.03 5.37,4.39 9.24,3.3c4.06,-1.13 6.17,-4 6.33,-8c0.18,-4.3 -0.17,-8.63 -0.28,-12.95c-0.07,-2.67 -0.17,-5.33 -0.17,-8c0.03,-13.71 5.33,-21.12 17.44,-24.42c13.11,-3.58 23.96,0.47 30.48,11.68c5.25,9.03 7.16,18.88 6.22,29.75z" fill="#FBFBFC" id="svg_24"/>
  <path d="m946.74,556.23c3.22,5.26 6.24,10.21 9.55,15.65c-5.53,1.08 -10.66,2.3 -15.86,2.93c-1.21,0.15 -3.13,-1.41 -3.92,-2.68c-6.16,-9.88 -6.1,-9.9 -17.41,-7.61c-3.26,0.65 -6.55,1.14 -9.81,1.76c-3.26,0.62 -6.49,1.31 -10.12,2.04c-0.81,4.79 -1.63,9.66 -2.5,14.84c-5.68,1.07 -11.36,2.15 -17.81,3.37c1.52,-8.72 2.9,-16.98 4.39,-25.23c3.88,-21.41 7.84,-42.81 11.68,-64.23c0.47,-2.62 0.74,-4.97 4.18,-5.03c3.43,-0.07 6.77,-2.78 9.75,2.26c12.27,20.71 25.08,41.11 37.88,61.93m-27.8,-14.5c-4.04,-6.95 -8.08,-13.89 -12.62,-21.71c-1.63,11.03 -3.09,20.88 -4.6,31.1c7.23,-1.41 13.53,-2.63 20.21,-3.93c-1.06,-1.93 -1.85,-3.35 -2.99,-5.46z" fill="#FBFBFC" id="svg_25"/>
  <path d="m686.53,1378.46c1.59,1.48 2.93,2.73 4.26,3.99c-10.53,11.41 -29.38,12.91 -41.74,3.38c-14.59,-11.27 -18.63,-27.8 -8.39,-41.57c8.09,-10.86 17.65,-20.87 27.72,-29.96c10.34,-9.35 23.11,-9.15 34.53,-1.6c12.72,8.41 18.23,20.8 14.63,34.18c-1.35,5 -3.83,9.7 -6.07,15.22c-5.02,-4.64 -9.14,-8.43 -13,-11.99c0.94,-3.5 2.2,-6.61 2.55,-9.82c0.67,-5.96 -2.43,-10.17 -7.39,-13.07c-4.79,-2.81 -10.08,-2.94 -13.94,0.82c-8.42,8.22 -16.6,16.77 -24.1,25.83c-4.17,5.04 -3.09,10.57 1.01,15.56c4.22,5.14 9.39,6.72 15.56,4.57c2.01,-0.7 3.9,-1.78 6.25,-2.88c2.5,2.26 5.18,4.68 8.12,7.34z" fill="#FBFBFC" id="svg_26"/>
  <path d="m518.87,902.38c10.49,2.67 20.57,5.54 30.83,7.51c8.37,1.6 13.81,-1.79 16.34,-8.78c2.55,-7.02 0.48,-12.92 -6.65,-17.38c-2.49,-1.55 -2.92,-3.13 -2.25,-5.67c1.15,-4.3 2.15,-8.64 3.21,-12.98c23.43,7.85 31.26,33.97 16,52.9c-7.5,9.31 -17.69,11.46 -28.81,9.48c-9.64,-1.72 -19.16,-4.12 -28.68,-6.46c-17.14,-4.22 -26.5,-15.78 -25.27,-30.93c1.57,-19.24 12.09,-30.26 30.56,-31.88c2.46,-0.22 4.95,-0.03 7.86,-0.03c-1.14,5.13 -1.92,10.05 -3.49,14.69c-0.46,1.36 -3.09,2.44 -4.9,2.81c-8.61,1.8 -13.06,6.94 -12.77,15.19c0.18,5.41 3.07,8.95 8.02,11.53z" fill="#FBFBFC" id="svg_27"/>
  <path d="m1267.86,565.83c1.8,-2.59 3.42,-4.86 5.29,-7.49c16.15,11.04 32.02,21.89 48.3,33.02c-3.11,4.55 -6.06,8.87 -9.27,13.57c-11.46,-7.81 -22.68,-15.45 -34.28,-23.35c-3.97,5.75 -7.8,11.31 -11.85,17.18c9.48,6.52 18.92,13 28.73,19.74c-3.09,4.52 -6.05,8.87 -9.25,13.56c-9.55,-6.5 -18.97,-12.91 -28.78,-19.59c-6.7,9.74 -13.24,19.26 -19.93,29.01c-4.86,-3.34 -9.34,-6.42 -14.06,-9.66c15.1,-22.09 30.01,-43.88 45.1,-65.99z" fill="#FBFBFC" id="svg_28"/>
  <path d="m1110.18,584.44c-4.48,-0.66 -8.67,-1.57 -13.08,-2.53c-2.48,-31.06 -4.95,-61.99 -7.48,-93.59c6.1,1.46 11.5,2.75 17,4.06c1.35,20.16 2.69,40.02 4.09,60.99c1.44,-2 2.32,-3.06 3.03,-4.23c9.05,-14.71 18.16,-29.39 27.02,-44.21c1.67,-2.79 3.3,-3.59 6.34,-2.65c4.08,1.25 8.27,2.13 13.02,3.33c-16.69,26.42 -33.18,52.5 -49.94,78.83z" fill="#FAFAFB" id="svg_29"/>
  <path d="m1303.6,1357.51c-3.3,-11.5 -6.71,-22.98 -9.77,-34.54c-0.43,-1.59 0.24,-4.19 1.39,-5.35c3.22,-3.27 6.96,-6.03 11.06,-9.46c3.68,13.97 7.18,27.23 10.67,40.49c0.17,0.64 0.38,1.29 0.44,1.94c1.32,15.65 12.31,25.6 21.56,36.58c1.5,1.77 3.02,3.53 4.91,5.73c-4.19,3.64 -8.28,7.19 -12.87,11.17c-5.96,-6.98 -11.62,-14.07 -17.81,-20.65c-3.08,-3.28 -6.8,-6.35 -10.82,-8.26c-14.7,-6.98 -29.64,-13.44 -44.49,-20.09c-1.32,-0.59 -2.63,-1.23 -4.51,-2.11c4.35,-3.69 8.08,-7.21 12.23,-10.13c1.12,-0.78 3.74,-0.19 5.31,0.54c10.39,4.83 20.68,9.88 31.54,15.17c0.75,-0.14 0.95,-0.59 1.16,-1.03z" fill="#FBFBFC" id="svg_30"/>
  <path d="m1257.02,1412.95c6.13,10.31 12.11,20.28 18.37,30.73c-4.89,2.93 -9.64,5.79 -14.67,8.8c-12.47,-20.9 -24.73,-41.42 -37.22,-62.34c-6.93,4.1 -13.73,8.12 -20.76,12.28c-2.82,-4.7 -5.46,-9.08 -8.45,-14.07c18.77,-11.21 37.37,-22.32 56.16,-33.55c2.86,4.77 5.56,9.27 8.46,14.11c-7.01,4.21 -13.67,8.21 -20.72,12.44c6.3,10.55 12.49,20.91 18.83,31.6z" fill="#FBFBFC" id="svg_31"/>
  <path d="m954,486.15c0.78,-1.37 1.53,-3.02 2.35,-3.05c20.75,-0.72 41.52,-1.28 62.82,-1.88c0.25,5.39 0.48,10.6 0.76,16.64c-8.21,0 -15.94,0 -24.25,0c0.67,24.68 1.32,48.56 1.99,72.88c-5.41,0 -10.8,0 -16.97,0c-0.68,-23.57 -1.37,-47.4 -2.06,-71.56c-7.87,0 -15.59,0 -24.07,0c-0.19,-4.1 -0.38,-8.33 -0.57,-13.03z" fill="#FAF9FB" id="svg_32"/>
  <path d="m553.12,836.8c-13.13,-5.68 -25.91,-11.22 -39.2,-16.98c2.22,-5.17 4.4,-10.23 6.72,-15.65c22.33,9.62 44.35,19.1 66.68,28.72c5.71,-13.19 11.3,-26.06 16.99,-39.19c5.16,2.24 9.98,4.34 15.07,6.55c-7.97,18.47 -15.77,36.54 -23.68,54.87c-14.26,-6.14 -28.24,-12.17 -42.58,-18.32z" fill="#FBFBFC" id="svg_33"/>
  <path d="m1368.49,747.46c6.36,9.17 12.5,18.05 18.86,27.27c-4.49,3.12 -8.82,6.13 -13.51,9.39c-11.37,-16.43 -22.59,-32.63 -34.05,-49.18c24.41,-16.9 48.58,-33.63 73.31,-50.74c3.26,4.76 6.4,9.32 9.68,14.08c-20.06,13.89 -39.74,27.51 -59.6,41.27c1.77,2.66 3.43,5.14 5.31,7.91z" fill="#FBFBFC" id="svg_34"/>
  <path d="m1205.34,1448.59c3.86,8.85 7.55,17.35 11.44,26.34c-5.41,2.38 -10.66,4.69 -16.18,7.11c-11.82,-27.24 -23.5,-54.17 -35.44,-81.68c5.31,-2.34 10.52,-4.63 16.2,-7.13c8.03,18.57 15.92,36.79 23.98,55.36z" fill="#FAFAFB" id="svg_35"/>
  <path d="m1044.49,484.04c5.68,0.28 10.94,0.74 16.78,1.24c-2.94,29.7 -5.86,59.05 -8.8,88.71c-6.03,-0.62 -11.6,-1.2 -17.49,-1.81c1.08,-11.39 2.1,-22.45 3.19,-33.51c1.65,-16.87 3.33,-33.74 5.04,-50.6c0.13,-1.3 0.57,-2.58 1.28,-4.03z" fill="#F9F9FB" id="svg_36"/>
  <path d="m1327.28,799.76c35.58,58.13 55.04,120.82 56.81,188.66c2.78,107.07 -32.81,199.81 -106.38,277.46c-57.27,60.44 -127.53,98.05 -209.51,112.61c-80.33,14.27 -157.72,3.77 -231.61,-31.13c-40.27,-19.01 -76.15,-44.4 -107.36,-76.12c-58.47,-59.42 -95.49,-130.16 -107.16,-212.86c-17.22,-121.98 16.22,-229.2 99.78,-319.64c58.31,-63.11 130.77,-102.38 215.81,-115.67c125.63,-19.64 235.35,14.88 328.54,101.4c23.8,22.09 43.76,47.42 61.08,75.29m-448.29,465.73c34.07,18.74 68.12,37.54 102.23,56.2c19.76,10.81 39.76,11.05 59.55,0.21c59.61,-32.64 119.25,-65.24 178.66,-98.24c19.31,-10.72 30.13,-27.77 30.43,-50.02c0.55,-40.65 0.27,-81.32 0.26,-121.98c0,-1.77 -0.43,-3.65 -1.12,-5.29c-23.4,-55.52 -64.75,-87.88 -124.51,-96.61c-2.3,-0.34 -5.01,-1.87 -6.43,-3.7c-61.13,-78.55 -180.69,-78.03 -240.97,1.05c-1.62,2.13 -4.44,4.1 -7.01,4.64c-38.12,8.02 -68.59,27.86 -92.22,58.66c-4.02,5.24 -6.06,10.48 -5.85,17.28c0.49,15.91 0.16,31.83 0.16,48.5c1.68,-1.22 2.76,-1.9 3.73,-2.71c20.47,-17.06 40.81,-34.28 61.47,-51.12c5.32,-4.33 9.88,-8.19 6.66,-15.77c-0.12,-0.29 -0.02,-0.66 -0.03,-1c-0.24,-13.96 8.89,-26.77 22.21,-31.14c13.24,-4.35 27.73,0.35 35.95,11.67c8.21,11.3 8.24,26.51 0.06,37.73c-8.37,11.49 -22.98,16.16 -36.37,11.49c-2.28,-0.79 -3.96,-1.32 -6.23,0.58c-28.17,23.68 -56.49,47.18 -84.65,70.88c-1.5,1.26 -2.66,3.83 -2.68,5.8c-0.2,19.5 -0.36,39 -0.06,58.49c0.32,20.83 8.8,37.78 26.1,49.62c7.49,5.13 15.78,9.1 23.56,13.52c0.79,-0.56 1.21,-0.82 1.59,-1.13c48.35,-40.31 96.68,-80.65 145.09,-120.89c2.17,-1.8 2.36,-3.28 1.79,-5.91c-3.12,-14.46 3.96,-28.77 17.19,-35.4c12.98,-6.51 28.33,-3.51 38.21,7.47c9.71,10.78 10.9,26.54 2.94,38.85c-7.93,12.26 -23.12,17.64 -37.19,12.74c-3.22,-1.12 -5.12,-0.33 -7.46,1.62c-34.11,28.53 -68.29,56.97 -102.44,85.45c-11.85,9.89 -23.67,19.81 -35.99,30.13c11.28,6.19 22,12.07 33.37,18.33m-66.97,-375.96c-12.15,10.13 -24.25,20.32 -36.48,30.35c-2.38,1.96 -3.5,3.91 -3.46,7.13c0.19,15.66 0.08,31.33 0.1,46.99c0,1.19 0.2,2.39 0.36,4.13c1.59,-1.52 2.68,-2.53 3.75,-3.57c19,-18.48 40.7,-32.96 66.11,-40.6c12.58,-3.79 21.92,-10.46 31.02,-19.64c71.41,-72.03 188.99,-68.56 256.31,7.26c2.78,3.13 5.7,4.6 9.57,5.3c31.67,5.78 59.72,19.29 83.76,40.59c9.61,8.5 18.07,18.3 26.92,27.37c-0.03,0.11 0.17,-0.33 0.17,-0.77c0.01,-68.49 0.45,-136.98 -0.18,-205.47c-0.33,-35.22 -26.48,-59.6 -61.62,-59.6c-118.32,0 -236.63,-0.01 -354.95,0c-34.8,0.01 -61.12,26.1 -61.22,60.78c-0.08,32 -0.02,63.99 0,95.99c0,1.2 0.2,2.41 0.34,4.07c1.67,-1.28 2.88,-2.15 4.03,-3.1c19.95,-16.63 39.79,-33.41 59.91,-49.83c5.59,-4.56 9.21,-8.31 7.95,-16.93c-2.02,-13.73 7.91,-26.83 21.17,-31.56c12.91,-4.6 27.88,-0.08 36.2,10.94c8.58,11.38 8.78,26.67 0.5,38.14c-8.41,11.65 -22.82,16.41 -36.26,11.6c-3.16,-1.14 -5.02,-0.47 -7.42,1.56c-15.27,12.89 -30.68,25.62 -46.58,38.87m51.27,-79.59c-3.93,7.36 -3.46,14.1 1.36,19.33c4.64,5.02 11.59,6.54 17.74,3.86c6.09,-2.66 9.72,-8.44 9.45,-15.04c-0.25,-6.29 -4.32,-11.84 -10.27,-14.01c-6.37,-2.33 -12.58,-0.49 -18.28,5.86m4.32,182.01c-7.83,6.53 -9.31,15.63 -3.69,22.7c5.33,6.71 14.91,7.91 21.81,2.74c6.33,-4.74 8,-13.64 3.84,-20.5c-4.4,-7.27 -12.56,-9.31 -21.96,-4.94m124.41,95.46c-6.49,6.48 -7.75,13.92 -3.48,20.62c3.89,6.1 11.52,8.81 18.27,6.4c5.58,-2 9.25,-5.85 10.2,-11.77c1.06,-6.61 -0.88,-12.24 -6.66,-16c-5.9,-3.82 -11.89,-3.53 -18.33,0.75z" fill="#060541" id="svg_37"/>
  <path d="m855.66,1443.37c0.19,-0.77 0.62,-1.18 1.06,-1.59c0.06,0.7 0.12,1.39 -0.05,2.36c-0.4,0.05 -0.58,-0.18 -1.01,-0.77z" fill="#060541" id="svg_38"/>
  <path d="m959.35,1460.62c0.19,0.18 0.22,0.55 0.25,0.92c-0.14,-0.24 -0.28,-0.49 -0.25,-0.92z" fill="#060541" id="svg_39"/>
  <path d="m840.17,570.87c0.42,0.39 0.56,1.07 0.71,1.75c-0.37,-0.12 -0.75,-0.25 -1.31,-0.61c-0.01,-0.44 0.16,-0.65 0.6,-1.14z" fill="#060541" id="svg_40"/>
  <path d="m1145.95,1473.07c0.22,0.01 0.46,-0.03 0.7,-0.02c0.04,0 0.07,0.26 0.1,0.39c-0.22,0.04 -0.44,0.08 -0.69,-0.17c-0.04,-0.29 -0.09,-0.23 -0.11,-0.2z" fill="#060541" id="svg_41"/>
  <path d="m744.62,596.41c3.48,5.1 6.86,9.83 9.96,14.74c4.38,6.96 3.28,13.63 -2.93,19.14c-0.75,0.66 -1.52,1.3 -2.33,1.87c-3.55,2.46 -7.11,4.89 -11.28,7.76c-10.47,-15.35 -20.88,-30.62 -31.8,-46.63c5.67,-3.46 10.88,-7.26 16.61,-9.98c5.79,-2.76 11.37,-0.87 15.52,4.28c2.19,2.7 4.04,5.68 6.25,8.82z" fill="#070642" id="svg_42"/>
  <path d="m581.94,723.13c6.66,-8.46 13.17,-9.62 21.83,-4c7.11,4.61 14.16,9.3 21.14,14.09c7.79,5.34 9.56,13.36 4.74,20.72c-5.03,7.68 -12.97,9.29 -21.2,4.03c-7.42,-4.73 -14.74,-9.62 -21.97,-14.63c-7.42,-5.13 -8.89,-11.78 -4.54,-20.21z" fill="#070642" id="svg_43"/>
  <path d="m766.48,1388.47c-1.01,3.96 -1.52,7.87 -3.32,11.05c-4.09,7.21 -8.75,14.1 -13.3,21.04c-5.38,8.18 -13.36,10.14 -20.97,5.28c-7.67,-4.88 -9.33,-12.91 -4.2,-21.17c4.56,-7.33 9.24,-14.58 13.96,-21.8c3.3,-5.05 7.83,-8.54 14.1,-7.44c7.02,1.23 12.18,5.12 13.73,13.04z" fill="#070642" id="svg_44"/>
  <path d="m1314.02,682.82c-4.35,-7.25 -4.17,-12.59 1.26,-18.42c6.56,-7.06 13.35,-13.92 20.38,-20.5c6.04,-5.65 13.79,-5.28 19.68,0.3c6.21,5.88 7.22,13.75 1.61,19.98c-6.88,7.65 -14.16,14.99 -21.8,21.88c-6.47,5.83 -14.2,4.41 -21.13,-3.24z" fill="#070641" id="svg_45"/>
  <path d="m919.12,542.07c0.96,1.77 1.75,3.19 2.81,5.12c-6.68,1.3 -12.98,2.52 -20.21,3.93c1.51,-10.22 2.97,-20.07 4.6,-31.1c4.54,7.82 8.58,14.76 12.8,22.05z" fill="#0F0E48" id="svg_46"/>
  <path d="m1303.33,1357.73c0.06,0.22 -0.14,0.67 -0.55,0.91c-0.03,-0.36 0.13,-0.53 0.55,-0.91z" fill="#060541" id="svg_47"/>
  <path d="m878.67,1265.31c-11.05,-6.08 -21.77,-11.96 -33.05,-18.15c12.32,-10.32 24.14,-20.24 35.99,-30.13c34.15,-28.48 68.33,-56.92 102.44,-85.45c2.34,-1.95 4.24,-2.74 7.46,-1.62c14.07,4.9 29.26,-0.48 37.19,-12.74c7.96,-12.31 6.77,-28.07 -2.94,-38.85c-9.88,-10.98 -25.23,-13.98 -38.21,-7.47c-13.23,6.63 -20.31,20.94 -17.19,35.4c0.57,2.63 0.38,4.11 -1.79,5.91c-48.41,40.24 -96.74,80.58 -145.09,120.89c-0.38,0.31 -0.8,0.57 -1.59,1.13c-7.78,-4.42 -16.07,-8.39 -23.56,-13.52c-17.3,-11.84 -25.78,-28.79 -26.1,-49.62c-0.3,-19.49 -0.14,-38.99 0.06,-58.49c0.02,-1.97 1.18,-4.54 2.68,-5.8c28.16,-23.7 56.48,-47.2 84.65,-70.88c2.27,-1.9 3.95,-1.37 6.23,-0.58c13.39,4.67 28,0 36.37,-11.49c8.18,-11.22 8.15,-26.43 -0.06,-37.73c-8.22,-11.32 -22.71,-16.02 -35.95,-11.67c-13.32,4.37 -22.45,17.18 -22.21,31.14c0.01,0.34 -0.09,0.71 0.03,1c3.22,7.58 -1.34,11.44 -6.66,15.77c-20.66,16.84 -41,34.06 -61.47,51.12c-0.97,0.81 -2.05,1.49 -3.73,2.71c0,-16.67 0.33,-32.59 -0.16,-48.5c-0.21,-6.8 1.83,-12.04 5.85,-17.28c23.63,-30.8 54.1,-50.64 92.22,-58.66c2.57,-0.54 5.39,-2.51 7.01,-4.64c60.28,-79.08 179.84,-79.6 240.97,-1.05c1.42,1.83 4.13,3.36 6.43,3.7c59.76,8.73 101.11,41.09 124.51,96.61c0.69,1.64 1.12,3.52 1.12,5.29c0.01,40.66 0.29,81.33 -0.26,121.98c-0.3,22.25 -11.12,39.3 -30.43,50.02c-59.41,33 -119.05,65.6 -178.66,98.24c-19.79,10.84 -39.79,10.6 -59.55,-0.21c-34.11,-18.66 -68.16,-37.46 -102.55,-56.38m274.43,-161.26c11.01,3.81 15.89,10.54 15.9,21.97c0.01,14.82 0.08,29.64 -0.06,44.47c-0.03,3.41 0.95,4.69 4.52,4.64c12.15,-0.18 24.31,-0.14 36.47,-0.03c3.01,0.03 4.09,-1 4.08,-4.04c-0.08,-27.32 0.04,-54.64 -0.1,-81.95c-0.05,-7.96 -5.87,-14 -13.29,-14.09c-13.32,-0.15 -26.65,-0.09 -39.97,0.02c-1.3,0.02 -3.34,0.62 -3.78,1.55c-4.07,8.55 -10.65,14.21 -19.07,18.27c-1.27,0.61 -1.65,4.02 -1.52,6.07c0.06,0.79 2.61,1.84 4.12,2.05c3.93,0.55 7.91,0.69 12.7,1.07m-114.16,32.45c0,11.33 0.1,22.66 -0.06,33.99c-0.05,3.44 1,4.69 4.55,4.64c11.49,-0.18 22.99,-0.26 34.48,0.03c4.39,0.11 5.24,-1.59 5.19,-5.53c-0.19,-14.66 -0.11,-29.32 -0.05,-43.99c0.02,-6.04 2.03,-11.2 6.34,-15.73c6.21,-6.53 14.07,-6.64 22.1,-6.96c1.54,-0.06 4.05,-1.3 4.31,-2.42c0.54,-2.34 1.15,-5.23 -2.46,-6.63c-7.6,-2.93 -12.89,-8.44 -16.85,-15.52c-0.89,-1.61 -3.44,-3.22 -5.26,-3.26c-13.15,-0.27 -26.32,-0.22 -39.48,-0.11c-7.38,0.06 -12.78,5.64 -12.8,13c-0.04,15.83 -0.01,31.66 -0.01,48.49m124.2,-73.97c25.5,10.2 45.05,-9.86 44.06,-28.17c-0.84,-15.43 -11.74,-28.8 -26.47,-30.33c-16.57,-1.73 -31.13,8.21 -34.42,23.75c-0.98,4.62 -0.36,8.59 3.28,12.74c4.02,4.56 6.14,10.78 9.19,16.22c1.06,1.9 2.43,3.64 4.36,5.79m-113.02,-42.69c-3.6,7.14 -4.4,14.78 -2.45,22.35c4.19,16.27 19.38,25.67 35.97,22.67c5.42,-0.98 9.02,-3.03 10.74,-9.55c1.65,-6.21 6.01,-12.11 10.42,-17.04c2.59,-2.9 4.15,-5.56 2.96,-8.63c-2.17,-5.64 -4.25,-11.83 -8.15,-16.2c-12.79,-14.36 -37.66,-13.03 -49.49,6.4z" fill="#FEFEFE" id="svg_48"/>
  <path d="m812.29,889.29c15.63,-13.01 31.04,-25.74 46.31,-38.63c2.4,-2.03 4.26,-2.7 7.42,-1.56c13.44,4.81 27.85,0.05 36.26,-11.6c8.28,-11.47 8.08,-26.76 -0.5,-38.14c-8.32,-11.02 -23.29,-15.54 -36.2,-10.94c-13.26,4.73 -23.19,17.83 -21.17,31.56c1.26,8.62 -2.36,12.37 -7.95,16.93c-20.12,16.42 -39.96,33.2 -59.91,49.83c-1.15,0.95 -2.36,1.82 -4.03,3.1c-0.14,-1.66 -0.34,-2.87 -0.34,-4.07c-0.02,-32 -0.08,-63.99 0,-95.99c0.1,-34.68 26.42,-60.77 61.22,-60.78c118.32,-0.01 236.63,0 354.95,0c35.14,0 61.29,24.38 61.62,59.6c0.63,68.49 0.19,136.98 0.18,205.47c0,0.44 -0.2,0.88 -0.17,0.77c-8.85,-9.07 -17.31,-18.87 -26.92,-27.37c-24.04,-21.3 -52.09,-34.81 -83.76,-40.59c-3.87,-0.7 -6.79,-2.17 -9.57,-5.3c-67.32,-75.82 -184.9,-79.29 -256.31,-7.26c-9.1,9.18 -18.44,15.85 -31.02,19.64c-25.41,7.64 -47.11,22.12 -66.11,40.6c-1.07,1.04 -2.16,2.05 -3.75,3.57c-0.16,-1.74 -0.36,-2.94 -0.36,-4.13c-0.02,-15.66 0.09,-31.33 -0.1,-46.99c-0.04,-3.22 1.08,-5.17 3.46,-7.13c12.23,-10.03 24.33,-20.22 36.75,-30.59z" fill="#FEFEFF" id="svg_49"/>
  <path d="m863.52,809.65c5.47,-6.06 11.68,-7.9 18.05,-5.57c5.95,2.17 10.02,7.72 10.27,14.01c0.27,6.6 -3.36,12.38 -9.45,15.04c-6.15,2.68 -13.1,1.16 -17.74,-3.86c-4.82,-5.23 -5.29,-11.97 -1.13,-19.62z" fill="#FAFAFB" id="svg_50"/>
  <path d="m867.92,991.75c9.09,-4.17 17.25,-2.13 21.65,5.14c4.16,6.86 2.49,15.76 -3.84,20.5c-6.9,5.17 -16.48,3.97 -21.81,-2.74c-5.62,-7.07 -4.14,-16.17 4,-22.9z" fill="#FAFAFB" id="svg_51"/>
  <path d="m992.32,1087.2c6.14,-4.07 12.13,-4.36 18.03,-0.54c5.78,3.76 7.72,9.39 6.66,16c-0.95,5.92 -4.62,9.77 -10.2,11.77c-6.75,2.41 -14.38,-0.3 -18.27,-6.4c-4.27,-6.7 -3.01,-14.14 3.78,-20.83z" fill="#FBFBFC" id="svg_52"/>
  <path d="m1152.69,1104.02c-4.38,-0.35 -8.36,-0.49 -12.29,-1.04c-1.51,-0.21 -4.06,-1.26 -4.12,-2.05c-0.13,-2.05 0.25,-5.46 1.52,-6.07c8.42,-4.06 15,-9.72 19.07,-18.27c0.44,-0.93 2.48,-1.53 3.78,-1.55c13.32,-0.11 26.65,-0.17 39.97,-0.02c7.42,0.09 13.24,6.13 13.29,14.09c0.14,27.31 0.02,54.63 0.1,81.95c0.01,3.04 -1.07,4.07 -4.08,4.04c-12.16,-0.11 -24.32,-0.15 -36.47,0.03c-3.57,0.05 -4.55,-1.23 -4.52,-4.64c0.14,-14.83 0.07,-29.65 0.06,-44.47c-0.01,-11.43 -4.89,-18.16 -16.31,-22z" fill="#D9D9D9" id="svg_53"/>
  <path d="m1038.94,1136c0,-16.33 -0.03,-32.16 0.01,-47.99c0.02,-7.36 5.42,-12.94 12.8,-13c13.16,-0.11 26.33,-0.16 39.48,0.11c1.82,0.04 4.37,1.65 5.26,3.26c3.96,7.08 9.25,12.59 16.85,15.52c3.61,1.4 3,4.29 2.46,6.63c-0.26,1.12 -2.77,2.36 -4.31,2.42c-8.03,0.32 -15.89,0.43 -22.1,6.96c-4.31,4.53 -6.32,9.69 -6.34,15.73c-0.06,14.67 -0.14,29.33 0.05,43.99c0.05,3.94 -0.8,5.64 -5.19,5.53c-11.49,-0.29 -22.99,-0.21 -34.48,-0.03c-3.55,0.05 -4.6,-1.2 -4.55,-4.64c0.16,-11.33 0.06,-22.66 0.06,-34.49z" fill="#D9D9D9" id="svg_54"/>
  <path d="m1162.79,1062.36c-1.58,-1.98 -2.95,-3.72 -4.01,-5.62c-3.05,-5.44 -5.17,-11.66 -9.19,-16.22c-3.64,-4.15 -4.26,-8.12 -3.28,-12.74c3.29,-15.54 17.85,-25.48 34.42,-23.75c14.73,1.53 25.63,14.9 26.47,30.33c0.99,18.31 -18.56,38.37 -44.41,28z" fill="#D9D9D9" id="svg_55"/>
  <path d="m1050.31,1019.52c11.64,-19.11 36.51,-20.44 49.3,-6.08c3.9,4.37 5.98,10.56 8.15,16.2c1.19,3.07 -0.37,5.73 -2.96,8.63c-4.41,4.93 -8.77,10.83 -10.42,17.04c-1.72,6.52 -5.32,8.57 -10.74,9.55c-16.59,3 -31.78,-6.4 -35.97,-22.67c-1.95,-7.57 -1.15,-15.21 2.64,-22.67z" fill="#D9D9D9" id="svg_56"/>
 </g>
</svg>